<?xml version="1.0" standalone="no"?>
<!DOCTYPE svg PUBLIC "-//W3C//DTD SVG 1.1//EN" "http://www.w3.org/Graphics/SVG/1.1/DTD/svg11.dtd" >
<svg xmlns="http://www.w3.org/2000/svg" xmlns:xlink="http://www.w3.org/1999/xlink" version="1.1">
<metadata></metadata>
<defs>
<font id="averialightitalic" horiz-adv-x="1457" >
<font-face units-per-em="2048" ascent="1594" descent="-454" />
<missing-glyph horiz-adv-x="658" />
<glyph horiz-adv-x="0" />
<glyph horiz-adv-x="682" />
<glyph unicode=" "  horiz-adv-x="658" />
<glyph unicode="&#x09;" horiz-adv-x="658" />
<glyph unicode="&#xa0;" horiz-adv-x="658" />
<glyph unicode="!" horiz-adv-x="625" d="M152 58v14l1 4l3 26q1 4 1 7q0 34 29 69t70 35l22 3h15l24 -4q42 0 42 -37l3 -20v-25q0 -66 -33 -99t-68 -33l-14 -3h-8l-11 -1l-3 1h-7l-24 4q-38 0 -38 33q-2 6 -2 9zM272 406l1 11v11q0 13 67.5 418.5t86.5 488.5t102 83h32q44 0 44 -34l-1 -10v-10q0 -5 -66 -308 t-158 -593q-26 -82 -80 -82q-28 0 -28 25z" />
<glyph unicode="&#x22;" horiz-adv-x="789" d="M302 959v18q3 18 4.5 34.5t3.5 33.5t4 30t4 35q6 47 5 58l3 26l3 33q11 72 11 89l6 43q0 58 23 78t67 20h34q41 0 41 -29v-6q-2 -14 -2 -19q0 -115 -111 -420q-16 -45 -57 -45h-11l-5 1q-23 0 -23 20zM617 959v11l1 7v6l4 40q3 20 3 26l3 27q9 63 9 79l3 26l2 26 q6 42 7.5 56t3.5 30t2 23l7 49q0 90 77 90l12 2h29q46 0 46 -30v-6q0 -53 -31.5 -156t-48.5 -175.5t-35 -112t-55 -39.5h-16q-23 0 -23 21z" />
<glyph unicode="#" horiz-adv-x="1194" d="M186 481q0 44 82 61q118 24 132 44.5t42 113t28 115.5q0 41 -82.5 54.5t-82.5 37.5q0 50 33 68q12 6 93 18t100.5 36t64.5 168.5t64 170t74 25.5q21 0 21 -33q0 -3 -14 -50t-25 -84.5t-31 -101.5t-20 -83.5t18.5 -29.5t155.5 -10q41 0 60 48q5 12 37.5 134t57 158.5 t79.5 36.5q28 0 28 -26l-38 -125q-43 -141 -43 -168q0 -45 73.5 -63.5t73.5 -45.5q0 -38 -46 -58q-14 -6 -86 -14.5t-91 -34.5q-8 -11 -40 -118.5t-32 -134.5q0 -22 75 -31.5t85.5 -17t10.5 -40.5q0 -43 -83 -59q-117 -22 -139.5 -46.5t-66 -161t-53.5 -154.5 q-24 -45 -66 -45t-42 20t45.5 167.5t45.5 166t-20 26.5q-21 8 -103.5 8t-101.5 -28q-3 -4 -50 -153.5t-66 -182t-60.5 -32.5t-41.5 20q0 9 41.5 139.5t41.5 182.5q0 37 -69 52.5t-69 59.5zM487 543q0 -5 9 -5h5l5 1l32 3q42 7 51 7l46 7l23 3l20 2q48 0 67 42q97 213 97 268 q0 11 -78 11h-11l-17 1l-72 -9q-57 0 -72 -34q-105 -231 -105 -297z" />
<glyph unicode="$" horiz-adv-x="1112" d="M153 199.5q0 66.5 58 66.5q12 0 88 -69.5t131.5 -69.5t83 58.5t56 193t28.5 152.5q0 73 -90.5 148t-131.5 138.5t-41 134.5q0 142 118 264q65 66 148 97q136 50 150.5 63.5t36 45t34.5 31.5h18q42 0 199 -187q34 -41 34 -95q0 -62 -71 -62q-8 0 -66.5 52t-106.5 52 q-39 0 -72 -91q-67 -187 -67 -289q0 -42 96 -120t140 -140.5t44 -144.5q0 -159 -104 -271.5t-244 -138.5q-81 -16 -96 -30.5t-40 -75.5t-52 -61q-37 0 -45 44q-14 77 -26.5 91.5t-69.5 35t-98.5 66t-41.5 112zM470 975q0 -48 40.5 -105t86.5 -57q14 0 14 24l4 27q6 34 6 54 t39 163t39 146v4q0 7 -7 7h-14q-10 -2 -14 -2q-64 0 -129 -74.5t-65 -153.5v-33zM576 109q0 -5 11 -5h5q10 2 16 2q73 0 148 84.5t75 183.5v25q0 52 -32 103q-48 77 -96 77h-8q-10 0 -14 -21q-46 -253 -75.5 -341.5t-29.5 -98.5v-9z" />
<glyph unicode="%" horiz-adv-x="1584" d="M252 910v42q0 50 27 140t85 165q112 146 252 146l10 -1q78 0 126.5 -57t48.5 -152v-21q0 -158 -104 -305q-48 -69 -115.5 -112.5t-125.5 -43.5h-38q-66 0 -116 55t-50 144zM275 7q0 17 989 1264q98 124 148 124h16q32 0 32 -17t-1013 -1294q-75 -94 -123.5 -94t-48.5 17z M377 925q2 -12 2 -33.5t23.5 -52.5t52.5 -31h23q67 0 133 113t66 241v20q-3 18 -3 45t-26 53t-56 26h-6l-5 -1q-73 0 -137 -109.5t-64 -203.5l-3 -33v-34zM932 185v41q0 66 32 159q65 185 213 264q57 30 117 30h10q75 0 125.5 -55t50.5 -142v-42q0 -78 -36 -170 q-72 -181 -208 -253q-57 -30 -108 -30h-29q-70 0 -118.5 57t-48.5 141zM1056 214q0 -75 27.5 -102.5t51.5 -27.5h18q70 0 123 91q77 132 77 231l1 7l1 6l1 27v7q0 70 -26 99.5t-53 29.5h-18q-71 0 -137 -113t-66 -242v-13z" />
<glyph unicode="&#x26;" horiz-adv-x="1368" d="M161 367q0 101 47.5 173.5t96 114.5t88.5 70l75 53q28 28 28 87q0 4 -15 78t-15 123q0 123 65.5 214t169.5 91h23q96 0 162 -78.5t66 -191.5t-78.5 -215t-78.5 -183q0 -183 154 -183q7 0 88 54t136.5 54t55.5 -26v-15q0 -7 -27.5 -46t-78 -131.5t-50.5 -150t56.5 -131.5 t56.5 -80t-14 -6t-87.5 31.5t-132 31.5t-204 -35t-238.5 -35h-29q-134 0 -227 95t-93 237zM299 345q0 -106 79.5 -173t161.5 -67h29q55 0 132 47.5t77 90.5q0 18 -42 80.5t-48 74t-24 38.5t-73 130t-72 103h-7q-62 0 -137.5 -92.5t-75.5 -186.5v-45zM583 1021q3 -15 3 -41.5 t34 -87.5q12 -22 26 -22q64 0 151 111.5t87 187.5v29q0 41 -27.5 68.5t-62.5 27.5h-17q-76 0 -135 -76t-59 -157v-40z" />
<glyph unicode="'" horiz-adv-x="496" d="M303 941v24l1 7l2 26q1 7 1 13l3 27q3 18 3 26l3 27q7 42 7 66l3 26l2 26q6 39 7.5 54.5t3.5 31t2 53t19.5 67t81.5 29.5h23q46 0 46 -25v-18q0 -8 -41.5 -188t-66 -234t-62.5 -54h-11q-27 0 -27 16z" />
<glyph unicode="(" horiz-adv-x="718" d="M176 288v66q0 325 181 660q94 175 232.5 317.5t199.5 142.5q30 0 30 -20.5t-74 -100t-151 -184t-150 -272.5q-125 -285 -125 -605q0 -235 68.5 -403t68.5 -179q0 -40 -42 -40q-71 0 -154.5 210.5t-83.5 407.5z" />
<glyph unicode=")" horiz-adv-x="718" d="M-32 -301q0 14 74 93.5t148 180.5q174 235 248 584q30 139 30 289q0 236 -68 405.5t-68 188.5q0 33 47 33q25 0 53 -35q70 -89 124.5 -252.5t54.5 -359.5l-1 -22q0 -347 -185 -682q-95 -171 -230 -311t-201 -140q-26 0 -26 28z" />
<glyph unicode="*" horiz-adv-x="923" d="M318 920q0 36 72 97q33 28 33 55q0 7 -28.5 25.5t-37.5 27.5q-32 34 -32 82t56 48q28 0 84.5 -42.5t76 -42.5t31.5 96t28 124.5t57 28.5h17q28 0 28 -37t-25.5 -117.5t-25.5 -86.5q0 -15 12 -15q2 0 80 37t89 39q14 3 25 3q36 0 36 -34v-10q0 -57 -82.5 -93t-82.5 -61.5 t24 -65.5t24 -66q0 -48 -37 -48l-103 30q-15 0 -42.5 -38t-96.5 -38q-27 0 -37 36t-20 36q-33 -3 -49 -3l-25 -2l-26 -1q-23 0 -23 36z" />
<glyph unicode="+" horiz-adv-x="1189" d="M196 540v16q0 50 13.5 64.5t88.5 14.5l90 5l103 1q82 0 88 13t6 179.5t23 203.5q14 23 79 23q37 0 37 -46q0 -15 -6 -69l-5 -37q-4 -28 -11 -118t-7 -111q0 -38 259 -38q103 0 103 -32q0 -64 -17 -77.5t-90 -13.5l-90 -5l-35 -1h-51q-88 0 -98 -8t-10 -180.5t-23 -212.5 q-13 -23 -77 -23h-17q-21 0 -21 46l16 162q12 156 12 173q0 43 -270 43q-90 0 -90 28z" />
<glyph unicode="," horiz-adv-x="567" d="M22 -250q0 13 36.5 46.5t73.5 88.5t37 79.5t-11 61t-11 80t28 82t75 38.5l13 2h7l6 -1q68 0 68 -58v-13q-3 -21 -3 -35q0 -110 -110.5 -257t-176.5 -147h-6q-26 0 -26 24v9z" />
<glyph unicode="-" horiz-adv-x="723" d="M124 485v10l1 5q0 82 42 93q18 5 219 5h246q23 0 23 -18v-5q-2 -10 -2 -16q0 -47 -27 -74q-12 -12 -64 -12h-421q-17 0 -17 12z" />
<glyph unicode="." horiz-adv-x="565" d="M123 58v15l2 19l4 22q0 33 38 79q22 26 65 26l24 3h12q75 0 75 -65v-21l-6 -38q0 -33 -30 -69t-74 -36l-23 -3h-15l-25 4q-43 0 -43 36q-2 6 -2 10z" />
<glyph unicode="/" horiz-adv-x="837" d="M-34 -147q0 64 805 1505q69 123 123 123h17q39 0 39 -14t-36 -82q-574 -1084 -799 -1475q-42 -73 -95.5 -73t-53.5 16z" />
<glyph unicode="0" horiz-adv-x="1130" d="M183 375v40v6q0 168 55 351q112 375 310 524q113 85 218 85h35q126 0 201.5 -102t75.5 -282v-39q0 -168 -56 -360q-110 -379 -318 -532q-106 -77 -224 -77h-18q-122 0 -200.5 102t-78.5 284zM339 343q0 -103 41.5 -170.5t118.5 -67.5h12q149 0 270 251q58 120 100 306.5 t42 304.5v45q0 251 -172 251q-149 0 -269 -248q-67 -139 -105 -329t-38 -283v-60z" />
<glyph unicode="1" horiz-adv-x="1040" d="M230 84q0 47 94.5 103.5t123.5 142.5t86.5 361.5t57.5 376.5q0 45 -33.5 58.5t-103.5 13.5t-70 29t46 53q223 115 318 115q44 0 44 -42v-17q0 -70 -88 -500t-88 -454q0 -65 53.5 -126.5t53.5 -95.5t-47 -55q-106 -48 -173 -48h-38l-19 1q-114 0 -196 49q-21 13 -21 35z " />
<glyph unicode="2" horiz-adv-x="1093" d="M83 58q0 67 102 173.5t302.5 272.5t290.5 277t90 218t-58 165t-149 58t-142.5 -30t-114 -92.5t-88.5 -62.5q-49 0 -49 25q0 43 38.5 101.5t117.5 108.5q124 79 268 79t241.5 -82t97.5 -206v-31q0 -148 -130 -303q-69 -83 -324.5 -289.5t-255.5 -263.5q0 -30 153 -30 t260.5 18t115.5 18q50 0 50 -47q0 -78 -71 -108q-44 -19 -200 -19h-162l-194 4q-189 0 -189 46z" />
<glyph unicode="3" horiz-adv-x="1095" d="M69 142v21q0 44 59 44q3 0 102.5 -65.5t187.5 -65.5q173 0 275 105q84 86 84 209.5t-87 190.5q-47 37 -141 59.5t-94 53.5q0 43 117 92t178 110q92 92 92 194q0 60 -63.5 98.5t-147.5 38.5t-183 -51.5t-110 -51.5q-19 0 -19 20q0 74 120 143.5t248 69.5h33q130 0 216 -52 q85 -50 85 -155q-1 -176 -170 -316q-115 -96 -115 -99q0 -15 66.5 -58.5t102.5 -107.5t36 -166q0 -95 -45 -175q-93 -167 -269 -233q-98 -37 -195 -37h-33q-122 0 -226 57t-104 127z" />
<glyph unicode="4" horiz-adv-x="1111" d="M144 424v14q0 51 60 130q26 36 92.5 113t81.5 95l45 54q31 36 46 54t47.5 55.5t140 166t172 193t108.5 64.5h17q46 0 46 -46.5t-72.5 -343t-72.5 -366.5t32 -100q56 -53 56 -73q0 -72 -77.5 -116.5t-77.5 -90.5l2 -15l1 -16l1 -34q0 -69 -31 -115t-73 -46h-37 q-56 0 -73.5 23t-17.5 66t15 81t15 43q0 60 -96 100q-72 30 -181 30t-139 19.5t-30 60.5zM248 479q0 -4 34 -4h119l9 1h10q219 0 242 32q2 2 78.5 293.5t76.5 323.5l-1 4q-14 0 -176.5 -200.5t-277 -323t-114.5 -126.5z" />
<glyph unicode="5" horiz-adv-x="1091" d="M70 118q0 72 71 72q7 0 127 -78q62 -41 144 -41q169 0 280 114q54 55 79.5 125t25.5 132q0 274 -347 274l-56 -2q-63 0 -87 20t-24 65t62.5 245t92.5 239t77 49t187 10t201 6l31 3q51 6 58 6h26q57 0 57 -21v-23q0 -68 -78 -98q-36 -14 -231.5 -14t-233.5 -37 q-26 -25 -66 -129t-40 -136q0 -33 14 -43t112 -10q177 0 291 -96t114 -269q0 -213 -160 -369q-67 -65 -167.5 -109.5t-213.5 -44.5h-33q-115 0 -214 55.5t-99 104.5z" />
<glyph unicode="6" horiz-adv-x="1116" d="M178 503v24q0 148 63 305t166.5 276.5t231 186t241.5 66.5t170 -33q26 -15 26 -38.5t-49 -23.5l-114 8q-62 0 -144.5 -32t-156.5 -98t-129.5 -159t-55.5 -157q0 -23 33 -23q6 0 63 18.5t122 18.5t132.5 -29.5t116.5 -83.5q98 -107 98 -289.5t-124 -314.5 q-51 -54 -120.5 -85.5t-138.5 -31.5h-50q-68 0 -143 36q-145 71 -207 255q-31 93 -31 204zM344 332q0 -95 45 -159.5t115 -64.5h27q53 0 113.5 36.5t109.5 107.5q93 135 93 297l-1 10q0 83 -41 142t-120 59h-19l-8 -1q-53 0 -117 -36t-107 -90q-90 -113 -90 -272v-29z" />
<glyph unicode="7" horiz-adv-x="1086" d="M218 -6q0 23 28 83q89 190 299 502q365 541 365 568q0 41 -36 51t-191 10t-260.5 -34t-111.5 -34q-42 0 -42 37q0 82 52.5 125.5t149.5 43.5l48 -1l25 -1l25 1q26 1 52 1l105 2h130q271 0 271 -51v-17q0 -26 -23 -66t-178 -270q-355 -526 -481 -791 q-56 -118 -80.5 -155.5t-68.5 -37.5h-21q-57 0 -57 34z" />
<glyph unicode="8" horiz-adv-x="1114" d="M155 263v21q0 120 80 240q43 64 90 102.5t96 72t49 44.5t-32 43q-102 106 -102 214q0 65 31 139.5t99.5 140.5t150.5 99.5t151 33.5h44q114 0 185 -71t71 -177q0 -211 -222 -363q-42 -28 -42 -40.5t53 -61.5t81.5 -102t28.5 -133t-36.5 -169t-113.5 -161t-163.5 -107.5 t-163.5 -35.5h-43q-116 0 -204 75.5t-88 195.5zM292 292q0 -78 53 -126t129 -48h27q121 0 222 93.5t101 214.5v24q0 80 -70 143.5t-139 63.5h-36q-18 0 -80 -33t-134.5 -119t-72.5 -196v-17zM478 1002q0 -57 57.5 -114.5t130.5 -57.5h8q78 0 168 99t90 198v22 q0 55 -42.5 97.5t-113.5 42.5h-24q-112 0 -193 -81t-81 -172v-34z" />
<glyph unicode="9" horiz-adv-x="1118" d="M164 89q0 30 64 30l56 -6q38 -4 79.5 -4t125 33.5t157.5 101t123.5 156.5t49.5 157q0 22 -35 22q-4 0 -62 -16t-126 -16t-134 32t-112 86q-94 110 -94 285.5t113.5 301.5t280.5 126h24q86 0 162 -40q230 -121 231 -496q0 -132 -55.5 -279.5t-158 -276.5t-237 -197.5 t-256.5 -68.5h-22q-101 0 -153 37q-21 15 -21 32zM401 822q0 -96 50.5 -146.5t116.5 -50.5h18l9 1q42 0 105.5 32t131.5 116.5t68 233.5v49q0 99 -48 161t-115 62h-27q-46 0 -102.5 -30t-107.5 -100q-99 -135 -99 -287v-41z" />
<glyph unicode=":" horiz-adv-x="595" d="M148 68v11q0 76 36.5 112.5t87.5 36.5h31l21 -4q40 0 40 -34q2 -6 2 -10l2 -14v-18q0 -66 -33.5 -106t-75.5 -40l-19 -3h-23l-4 1h-7q-8 2 -11 2q-41 0 -41 28q-4 12 -4 16zM301 784v19l5 34q0 44 34 78t88 34h24q68 0 68 -59v-25l-4 -30q0 -67 -44 -92t-87 -25h-4l-4 1 h-11q-16 3 -18 3q-43 0 -43 34q-2 8 -2 10z" />
<glyph unicode=";" horiz-adv-x="596" d="M41 -240q-1 14 29 41q118 108 118 198q0 9 -10 34q-12 29 -12 63v19q0 56 33 89t80 33h20q65 0 65 -55v-13l-1 -7q0 -120 -79 -238t-136.5 -156.5t-72.5 -38.5h-5q-29 0 -29 22v9zM301 777v30l4 26q0 39 39 86q23 27 65 27l23 3h19q65 0 65 -42l3 -21v-25q0 -58 -44 -113 q-24 -30 -91 -30h-8q-75 0 -75 59z" />
<glyph unicode="&#x3c;" horiz-adv-x="1183" d="M166 557v18q0 50 62 83q771 407 829 407q24 0 24 -23v-17q0 -66 -77 -113q-53 -32 -356.5 -175.5t-303.5 -153.5q0 -26 287 -170t344 -184t57 -106q0 -37 -18 -37q-4 0 -668 341q-180 92 -180 130z" />
<glyph unicode="=" horiz-adv-x="1190" d="M165 365v28q0 48 15 57.5t90 9.5h790q51 0 51 -32v-10l-1 -9q0 -56 -25.5 -61.5t-442.5 -5.5h-416q-61 0 -61 23zM187 737v19q0 55 21 62q22 7 166 7h693q64 0 64 -21v-27q0 -55 -20 -62.5t-166 -7.5h-694q-64 0 -64 30z" />
<glyph unicode="&#x3e;" horiz-adv-x="1182" d="M168 122q0 67 75 115q19 12 340.5 168.5t321.5 160.5q0 27 -275 164.5t-344 183t-69 109.5q0 40 29 40q2 0 94 -48.5t163 -84.5t164.5 -84.5t254 -131t160.5 -118.5v-17q0 -52 -41 -76l-127 -63q-54 -25 -81.5 -39t-64.5 -32l-92 -44q-54 -27 -109.5 -54t-73.5 -36 l-55 -27q-91 -43 -165.5 -83.5t-89.5 -40.5t-15 38z" />
<glyph unicode="?" horiz-adv-x="942" d="M264 55v28l1 3l2 30q0 16 37 72q17 26 53 26q14 4 18 4l23 2h3l28 -4q42 0 42 -37l3 -13v-7l1 -10v-7q0 -73 -33.5 -106.5t-67.5 -33.5q-6 -2 -10 -2l-19 -2h-7l-28 4q-46 0 -46 53zM300 1196v13q0 80 108 142.5t214 62.5h38q131 0 209 -84.5t78 -184.5v-18 q0 -94 -62.5 -196t-242.5 -251q-64 -53 -89.5 -84t-39 -118t-49.5 -87h-15q-54 0 -54 101t64 186q35 47 136.5 138t145 163.5t43.5 142.5t-47.5 117.5t-132 47.5t-152.5 -64.5t-110 -64.5t-42 38z" />
<glyph unicode="@" horiz-adv-x="1649" d="M179 531q0 169 69.5 331t185.5 274q247 240 545 240h1q298 0 459.5 -152t161.5 -397q0 -121 -40 -219q-88 -218 -245 -289q-54 -25 -114.5 -25t-96.5 27l-25 27q-26 33 -31.5 33t-83 -45.5t-120.5 -45.5q-99 0 -168.5 69.5t-69.5 210.5q1 56 31 123q86 190 269 190l41 -6 l40 -7l38 -8l36 7l34 13l33 9q55 0 55 -50l-5 -39l-18 -89q-21 -111 -21 -183t27 -99l30 -18q107 0 199 123.5t92 244.5t-27 204.5t-106 155.5q-142 129 -355 129q-303 0 -502 -225t-199 -527q0 -114 40 -222q125 -338 566 -338h3q87 0 215 42q82 27 111 28q17 0 17 -9 q0 -37 -141 -84.5t-268 -47.5h-57q-105 0 -227.5 46.5t-204.5 134.5q-174 188 -174 463zM685 439q0 -54 28 -79.5t65 -25.5h6h2q39 0 96 32q118 66 187 268q33 95 33 131v20q0 68 -85 68h-28q-93 0 -189 -109q-50 -58 -82.5 -136t-32.5 -132v-37z" />
<glyph unicode="A" horiz-adv-x="1320" d="M51 147q0 30 39 69q133 133 337 502t327 547q68 98 161 98q57 0 85 -116q9 -37 43.5 -268t42.5 -292.5t15.5 -109t18 -139t17.5 -123.5t34.5 -68.5t27.5 -68.5q0 -48 -81 -93q-31 -17 -113.5 -17t-82.5 49q0 1 10 48.5t10 143.5t-37.5 144t-151.5 48q-277 0 -337 -58 q-45 -43 -102 -162.5t-57 -189.5q0 -44 -74 -44h-22q-40 0 -75 35t-35 65zM523 587q0 -12 140 -12l78 -2h33q16 2 25 2q99 0 99 58l-2 27v17l-11 208q0 310 -27 310q-4 0 -89 -170.5t-106 -205.5t-33 -59t-59.5 -98t-47.5 -75z" />
<glyph unicode="B" horiz-adv-x="1234" d="M107 36q0 11 39.5 52t63 92.5t59.5 191.5q134 525 134 824q0 26 -15.5 61t-15.5 38q0 53 68 66q179 34 368 34h24q153 0 233.5 -67t80.5 -180q0 -200 -217 -335q-44 -27 -44 -31.5t59 -49t95 -105.5t36 -163t-51 -196.5t-138.5 -154.5t-198 -86t-275.5 -26h-22l-21 1h-62 q-200 0 -200 34zM345 166q0 -27 84 -27h10l10 1l30 1q11 1 22 1q318 0 412 200q32 68 32 130v18q0 75 -61 117.5t-171 42.5h-86l-10 -1l-62 -3q-70 0 -90 -46t-34.5 -100.5t-25 -95t-35.5 -115t-25 -123.5zM483 822q0 -14 19 -14h38q330 0 426 177q35 66 35 120v33 q0 56 -49 91.5t-136 35.5h-66l-28 -2l-36 -2q-73 0 -101 -52q-14 -42 -21 -70l-10 -32l-6 -24l-5 -16l-2 -8l-5 -16l-2 -9l-10 -32q-41 -131 -41 -168v-12z" />
<glyph unicode="C" horiz-adv-x="1312" d="M153 556q0 136 57 296t167.5 292t251 198.5t278.5 66.5h30q97 0 213 -36t127 -43q52 -33 52 -102t-23 -104t-55 -35q-12 0 -64.5 65.5t-112.5 100.5q-62 35 -174 35q-234 0 -399 -222q-75 -101 -124 -240.5t-49 -267.5q0 -231 115 -348q99 -103 280 -103q111 0 267 85 t164 85q34 1 34 -33q0 -98 -210 -196q-132 -62 -318 -62q-112 0 -209 42q-298 131 -298 526z" />
<glyph unicode="D" horiz-adv-x="1429" d="M119 40q0 26 33.5 59.5t61 77t63.5 174.5q174 629 174 829q0 36 -27.5 81.5t-27.5 60.5q0 43 76 60q133 30 333 30h23l23 -1h2q347 0 459 -281q37 -92 37 -186v-5v-77q0 -176 -84 -356q-160 -342 -481 -449q-153 -51 -353 -51l-22 1q-290 0 -290 33zM386 163 q0 -35 134 -35h16q275 0 450 201q94 107 144.5 259t50.5 283v53v6q0 85 -27 157q-76 204 -307 204h-34q-144 0 -171 -58q-1 -2 -59.5 -279t-127.5 -521.5t-69 -256.5v-13z" />
<glyph unicode="E" horiz-adv-x="1192" d="M107 101q0 36 45 89.5t62 97.5q61 152 126.5 404t65.5 423q0 55 -7 77t-27 54t-20 35q0 44 58 56q299 61 619 61q63 0 98.5 -23t35.5 -92.5t-35 -69.5q-16 0 -46.5 18t-78 35.5t-197.5 17.5q-102 0 -148 -61t-90 -169t-44 -132.5t20 -38.5q48 -35 157 -35q31 0 80 12.5 t80.5 12.5t60 -27.5t28.5 -93.5t-37.5 -106t-89.5 -40q-2 0 -63 20t-149 20q-129 0 -177 -83q-58 -101 -58 -284q0 -94 43.5 -127t129.5 -33q158 0 267 28q32 8 99 37t94.5 29t27.5 -38t-29.5 -82.5t-80 -67.5t-258.5 -23h-120q-189 0 -335 27q-107 20 -107 72z" />
<glyph unicode="F" horiz-adv-x="1120" d="M140 126v20q0 13 75 106q37 46 66 161q2 8 60 344.5t58 378t-17 90t-17 68.5q0 39 85 58q194 43 453 43h121q81 0 113.5 -17t32.5 -72v-24q0 -90 -38 -90q-16 0 -59.5 28.5t-80.5 36.5q-115 24 -268 24q-81 0 -120.5 -65t-67 -179.5t-27.5 -132.5q0 -50 39.5 -67 t102.5 -17t129.5 18t84.5 18t42.5 -20.5t24.5 -88t-38.5 -117t-93.5 -49.5l-21 3l-39 12q-34 8 -86.5 8t-111 -25.5t-76.5 -53t-49.5 -142t-31.5 -222.5l11 -76q0 -56 -85 -56h-26q-145 0 -145 97z" />
<glyph unicode="G" horiz-adv-x="1421" d="M188 580v38q0 130 54 280q56 150 162 262q232 242 539 242q220 0 346 -51q31 -13 59.5 -52t28.5 -80v-30q0 -24 -21.5 -52t-46.5 -28t-88.5 63.5t-129.5 94t-177.5 30.5t-221.5 -62q-232 -132 -325 -419q-41 -128 -41 -242q0 -210 112 -324t275 -114q77 0 155 26.5 t120 64.5q67 61 67 178q0 50 -18.5 77.5t-58 50.5t-39.5 34q0 31 36 47.5t147 16.5t156 -22q28 -14 28 -52q0 -5 -42 -84t-84.5 -220.5t-72.5 -174t-92.5 -43.5t-142.5 -34.5t-136 -23.5h-35h-4q-85 0 -175 39q-194 83 -292 341q-42 110 -42 223z" />
<glyph unicode="H" horiz-adv-x="1476" d="M96 60q0 40 54 99.5t72 131.5t87 445t69 401.5t-19 71t-19 47.5q0 37 54 60.5t163 23.5t109 -60l-8 -24l-15 -22l-15 -25q-17 -33 -47.5 -153t-30.5 -184t38 -88.5t267.5 -24.5t275.5 38q27 22 59.5 130t32.5 177t-7 99l-15 56q0 66 72.5 98.5t188.5 32.5q69 0 69 -34 q0 -22 -52.5 -82t-85 -178t-103.5 -460.5t-71 -369.5t16.5 -71t16.5 -67.5t-32.5 -45t-123.5 -21.5q-171 0 -171 74l8 23l28 52q15 34 56.5 184t41.5 214.5t-34 83.5q-35 19 -186.5 19t-297.5 -37q-47 -12 -72 -33.5t-47 -91.5q-62 -197 -62 -309q0 -30 9.5 -66.5t9.5 -39.5 q0 -36 -50.5 -70.5t-122.5 -34.5h-35q-75 0 -75 31z" />
<glyph unicode="I" horiz-adv-x="685" d="M99 67q0 22 83 113q41 44 80 183.5t90 461.5t51 346.5t-31.5 66t-31.5 59.5q0 52 91 87q41 16 145 16h53q74 0 74 -46q0 -36 -50 -83.5t-73 -142.5q-178 -732 -178 -892q0 -36 27.5 -77.5t27.5 -72t-48 -57t-105 -26.5h-54q-95 0 -123 21t-28 43z" />
<glyph unicode="J" horiz-adv-x="918" d="M-23 68.5q0 73.5 67 73.5q34 0 88 -28t110.5 -28t134 67t124 178t98 353t51.5 399q0 63 -29 100q-57 73 -57 86q0 54 57.5 91.5t136.5 37.5t135 -37q28 -19 28 -44t-17 -63.5t-40 -134.5l-6 -23q-6 -23 -12 -47l-18 -74q-25 -104 -41 -176q-108 -499 -173 -624 t-175.5 -197.5t-217.5 -72.5t-175.5 45t-68.5 118.5z" />
<glyph unicode="K" horiz-adv-x="1314" d="M154 67v29q0 6 40 66t63 149t59 301t69.5 359t33.5 189.5t-22.5 88.5t-22.5 47q0 43 44 58q26 9 108.5 9t120.5 -38q13 -13 13 -35.5t-30.5 -73t-62 -152t-31.5 -189.5q0 -33 29 -33q72 0 331 254q74 73 100 114t44.5 81t54.5 67t127 27t91 -39q-1 -9 -163 -150 q-395 -342 -395 -451q0 -63 179 -393q53 -98 130.5 -200t77.5 -106q0 -42 -77 -42h-32q-90 0 -135 72q-11 17 -28 63l-12 33q-59 167 -129 282q-96 160 -151 160t-108 -129t-53 -237l10 -103q0 -56 -44.5 -91.5t-136.5 -35.5t-92 49z" />
<glyph unicode="L" horiz-adv-x="1095" d="M83 58v16q0 1 51.5 80.5t64.5 123.5t110 464.5t97 449t-17.5 68.5t-17.5 53q0 40 41.5 68t91.5 28h23q71 0 115 -20.5t44 -56t-53.5 -97t-82 -155.5t-67 -282.5t-81.5 -375t-43 -210.5q0 -47 53 -63.5t169 -16.5t200 38q161 73 180 73q39 0 39 -50q0 -110 -55 -157 q-34 -29 -174 -29h-403q-285 0 -285 51z" />
<glyph unicode="M" horiz-adv-x="1736" d="M87 99q0 19 47 88t71 154q50 182 120 510t70 362l-6 39q-13 58 -13 65q0 51 79 51q150 0 205 -140q23 -58 52 -213t45 -227q86 -389 111 -389l28 34q39 53 169.5 259t215.5 351.5t131.5 200.5t118 90t131.5 35h37l14 -18q0 -13 -24 -60t-36.5 -108t-27.5 -145l-10 -58 q-11 -64 -66.5 -359.5t-55.5 -351t15 -88.5q41 -91 41 -100q0 -44 -96 -44h-42q-57 0 -96 42q-21 22 -21 58l9 34l16 37q17 47 79.5 426.5t62.5 413.5t-9 34q-21 0 -255 -389t-295 -479t-104 -90t-61 44l-13 52q-5 26 -27 166.5t-47 289.5q-64 383 -104 383q-16 0 -37 -56 t-82.5 -281.5t-94.5 -336t-33 -143.5l2 -37l5 -34q0 -53 -44 -85.5t-109.5 -32.5t-65.5 46z" />
<glyph unicode="N" horiz-adv-x="1467" d="M91 45v28q0 21 32 64l24 28l23 30q32 49 57 162q135 601 135 855q0 18 -15.5 60.5t-15.5 61.5q0 36 71 36t122.5 -32t126.5 -140t253.5 -497.5t180.5 -389.5q15 0 24 37q167 659 167 865l-5 34q-10 59 -10 61q0 99 162 99q55 0 81 -28.5t26 -55.5t-53 -105t-86.5 -194.5 t-96 -460t-88.5 -441t-65 -97.5q-79 0 -143.5 113t-243.5 528.5t-213 415.5q-24 0 -38.5 -40t-88 -383t-73.5 -398l3 -32l8 -60q0 -54 -52 -99t-121 -45h-37q-51 0 -51 20z" />
<glyph unicode="O" horiz-adv-x="1480" d="M217 456v22q0 156 63.5 329.5t175.5 314.5t258.5 222.5t300.5 81.5q294 0 383 -295q24 -81 24 -185q0 -172 -72.5 -358.5t-190.5 -320.5q-239 -271 -529 -271h-21q-180 0 -296 142q-41 50 -68.5 134.5t-27.5 183.5zM399 440q0 -144 72.5 -238t198.5 -94l15 1h16h3 q96 0 194 75q195 148 289 435q55 170 55 316v34q0 154 -73.5 245t-187.5 91h-32q-85 -1 -190 -69q-207 -135 -307 -445q-53 -164 -53 -299v-52z" />
<glyph unicode="P" horiz-adv-x="1176" d="M87 59.5q0 50.5 45 114t63.5 127t40 165t58.5 249t47.5 194.5t34.5 144t24 132.5t-10.5 68t-10.5 46.5q0 38 72 54q164 36 362 36h67q140 0 218 -78t78 -182q0 -206 -133.5 -343.5t-363.5 -172.5q-135 -20 -165 -42q-64 -46 -104.5 -124t-40.5 -133.5t17 -103t17 -66.5 q0 -65 -104 -115q-43 -21 -127.5 -21t-84.5 50.5zM459 725q0 -17 38 -17h37q220 0 357 110q53 43 88 117t35 144v29q0 76 -52.5 115.5t-141.5 39.5h-20l-10 -1h-20q-20 -2 -30 -2q-110 0 -143 -52q-3 -5 -70.5 -234t-67.5 -243v-6z" />
<glyph unicode="Q" horiz-adv-x="1482" d="M310 569v30q0 358 138 549q98 134 223 208q73 43 196 43h22q189 0 326 -147q57 -60 91.5 -157.5t34.5 -193.5v-52q0 -172 -97 -378q-30 -65 -132 -217.5t-102 -174.5q0 -54 90.5 -130t143.5 -76l59 8q0 -13 -28 -32q-78 -53 -196.5 -53t-200.5 33q-391 158 -462 237 q-32 35 -55 125q-51 199 -51 378zM398 463q0 -139 82.5 -239t197.5 -100q67 0 110 37q20 17 59 86t69 94q127 109 165.5 170.5t69 176.5t30.5 206v52q0 141 -68.5 225.5t-161.5 84.5h-31q-83 0 -175 -56q-179 -110 -277 -361q-70 -178 -70 -312v-64z" />
<glyph unicode="R" horiz-adv-x="1278" d="M165 98q0 39 59 118q31 42 50 130q148 694 148 882q0 33 -13 65.5t-13 46.5q0 63 344 63h57q245 0 327 -152q32 -60 32 -138v-32q0 -200 -211 -348q-84 -59 -84 -121q0 -103 78 -309q31 -80 65 -120q71 -81 71 -120q0 -50 -76 -50h-24q-58 0 -93 60q-24 40 -82 211.5 t-98 228.5q-57 81 -135.5 81t-122.5 -105q-25 -60 -25 -212q0 -38 9.5 -87.5t9.5 -57.5q0 -45 -47.5 -73.5t-111.5 -28.5t-89 14.5t-25 53.5zM475 763q0 -21 23 -21h15l8 1l34 2q9 1 44 1t137 28.5t157.5 72t92.5 109.5t37 140v9l-1 9q0 65 -47.5 104t-121.5 39h-67 q-149 0 -186 -57q-10 -15 -67.5 -211t-57.5 -212v-14z" />
<glyph unicode="S" horiz-adv-x="1107" d="M79 190v26q0 49 20.5 79.5t51 30.5t73.5 -70q94 -152 283 -152q151 0 238.5 78t87.5 200q0 83 -77 157q-42 40 -201 130t-219.5 166t-60.5 207q0 58 31 129.5t93.5 126.5t145.5 87t158 32h34q166 0 282 -50q78 -34 78 -118v-26q0 -102 -80 -102q-17 0 -62 59.5t-97 90 t-162.5 30.5t-187.5 -75t-77 -167.5t73 -160.5q44 -41 202.5 -129t221 -166t62.5 -205q0 -166 -135 -286q-71 -63 -163.5 -94t-172.5 -31h-34q-175 0 -310 61q-48 22 -72 66.5t-24 75.5z" />
<glyph unicode="T" horiz-adv-x="1174" d="M274 1168v21q0 59 27.5 116.5t67.5 78t315 20.5l55 2l404 5q99 0 99 -56v-21q0 -69 -19 -102t-39 -33t-50.5 21.5t-34.5 23.5q-41 22 -103.5 22t-96 -18.5t-54.5 -76.5t-109.5 -460t-88.5 -453t22.5 -92.5t22.5 -60.5q0 -43 -53 -71.5t-132 -28.5h-54q-92 0 -92 74 q0 19 55 82.5t78 154.5q155 599 155 851q0 40 -20 62.5t-92 22.5t-151 -54t-95.5 -54t-16.5 24z" />
<glyph unicode="U" horiz-adv-x="1429" d="M231 371v38q0 81 63 366t63 334.5t-22.5 89t-22.5 73.5t62 82q27 21 95 21h30q89 0 89 -60q0 -14 -22.5 -54t-33.5 -81.5t-73 -408.5t-62 -391q0 -142 91 -215q71 -57 196 -57t216 69t148 190.5t123.5 428t66.5 422.5q0 16 -6 51l-5 22l-3 21q0 37 32 50q17 7 77.5 7 t95.5 -25.5t35 -65.5t-45 -109t-57 -101t-58 -278t-55 -279q-47 -168 -106 -263q-78 -125 -210.5 -188t-265.5 -63h-42q-171 0 -282.5 94.5t-111.5 279.5z" />
<glyph unicode="V" horiz-adv-x="1274" d="M225 1298.5q0 38.5 42.5 62t109.5 23.5q130 0 130 -88q-14 -66 -14 -112q0 -43 17 -156q31 -209 51 -409l9 -102q23 -224 27 -239.5t17 -15.5l14 16q147 203 437 764q75 145 75 236q0 124 180 124q90 0 90 -61q0 -34 -62.5 -103t-366 -580.5t-349 -576.5t-108.5 -65 q-43 0 -58 78q-7 34 -20 164.5t-57.5 447.5t-60 383t-59.5 118.5t-44 91z" />
<glyph unicode="W" horiz-adv-x="1851" d="M267 1242v34q0 21 32 49.5t86 28.5t89.5 -19t35.5 -79l-12 -76q-3 -27 -3 -197t17 -366t25 -214l12 -14q26 0 219 357q46 85 145.5 290t121.5 236q48 66 121 66q44 0 62.5 -110t42.5 -499.5t33 -389.5q41 0 275 507q116 252 137.5 352.5t26.5 111.5q38 76 133 76t95 -62 q0 -71 -572 -1120q-80 -146 -156 -146q-53 0 -82 126q-15 65 -49 405.5t-47 392.5l-12 34q-13 0 -208.5 -358t-245.5 -435q-77 -119 -137 -119l-25 14q-37 34 -47.5 103.5t-30.5 433t-25.5 404.5t-16.5 74l-17 38q-23 51 -23 71z" />
<glyph unicode="X" horiz-adv-x="1282" d="M67 43q0 14 132 138q46 43 150 175q256 324 256 377q0 73 -141 387q-27 60 -72.5 112t-45.5 72q0 42 42 65.5t176 23.5q77 0 77 -52q0 -6 -12 -36t-12 -52q0 -54 102 -311q21 -52 30 -52q37 0 203 223q88 118 88 170l-6 41q0 77 186 77q81 0 81 -29v-16q0 -17 -77 -89.5 t-174 -193.5q-236 -295 -236 -341q0 -96 144 -437q34 -81 81.5 -126t47.5 -84t-58.5 -61t-156 -22t-97.5 65l6 22l9 21q6 20 6 54q0 91 -111 357q-20 47 -30 47q-38 0 -176.5 -194t-138.5 -247l3 -22l2 -23q0 -82 -180 -82q-98 0 -98 43z" />
<glyph unicode="Y" horiz-adv-x="1204" d="M290 1313q0 71 180 71q87 0 87 -65q-4 -28 -4 -49t36.5 -136.5t57.5 -205.5t30 -125.5t25 -35.5q43 0 264 369q44 73 58 137.5t18 69.5q38 52 140.5 52t102.5 -28v-14q0 -25 -108 -123q-51 -46 -193 -259t-201.5 -320t-93 -230t-33.5 -165t21 -83t21 -50q0 -47 -48 -81.5 t-126 -34.5q-138 0 -138 65q0 31 39.5 78.5t54.5 90.5q61 179 61 303q0 184 -116 520q-34 99 -84.5 156t-50.5 93z" />
<glyph unicode="Z" horiz-adv-x="1200" d="M54 71.5q0 43.5 472 600.5t472 574q0 41 -262 41q-119 0 -181 -16.5t-133.5 -52.5t-89.5 -36q-41 0 -41 46q0 92 85 140q62 35 231 35h232l39 -1l192 1h73q99 0 99 -35v-26q0 -40 -468 -590.5t-468 -591t304 -40.5q132 0 204.5 17t149 55.5t84.5 38.5q38 0 38 -47 q0 -86 -76.5 -136.5t-196.5 -50.5h-111l-38 1l-77 1q-39 1 -78 1l-119 3q-39 1 -145.5 1t-148.5 12t-42 55.5z" />
<glyph unicode="[" horiz-adv-x="716" d="M97 -249q0 41 149 771t174.5 818.5t54 104.5t85 16t128.5 3l93 4q50 0 50 -14q0 -53 -50 -73q-13 -5 -83 -14t-98.5 -26t-53 -89.5t-154 -693t-129.5 -677.5t20 -72t103.5 -31.5t83.5 -50.5q0 -49 -81 -49l-22 1l-45 1q-178 0 -201.5 15t-23.5 56z" />
<glyph unicode="\" horiz-adv-x="888" d="M212 1453q0 22 46 22h16q46 0 82 -107q94 -281 180.5 -618t164.5 -585t78 -287q0 -22 -47 -22h-16q-47 0 -81 103q-2 6 -20 69l-15 53l-9 35q-13 47 -40.5 133t-57.5 207t-155.5 548t-125.5 449z" />
<glyph unicode="]" horiz-adv-x="720" d="M-39 -291q0 31 49 53q17 8 84.5 16.5t89.5 20.5q38 20 60.5 91t97.5 429.5t131 608.5t56 320t-18.5 87t-80.5 28.5t-77 18.5q-30 13 -30 49t57 36h65l23 -1q23 -1 101.5 -1t103 -14t24.5 -52t-148 -764.5t-175.5 -820.5t-55 -111.5t-139.5 -17.5l-73 -3q-33 -1 -48 -2 l-45 -2h-21q-31 0 -31 31z" />
<glyph unicode="^" horiz-adv-x="1123" d="M169 671.5q0 10.5 52 92t188.5 322t161 274t77.5 33.5h15q37 0 86 -101q287 -593 287 -622q0 -11 -33 -11h-15q-59 0 -98 62.5t-141 287.5t-116 225t-140 -223t-171 -286.5t-128 -63.5q-25 0 -25 10.5z" />
<glyph unicode="_" horiz-adv-x="1080" d="M-58 -214q0 40 6.5 53t58.5 13h804q217 0 217 -22v-10l-1 -10q0 -66 -53 -66h-898q-134 0 -134 21v21z" />
<glyph unicode="`" horiz-adv-x="811" d="M339 1422v8q0 31 60 31h9q62 0 101 -46q155 -181 155 -241v-12q0 -17 -28 -17h-5q-8 2 -13 2q-48 0 -163.5 132t-115.5 143z" />
<glyph unicode="a" horiz-adv-x="1042" d="M101 272v40q1 109 57 232q113 246 308 346q86 44 154 44t132 -20t68 -20l85 19q50 0 50 -59v-16q0 -24 -47.5 -219.5t-47.5 -314.5q0 -50 42 -92t42 -77.5t-50 -73t-108 -37.5h-14q-44 0 -76.5 68.5t-58.5 68.5q-18 0 -67.5 -33.5t-79.5 -49.5q-73 -39 -173.5 -39 t-158 62.5t-57.5 170.5zM255 270q2 -18 2 -29q0 -57 30.5 -93t68.5 -36h25q59 0 137 64q155 125 225 370q34 119 34 180v19q0 43 -33.5 69.5t-87.5 26.5h-29q-65 0 -129 -44q-133 -92 -207 -303q-36 -103 -36 -194v-30z" />
<glyph unicode="b" horiz-adv-x="1076" d="M148 116v18q0 15 38.5 166.5t116.5 525t78 401t-15 66t-15 65t22 51.5t82 25q79 0 79 -66q0 -49 -43.5 -215t-43.5 -207t92 -41q1 0 54 7t93 7q124 0 200.5 -86t76.5 -215v-24q0 -112 -43.5 -223t-111.5 -199q-126 -163 -310 -163h-22q-59 0 -128 25t-77.5 25t-28.5 -9 t-38 -9q-56 0 -56 75zM329 230q0 -52 32.5 -87.5t85.5 -35.5h19q124 0 242 163q59 82 95.5 196.5t36.5 195.5v30q0 79 -31.5 123t-84.5 44l-8 -1h-9q-51 0 -123 -51q-147 -104 -219 -352q-34 -119 -34 -176l-2 -20v-29z" />
<glyph unicode="c" horiz-adv-x="929" d="M99 359q0 105 38.5 213t110.5 195.5t171.5 141t196.5 53.5h20q108 0 188.5 -32t80.5 -80v-15q0 -32 -24 -56t-44.5 -24t-56 25t-50.5 34q-57 33 -126 33q-144 0 -254 -158q-93 -134 -93 -333q0 -119 65.5 -182t174.5 -63q62 0 120.5 29.5t94.5 50.5q49 28 75 28 q30 0 30 -37q0 -53 -131 -120t-243 -67h-21q-73 0 -136.5 29t-102.5 76q-84 100 -84 259z" />
<glyph unicode="d" horiz-adv-x="1117" d="M159 324v23q0 89 55 223.5t149 231t183.5 131.5t240.5 35q93 0 137 67q61 93 61 255l-9 81q0 42 33 69.5t79 27.5h17q56 0 56 -57v-21q0 -51 -131 -534.5t-131 -563.5q0 -24 16 -74t16 -51q0 -43 -35 -74t-94 -31q-13 0 -53 30q-11 8 -55 8h-21l-21 2l-11 2 q-27 0 -106 -34.5t-130 -34.5h-19q-99 0 -163 88t-64 201zM302 273q0 -75 32 -113t79 -38h8l9 1q50 0 118 44q67 44 129.5 137.5t100 224.5t37.5 208v9q0 56 -30.5 89t-86.5 33h-28q-121 0 -229 -148q-62 -86 -100.5 -201.5t-38.5 -194.5v-51z" />
<glyph unicode="e" horiz-adv-x="968" d="M114 339v42q0 106 59 221q114 223 323 317q116 52 215 52t157 -53.5t58 -138.5v-18q0 -55 -24 -111q-22 -56 -64 -84q-69 -46 -379 -99q-114 -20 -134 -28q-53 -22 -53 -108.5t60.5 -147t166.5 -60.5q62 0 157 40q13 6 74.5 39t82.5 33q37 0 37 -39q0 -56 -139 -125.5 t-242 -69.5h-22q-146 0 -239.5 93.5t-93.5 244.5zM311 590q0 -26 32 -26h19l41 4q144 0 334 69q50 18 50 81v23q0 41 -29.5 79t-87.5 38l-13 2h-34q-93 0 -202.5 -99t-109.5 -171z" />
<glyph unicode="f" horiz-adv-x="664" d="M-50 -199q0 22 38.5 55t56.5 56q55 69 97 196q119 364 119 611q0 17 -9.5 64.5t-9.5 81.5l-12 59q0 3 81 84q33 34 89 166q130 310 404 310q121 0 121 -65q0 -30 -22.5 -51.5t-40 -21.5t-58 11t-70.5 11q-79 0 -147 -94t-68 -218q0 -55 65 -87q89 -43 89 -59 q0 -10 -112 -76q-65 -38 -99.5 -108.5t-112.5 -378t-117.5 -394t-93.5 -142t-105 -55.5q-83 0 -83 31v14z" />
<glyph unicode="g" horiz-adv-x="1149" d="M-6 -303q0 80 54 80q22 0 116.5 -52.5t176.5 -52.5q240 0 343 256q34 84 34 115l-5 7q-8 0 -31.5 -10t-70.5 -27t-118 -17q-142 0 -229.5 109t-87.5 306q0 97 32.5 210.5t91.5 195t155.5 139t188.5 57.5h26q68 0 133.5 -40.5t73.5 -40.5t34.5 23.5t60.5 23.5q62 0 62 -82 q0 -57 -32 -140l-22 -50q-23 -53 -43.5 -128t-69 -393.5t-78.5 -376.5q-66 -129 -189 -199t-266 -70h-31q-110 0 -209.5 53t-99.5 104zM297 351l1 -11q0 -79 36 -135t93 -56h37q47 0 119 45q140 87 209 331q32 112 32 181v43q0 63 -37 103.5t-99 40.5h-38q-54 -1 -116 -41 q-135 -87 -203 -293q-32 -96 -32 -163l-2 -23v-22z" />
<glyph unicode="h" horiz-adv-x="1104" d="M142 105q0 65 44 214t114.5 472.5t70.5 416.5l-18 87q0 61 34 103.5t73 42.5h23q69 0 69 -70.5t-47.5 -247.5t-47.5 -184q0 -43 37 -43l100 34q68 23 131 23q95 0 148.5 -65.5t53.5 -156.5v-32q0 -41 -20 -161l-12 -66q-47 -255 -47 -361q0 -42 -43 -42t-66 59 q-13 33 -13 95t34.5 217.5t34.5 200.5q0 164 -131 164q-27 0 -72 -28q-80 -50 -132 -143q-79 -141 -131 -385q-21 -104 -41 -152q-34 -83 -82 -83q-64 0 -64 91z" />
<glyph unicode="i" horiz-adv-x="566" d="M149 115v24q0 23 17.5 99t23.5 104l7 27q7 31 41.5 175t34.5 199.5t-26 77t-26 55.5q0 85 167 85h22q46 0 46 -64v-12q0 -29 -52 -263.5t-52 -337.5q0 -42 32.5 -82.5t32.5 -58.5q0 -52 -57.5 -89t-133.5 -37h-10q-17 0 -42 25t-25 73zM370 1241v16l2 14v7q4 12 4 20 q0 39 29.5 68.5t61.5 29.5q6 2 10 2l18 2h17q9 -3 19 -3q36 0 36 -49v-10l-1 -3l-3 -27q-1 -3 -1 -7q0 -39 -29.5 -74t-79.5 -35h-31q-52 0 -52 49z" />
<glyph unicode="j" horiz-adv-x="559" d="M-194 -398q0 68 120 90t180 166q22 53 101.5 397t79.5 464q0 54 -25 79q-45 45 -45 69q0 73 153 73q41 0 67.5 -23.5t26.5 -55.5v-32q0 -69 -82 -468t-137 -522.5t-146.5 -199t-195.5 -75.5h-16q-81 0 -81 38zM386 1236v17l2 13v7q4 16 4 33.5t26.5 51t60.5 33.5l4 1l3 1 l32 3q65 0 65 -52v-7l-1 -3v-10l-4 -24q-2 -6 -2 -10q0 -41 -29 -70t-58 -29q-6 -2 -10 -2l-17 -2h-21l-21 4q-34 0 -34 45z" />
<glyph unicode="k" horiz-adv-x="1023" d="M151 87.5q0 55.5 66.5 402.5t114 529.5t47.5 242.5l-16 89q0 61 27.5 78t80.5 17q86 0 86 -72q0 -12 -80.5 -315.5t-80.5 -372.5q0 -36 36.5 -36t157.5 130t168 161.5t104 31.5t57 -19q0 -32 -155.5 -184t-155.5 -213q0 -87 106 -278q53 -95 101.5 -136t48.5 -49 q0 -53 -93 -53q-59 0 -103.5 47t-149.5 271q-18 40 -27 53q-24 36 -66 36q-34 0 -72 -88q-13 -31 -38 -137.5t-50 -148.5t-66 -42h-19q-29 0 -29 55.5z" />
<glyph unicode="l" horiz-adv-x="559" d="M136 126.5q0 50.5 112.5 585t112.5 562.5t-18.5 65t-18.5 45q0 40 28 58.5t103 18.5h30q58 0 58 -60v-14q0 -15 -45 -199.5t-111 -507t-66 -396.5t38.5 -119.5t38.5 -57.5q0 -37 -51.5 -64.5t-110.5 -27.5h-13q-26 0 -56.5 30.5t-30.5 81z" />
<glyph unicode="m" horiz-adv-x="1625" d="M156 242q0 13 21.5 134t25.5 163.5t9.5 67t12 67.5t22 90.5t55.5 81.5t63 34t50.5 -44.5t36.5 -44.5q20 0 114.5 50.5t177.5 50.5t119 -20.5t64 -62.5t45 -42t47 21l28 21q145 107 240 107t147 -57t52 -152v-39q0 -28 -31.5 -224.5t-31.5 -308.5l1 -23l1 -14 q0 -11 -20 -11q-49 0 -78 65t-29 130t13.5 164.5t13.5 159.5t-37.5 118.5t-106.5 58.5t-141 -113q-93 -148 -155 -376q-28 -103 -49 -146q-37 -76 -111 -76t-74 44q0 37 49 292q50 260 50 304q0 92 -106 93q-54 0 -125 -61t-107 -118t-114 -288t-95 -231q-5 0 -15 14 q-32 45 -32 121z" />
<glyph unicode="n" horiz-adv-x="1120" d="M119 135v22q0 34 25 121l7 24l8 23q61 187 61 299l-14 81q0 82 44.5 139.5t95 57.5t64.5 -47q25 -81 28 -81q9 0 76.5 53.5t132.5 84.5t149.5 31t139.5 -58t55 -166q0 -60 -37.5 -250.5t-37.5 -241.5t12.5 -68.5t26 -29.5t13.5 -17.5t-30.5 -23.5t-67.5 -18 q-98 0 -98 191q0 30 22 184t22 204q0 188 -135 188q-60 -1 -128 -57q-138 -114 -210 -351q-3 -10 -33.5 -131.5t-36.5 -138.5q-35 -95 -87 -95h-14q-53 0 -53 71z" />
<glyph unicode="o" horiz-adv-x="1053" d="M149 296v31q0 105 46 226.5t133 226.5q169 204 383 204q124 0 203.5 -84t79.5 -200v-44q0 -109 -48 -226.5t-119 -207t-179 -154.5t-209 -65h-43q-109 0 -178 82t-69 211zM311 321q0 -103 40 -159t107 -56h29q55 0 119.5 51.5t108.5 127.5q105 181 105 367v11 q0 93 -36 153t-108 60h-19q-52 0 -116.5 -42t-111.5 -118q-118 -193 -118 -384v-11z" />
<glyph unicode="p" horiz-adv-x="1097" d="M-11 -389q0 22 30 99.5t49.5 139t119 428.5t99.5 433l-16 131q0 22 34 51t120 29q12 0 29.5 -14.5t40.5 -14.5t82 33.5t130 33.5q135 0 219.5 -87.5t84.5 -236.5v-23v-3q0 -85 -55 -210q-119 -273 -343 -355q-43 -16 -173.5 -32t-156.5 -33q-63 -43 -63 -208 q0 -87 -25 -134q-44 -83 -105 -83h-19q-82 0 -82 56zM363 212q0 -39 34.5 -70.5t85.5 -31.5h27q57 0 123 45.5t113 122.5q117 191 117 380v21q-2 20 -2 30q0 55 -31.5 100.5t-80.5 45.5h-26q-54 -1 -116 -43q-132 -91 -206 -347q-36 -126 -36 -196l-2 -20v-37z" />
<glyph unicode="q" horiz-adv-x="1090" d="M150 289v26q0 96 39 215.5t117 225.5q156 214 343 214q97 0 167 -35q53 -22 66.5 -22t42 24t56.5 24t28 -59q0 -6 -42 -155.5t-120 -482t-78 -446.5q0 -34 21.5 -78.5t21.5 -70.5t-27.5 -54.5t-82.5 -28.5q-104 0 -104 70q0 27 48.5 159t48.5 199q0 43 -57 43l-60 -17 q-103 -31 -176 -31q-109 0 -180.5 79t-71.5 201zM297 277q0 -67 29.5 -113t78.5 -46h16q65 0 140 61q148 120 217 362q33 116 33 198l-1 9q0 64 -36 94.5t-92 30.5h-19q-57 0 -119 -42q-137 -94 -211 -316q-36 -108 -36 -186v-52z" />
<glyph unicode="r" horiz-adv-x="766" d="M110 50q0 12 63 264t63 371q0 18 -12.5 48t-12.5 77.5t43 84t107 36.5t75.5 -68.5t28.5 -68.5q9 0 39 32q105 110 202 110q63 0 63 -55v-8q0 -44 -120 -74t-178 -115.5t-88 -180.5t-60.5 -243t-40.5 -173q-34 -81 -100 -81h-15q-57 0 -57 44z" />
<glyph unicode="s" horiz-adv-x="851" d="M45 139q0 92 63 92q23 0 69.5 -48.5t59.5 -56.5q53 -35 140 -35t146 44.5t59 108t-46 109.5q-22 22 -144 94.5t-161 126.5t-39 149t98 176t234.5 81t208 -40t71.5 -88q0 -89 -65 -89q-11 0 -77.5 56t-147.5 56t-133 -41t-52 -103.5t60 -110.5q14 -11 127.5 -77 t159.5 -118.5t46 -159.5t-104 -193t-250 -86t-252 56q-71 38 -71 97z" />
<glyph unicode="t" horiz-adv-x="690" d="M169 182v41q0 34 51.5 274.5t51.5 298.5q0 33 -42 53.5t-42 53.5t64.5 55.5t74 35.5t28.5 82t30 90q35 66 85.5 66t50.5 -41l-12 -120q0 -51 27.5 -73t85.5 -32.5t58 -40.5q0 -46 -103.5 -73.5t-127.5 -71.5q-34 -61 -76.5 -255.5t-42.5 -261t31.5 -91t102.5 -24.5l57 3 q33 0 33 -42.5t-45 -65.5q-70 -36 -141 -36h-18q-81 0 -131 44t-50 131z" />
<glyph unicode="u" horiz-adv-x="1111" d="M156 229v25q0 73 43.5 279.5t43.5 238.5t-20.5 69t-20.5 40q0 40 87 40h21q83 0 83 -140q0 -59 -40.5 -237t-40.5 -258q0 -166 124 -167q66 0 142 59.5t139 156t113.5 312t100.5 215.5q63 0 63 -78q0 -36 -21 -148t-21 -164l9 -206q0 -84 -37 -146.5t-93 -62.5t-78 33 q-8 12 -18 47t-20 35q-17 0 -64 -32q-170 -116 -286 -116h-24q-71 0 -128 55t-57 150z" />
<glyph unicode="v" horiz-adv-x="992" d="M141 845v14q0 77 137 77q66 0 83 -74q27 -119 45 -390t38 -271q6 0 31 26q125 130 227 318t114 287q7 54 17 72q27 47 103 47q53 0 53 -51v-15q0 -57 -46 -128l-10 -18q-23 -39 -32 -57l-30 -63q-160 -320 -359 -527q-72 -74 -128.5 -74t-72.5 63.5t-27.5 246.5 t-35.5 293t-46 139q-61 83 -61 85z" />
<glyph unicode="w" d="M162 853q0 34 23.5 61t79 27t79.5 -35t24 -120l-2 -33l-1 -35q-2 -72 -2 -114q0 -308 33 -360l12 -10q43 0 180 266q66 127 111.5 231.5t56.5 123.5q35 61 73 61q63 0 78 -69q9 -42 20 -330t47 -288q45 0 193 283q49 94 97.5 233t57.5 151q27 35 70 35q35 0 35 -55.5 t-25.5 -107t-94.5 -210t-142.5 -290t-115 -181t-96 -49.5t-86 79.5t-67 288.5t-47 209t-118 -172.5t-178.5 -265t-118 -92.5t-64 63q-6 20 -20 171.5t-53.5 325.5t-39.5 208z" />
<glyph unicode="x" horiz-adv-x="1002" d="M41 35q0 40 100 98q64 37 143 132q145 174 145 254.5t-105 221.5q-19 26 -60 63.5t-41 63t17 37.5q47 33 117.5 33t97 -30t73 -137t60.5 -107q9 0 100 108t119 133.5t93 25.5t65 -30q0 -37 -82 -82t-132 -106q-138 -167 -138 -235.5t98 -223.5q31 -49 81 -82t50 -65 t-38 -55q-67 -40 -122 -40t-86 42q-12 16 -65 139t-54 123q-24 0 -136 -127q-31 -35 -59 -70l-26 -35q-27 -36 -41 -49q-37 -33 -105.5 -33t-68.5 33z" />
<glyph unicode="y" horiz-adv-x="992" d="M-18 -410q0 52 114.5 104t191.5 157.5t77 228.5q0 12 -52.5 280t-79 354t-26.5 116.5t33.5 60.5t84.5 30q62 0 121 -431q6 -44 12.5 -144.5t15.5 -100.5q55 0 167 223t134 326t30 116q22 35 65 35h20q45 0 45 -41q0 -83 -80 -234q-19 -37 -43.5 -94t-30.5 -69l-89 -190 q-94 -201 -210 -381q-244 -376 -429 -376h-19q-52 0 -52 30z" />
<glyph unicode="z" horiz-adv-x="944" d="M52 55q0 72 315.5 396t315.5 356t-197 32q-66 0 -153 -32.5t-88 -32.5q-49 0 -49 41q0 78 50.5 111t183.5 33h27l303 -12l119 5q33 0 33 -30q0 -63 -310 -389t-310 -366q0 -29 33 -41q57 -21 166.5 -21t199 38t94.5 38q49 0 49 -61.5t-63.5 -96.5t-174.5 -35h-53 q-52 0 -164 12t-193 12l-99 -3q-35 0 -35 46z" />
<glyph unicode="{" horiz-adv-x="762" d="M157 571q0 29 112 85q66 33 99 112q20 48 55.5 270t90 297t136 110.5t141 35.5t59.5 -11v-14q0 -40 -90.5 -80.5t-126.5 -104t-72.5 -264t-60.5 -256.5q-36 -86 -127 -141q-45 -26 -45 -30q0 -9 29 -36t52 -63t23 -110t-35 -217t-35 -226.5t54 -128.5q95 -80 95 -111 q0 -22 -44 -22q-110 0 -181.5 64.5t-71.5 187.5q0 54 41 225t41 237.5t-49 113.5q-14 13 -52 33.5t-38 43.5z" />
<glyph unicode="|" horiz-adv-x="738" d="M329 -282l1 21l2 84v41l8 334v41l8 333q0 730 21 935q5 48 36 48h36q47 0 47 -56v-61l-1 -21l-5 -251v-41l-12 -541q0 -721 -22 -935q-5 -48 -54 -48h-18q-47 0 -47 56v61z" />
<glyph unicode="}" horiz-adv-x="760" d="M-18 -314q0 44 89.5 83.5t130 109.5t71 259t59 257t82.5 115q12 11 52 35.5t40 32.5q0 1 -35 36q-70 70 -70 184q0 48 34.5 201.5t34.5 212t-25 99.5q-10 16 -65.5 59t-55.5 84q0 26 37 26q115 0 186 -64t71 -180q0 -64 -39 -226.5t-39 -230.5t50 -115q15 -14 50.5 -36.5 t35.5 -43.5q0 -36 -83 -71.5t-116.5 -102t-64.5 -288t-95 -315.5q-44 -64 -128 -103t-171 -39q-36 0 -36 21z" />
<glyph unicode="~" horiz-adv-x="1166" d="M142 497q0 70 85 150t171 80h23q79 0 216 -77.5t196.5 -77.5t114.5 58q86 91 97 91q45 0 45 -44q0 -63 -83 -146t-174 -83h-12q-88 0 -219 77.5t-197 77.5t-122 -60q-85 -90 -96 -90q-45 0 -45 44z" />
<glyph unicode="&#xa1;" horiz-adv-x="610" d="M84 -355l1 11v10q0 32 61.5 257.5t107 407.5t67 247t79.5 65q23 0 23 -23v-10q0 -30 -29 -196.5t-74.5 -439.5t-50.5 -294q-19 -78 -110 -78h-23q-52 0 -52 43zM330 894v18q0 37 32 77t77 40h22q6 -2 19.5 -2t37.5 -24t24 -59v-29q0 -44 -33.5 -77.5t-60.5 -33.5l-21 -3 h-11q-35 0 -58.5 23.5t-24.5 37.5t-1 18z" />
<glyph unicode="&#xa2;" horiz-adv-x="1026" d="M188 412v46q0 53 31.5 147t98.5 182t155 143q40 25 112 62.5t92.5 55t53.5 85.5t62 68h12q17 0 24 -30q22 -100 44 -131q67 -95 67 -124q0 -76 -46 -76q-14 0 -48 15t-56 15q-54 0 -102 -139q-106 -304 -106 -439q0 -68 39 -68q33 0 111 32t80 32q19 0 19 -26 q0 -40 -177 -138q-56 -31 -87.5 -63.5t-66 -108t-75.5 -75.5q-24 0 -24 42l4 77q0 54 -75 121t-108.5 134t-33.5 161zM345 425q0 -74 32.5 -134t71.5 -60h13q11 0 27 47q168 504 168 609v14q0 10 -9 10h-6q-33 0 -92.5 -38.5t-114.5 -123.5q-90 -140 -90 -308v-16z" />
<glyph unicode="&#xa3;" horiz-adv-x="1110" d="M77 68q0 10 80 73q45 35 87 118q71 140 71 269q0 47 -55 72.5t-55 39.5q0 31 54.5 63.5t68.5 55.5t35 88l30 98l12 34q100 271 305 361q87 38 167 38h34q82 0 124 -27q71 -45 71 -117v-27q0 -59 -61 -59q-2 0 -67.5 41t-127.5 41q-117 0 -199 -114.5t-82 -236.5 q0 -74 18 -89t51 -24l79 -18q64 -19 64 -60q0 -29 -92 -57t-123 -67q-13 -16 -73 -152t-60 -189t36 -73q70 -39 226 -39q81 0 142 35l67 48q50 33 69 33q51 0 51 -52q0 -20 -24.5 -70.5t-84 -92.5t-143.5 -42h-34q-65 0 -237.5 27.5t-252.5 27.5q-171 0 -171 43z" />
<glyph unicode="&#xa4;" horiz-adv-x="1130" d="M152 250q0 19 55 74t55 82q0 10 -25 88t-25 154.5t16 119t38.5 91.5t22.5 71t-46 81t-46 60q0 21 24 46q25 25 41 25t68 -48.5t90 -48.5q6 0 49 17.5t79 29.5t104 12t150 -26.5t89 -26.5q31 0 82 49t68 49t39.5 -23.5t22.5 -38t-55 -69.5q-55 -56 -55 -76q1 -20 25 -94 t24 -151t-16.5 -122.5t-39 -93t-22.5 -70t46 -81.5t46 -60q0 -20 -24 -45t-48 -25q-8 0 -59.5 48t-91.5 48q-4 0 -55.5 -19.5t-82 -28.5t-97 -9t-143 25.5t-99.5 25.5t-74.5 -49.5t-66 -49.5t-39 20t-24.5 39zM335 634q0 -108 75 -195.5t191 -87.5h19q116 0 207.5 98.5 t91.5 237.5v11q0 126 -78 210t-178 84h-29q-115 0 -207 -99t-92 -227v-32z" />
<glyph unicode="&#xa5;" horiz-adv-x="1135" d="M233 439q0 18 110 40t110 67q0 38 -64.5 78t-64.5 65q0 18 49.5 76.5t49.5 126.5t-70 202q-24 46 -60 91.5t-36 66t20 35.5q74 54 172 54q64 0 64 -36l-10 -33q0 -8 47 -151t73 -254l18 -84q11 -38 25 -38q7 0 107 144q231 334 231 399.5t112.5 65.5t112.5 -55 q0 -12 -87 -97.5t-148 -175.5q-106 -157 -106 -238q0 -20 26 -56t26 -44q0 -32 -101 -71t-101 -82q0 -37 54 -55q108 -37 108 -47q0 -26 -93 -43t-132 -63q-54 -65 -54 -149q0 -10 28.5 -44.5t28.5 -60.5l-12 -24q-38 -41 -170 -41t-166 32l-13 18q0 31 54.5 85.5 t54.5 145.5q0 53 -22 73.5t-96.5 39.5t-74.5 37z" />
<glyph unicode="&#xa6;" horiz-adv-x="744" d="M332 -247l1 9v26l1 18v26l1 17v17l2 44v17l1 17v17l1 9v17l1 17v18l2 43q0 306 13 355q5 18 37 18h59q24 0 24 -20v-68l-1 -9v-26l-1 -18v-17l-2 -35v-17l-1 -18v-17l-2 -35v-17l-1 -18v-17l-1 -17v-18l-2 -43v-17l-1 -9v-17l-1 -17v-26l-2 -44v-17l-1 -9v-34l-1 -9v-17 l-2 -44l-2 -51q0 -26 -63 -26l-17 -1h-9q-33 0 -33 37v26zM365 790v34l1 9v26l2 43v17l1 18v17l1 8v18l1 17v17l2 43v17l1 17v17l1 8v17q0 284 12 344q5 24 39 24h58q24 0 24 -21v-51l-1 -9v-26l-1 -17v-17l-1 -17v-34l-1 -9v-17l-1 -17v-17l-2 -43v-17l-1 -17v-17l-1 -26 q0 -279 -13 -344q-5 -24 -47 -24h-50q-24 0 -24 29z" />
<glyph unicode="&#xa7;" horiz-adv-x="1035" d="M70 -132q0 23 19 49t49.5 26t71.5 -55.5t61 -68.5q51 -33 112 -33q105 0 168 61.5t63 138t-30.5 121t-155 156.5t-167.5 186t-43 157.5t29 137.5t82 111.5t53 72t-12 58t-12 102t36 130.5t97 123q112 94 273 94q107 0 178.5 -46t71.5 -110q0 -25 -17 -52.5t-35 -27.5 q-44 0 -98.5 68t-141 68t-150.5 -55.5t-64 -133t37 -123t153 -143t165.5 -174t49.5 -160.5q0 -136 -95 -251q-67 -81 -67 -104l5 -26l6 -27q8 -41 8 -97.5t-34.5 -131t-99.5 -127.5q-117 -96 -255.5 -96t-224.5 54.5t-86 127.5zM340 655q0 -81 73 -167q190 -224 247 -224h12 q23 0 69.5 56t46.5 128v31q0 77 -72 171q-30 40 -197 191q-33 30 -49 30h-13q-23 0 -70 -56.5t-47 -128.5v-31z" />
<glyph unicode="&#xa8;" horiz-adv-x="785" d="M289 1225v13q0 42 30 72t50 30l22 4h17q68 0 68 -58q2 -6 2 -9l2 -15v-13l-1 -4l-2 -15q0 -27 -30 -57t-63 -30h-19q-15 5 -24 5q-52 0 -52 77zM644 1226v9l5 28q0 14 27 47.5t74 33.5h4q77 0 77 -60q2 -6 2 -9l2 -15v-13l-4 -22q0 -16 -25 -47.5t-52 -31.5q-6 -2 -9 -2 l-16 -2h-6l-22 4q-57 0 -57 80z" />
<glyph unicode="&#xa9;" horiz-adv-x="1569" d="M154 662v47q0 122 47.5 251.5t142 233.5t210 153t222.5 49h21q124 0 239 -52.5t193 -142t125.5 -216.5t47.5 -262v-47q0 -128 -45.5 -261t-131 -228t-203 -145.5t-221.5 -50.5h-42q-117 1 -233 57q-227 111 -320 351q-52 133 -52 263zM239 675q0 -113 42.5 -227.5 t120.5 -199.5q163 -176 386 -176q228 0 388 178q74 84 115.5 196.5t41.5 224.5v40q0 125 -46 239q-91 226 -292 320q-94 44 -205 44h-18q-92 0 -191 -43t-179 -133.5t-121.5 -204.5t-41.5 -218v-40zM406 684v21q0 168 107.5 288t267.5 120h20q140 0 210.5 -39t70.5 -132 q0 -31 -33 -31q-17 0 -65 46t-97 59q-36 10 -69 10q-47 0 -89 -20q-154 -73 -154 -329q0 -132 67.5 -221t183.5 -89q70 0 145.5 47.5t97.5 47.5t22 -18v-13q0 -53 -93.5 -106t-200.5 -53h-19q-163 0 -267.5 117.5t-104.5 294.5z" />
<glyph unicode="&#xaa;" horiz-adv-x="717" d="M184 954v24q0 130 118.5 268t235.5 138h11q25 0 55 -9.5t42 -9.5l79 15q35 0 35 -42v-9q0 -40 -18 -97q-52 -162 -52 -267q0 -23 29.5 -52.5t29.5 -52t-31 -50t-81 -27.5h-20q-34 0 -53 52t-27.5 52t-48.5 -24l-20 -13q-69 -42 -140.5 -42t-107.5 43.5t-36 102.5z M297 962l1 -6l2 -29q0 -63 54 -63h19q31 0 82.5 36t79.5 80q96 151 96 257v21q0 54 -67 54h-30q-90 0 -163.5 -116t-73.5 -222v-12z" />
<glyph unicode="&#xab;" horiz-adv-x="919" d="M149 481v9q0 22 180 202t204 180q36 0 36 -27v-7q0 -21 -136 -178.5t-136 -166.5t72 -161t72 -168q0 -41 -44 -41q-29 0 -90 94q-158 244 -158 264zM487 480v8q0 11 172 195t207.5 184t35.5 -26v-8q0 -22 -133.5 -176t-133.5 -168t71.5 -157t71.5 -165q0 -40 -43 -40h-8 q-18 0 -129 161.5t-111 191.5z" />
<glyph unicode="&#xac;" horiz-adv-x="1168" d="M149 669q0 70 22 70l433 2h377q64 0 80.5 -10.5t16.5 -62.5v-14l-1 -14v-15l-4 -87l-3 -44q-2 -30 -2 -44l-6 -87q-6 -87 -6 -99q0 -40 -33 -40h-28q-37 0 -47 11t-10 70l3 71l2 29l2 57v66q0 52 -9.5 70.5t-47.5 19.5t-52 1l-43 1h-275q-305 0 -331 3q-38 4 -38 46z" />
<glyph unicode="&#xad;" horiz-adv-x="657" d="M110 460v10q0 89 41 101q13 4 230 4l85 1h120q23 0 23 -17l-1 -6v-5q0 -69 -31 -92q-11 -8 -103 -8h-340q-24 0 -24 12z" />
<glyph unicode="&#xae;" horiz-adv-x="1431" d="M196 736v42q0 132 46.5 251t120.5 205.5t168.5 126.5t189.5 40h38q101 0 202 -46q198 -90 291 -357q44 -125 44 -237v-62q0 -234 -179 -400q-152 -141 -388 -141h-18l-18 1q-190 0 -356 186q-80 89 -110.5 183.5t-30.5 207.5zM272 754q0 -219 128 -371q61 -73 147 -114.5 t173 -41.5h16l16 1q91 0 176.5 44t152 120.5t103 179.5t36.5 206v17l-1 18q0 203 -129 350q-63 72 -145.5 112t-154.5 40h-48q-88 0 -179 -47q-91 -48 -156 -128q-135 -167 -135 -386zM490 487q0 15 10.5 47t10.5 156l8 193l4 65l1 33v31q0 41 -5 74.5t-5 39.5q0 26 164 26 h62q121 0 184 -51.5t63 -134.5t-51 -152t-51 -79.5t78 -147t78 -138.5q0 -31 -45 -31h-14q-46 0 -66.5 18.5t-94.5 146.5q-53 91 -103 91q-20 0 -46 -21.5t-26 -60.5t8.5 -73t8.5 -53q0 -47 -58 -47t-86.5 13t-28.5 55zM619 851q0 -49 27 -49h49l5 1h5q95 0 144.5 31 t49.5 80v28q0 49 -44 80.5t-101 31.5h-48q-64 0 -75.5 -20t-11.5 -113v-70z" />
<glyph unicode="&#xaf;" horiz-adv-x="817" d="M251 1222v7q3 21 3 28q0 53 38 53l248 3h307q42 0 42 -16v-13q0 -43 -17 -60t-65 -17h-513q-43 0 -43 15z" />
<glyph unicode="&#xb0;" horiz-adv-x="770" d="M266 1152v25q0 97 83 180t182 83h35q90 0 160 -64t70 -152v-34q0 -111 -89.5 -187t-184.5 -76h-25q-18 2 -26 2q-73 0 -139 66t-66 157zM370 1163q0 -68 44 -112t93 -44h26q62 0 111 56t49 130v5q0 67 -42 114.5t-94 47.5h-33q-63 0 -108.5 -58.5t-45.5 -121.5v-17z" />
<glyph unicode="&#xb1;" horiz-adv-x="1151" d="M133 46v29q0 60 18.5 66t122.5 6h754q23 0 23 -18v-29q0 -52 -12 -62t-138 -10h-735q-33 0 -33 18zM167 646v16q0 59 20 67t189 8t182.5 16.5t21.5 156.5t11 149q8 27 82 27q37 0 37 -60q0 -15 -6 -117l-7 -119q0 -42 17.5 -47.5t184.5 -5.5t178.5 -5.5t11.5 -50 t-21.5 -54t-192.5 -9.5t-182 -19.5t-19 -153.5t-11 -145q-7 -27 -62 -27h-17q-40 0 -40 45q2 32 2 49l6 101q4 68 4 103.5t-18.5 41t-194.5 5.5t-176 28z" />
<glyph unicode="&#xb2;" horiz-adv-x="702" d="M155 710q0 48 181.5 205.5t230.5 217t49 123.5q0 117 -135 117q-52 0 -101.5 -54t-85.5 -54q-24 0 -24 49t77 102t164 53h20q100 0 157 -50.5t57 -125.5v-18q0 -80 -80 -174q-26 -31 -173.5 -158.5t-147.5 -146t107 -18.5t152 14t59 14q21 0 21 -18q0 -58 -44.5 -83.5 t-161.5 -25.5h-57l-20 1l-78 2l-19 1l-38 1q-110 0 -110 26z" />
<glyph unicode="&#xb3;" horiz-adv-x="700" d="M157 760v15q0 49 42 49q13 0 85 -53q37 -27 113 -27t122.5 54.5t46.5 115.5t-34.5 93t-100.5 44.5t-66 40.5t78 48q77 20 125 63t48 91q0 91 -126 91h-3q-48 0 -95.5 -39.5t-73.5 -39.5q-18 0 -18 25q0 57 70.5 98.5t167 41.5t150 -39.5t53.5 -99.5q0 -102 -108 -177 q-49 -34 -49 -44q0 -9 35 -33q79 -53 79 -157t-101.5 -182t-240.5 -78h-20q-78 0 -128.5 30.5t-50.5 68.5z" />
<glyph unicode="&#xb4;" horiz-adv-x="756" d="M386 1088l1 4v4q0 37 221 258q44 44 103 44h5l5 -1q59 0 59 -38q-2 -8 -2 -13q0 -22 -163 -149t-191 -127h-10q-28 0 -28 18z" />
<glyph unicode="&#xb5;" horiz-adv-x="1118" d="M31 -292q0 7 102 480.5t102 532.5l-2 50q0 131 128 131h26q41 0 41 -79t-46.5 -295t-46.5 -290q0 -122 113 -122q62 0 136 56t125 140t100 287q48 204 54 219q21 51 55 51q10 1 30 -29t20 -81t-27 -197.5t-27 -211t23 -116.5t23 -81.5t-42 -74t-100 -44.5t-87 41 q-52 74 -75 74q-60 0 -137.5 -44t-148 -76.5t-101 -64t-68 -154t-49.5 -145.5q-36 -70 -73 -70q-48 0 -48 85v28z" />
<glyph unicode="&#xb6;" horiz-adv-x="1108" d="M214 947.5q0 111.5 54 196.5q104 163 318 209q104 22 244 22h121q173 0 173 -48q0 -18 -22 -51l-18 -20q-35 -37 -37 -40q-36 -58 -77 -339l-24 -165q-13 -81 -28 -183.5t-28 -183.5q-100 -624 -121 -624h-28q-47 0 -47 89.5t41 328.5t83.5 558t42.5 408q0 26 -62 26 t-72 -45q-7 -30 -36 -292t-64 -461.5t-94 -479.5q-17 -83 -76 -83q-49 0 -49 83q0 32 14 185.5t32 257.5t18 155q0 80 -92.5 167t-129 152.5t-36.5 177z" />
<glyph unicode="&#xb7;" horiz-adv-x="559" d="M223 566v19q0 40 33 79.5t79 39.5h23q6 -2 18 -2t40.5 -23t28.5 -64v-25q0 -45 -36 -81t-87 -36l-29 4q-20 0 -45 25t-25 64z" />
<glyph unicode="&#xb8;" horiz-adv-x="758" d="M100 -390q0 46 55 46l21 3q54 0 87 27t33 59t-42 65.5t-42 41.5q0 21 57 103q31 45 63 45h29q13 0 13 -15q0 -5 -13 -31t-13 -40t40 -55q40 -60 40 -83v-22q0 -63 -72 -117t-166 -54h-31q-59 0 -59 27z" />
<glyph unicode="&#xb9;" horiz-adv-x="683" d="M247 719v9q0 30 53 55t71 69q10 25 53.5 213t43.5 237q0 33 -89 33q-40 0 -40 38q0 13 26 27q122 64 235 64q25 0 25 -28.5t-60 -288.5t-60 -295t34.5 -67t34.5 -51t-21 -30q-49 -26 -103 -26h-37l-12 1q-154 0 -154 40z" />
<glyph unicode="&#xba;" horiz-adv-x="686" d="M200 964v29q0 64 29.5 140t91.5 143q107 115 251 115l11 -1q81 0 132.5 -56t51.5 -137v-28q0 -71 -32 -148t-77 -126q-114 -123 -249 -123h-10q-82 0 -130 41q-69 58 -69 151zM323 961q0 -60 30.5 -90.5t58.5 -30.5h25q80 0 143.5 108.5t63.5 206.5v42q0 57 -26.5 91 t-67.5 34h-7l-6 -1q-70 0 -142 -99t-72 -219v-42z" />
<glyph unicode="&#xbb;" horiz-adv-x="926" d="M119 146v8q0 22 133.5 176t133.5 169t-71 157t-71 166q0 40 42 40h8q22 0 88 -102q155 -240 155 -260.5t-179 -199.5t-202 -179q-37 0 -37 25zM456 144v7q0 13 126 168l33 38q19 22 20 23t46 53t45 64t-72.5 157t-72.5 172q0 40 51 40q21 0 93 -112q151 -233 151 -254 t-180 -201t-203 -180h-8q-29 0 -29 25z" />
<glyph unicode="&#xbc;" horiz-adv-x="1581" d="M223 654q0 29 50.5 60.5t67.5 86.5q69 227 69 401q0 41 -73 41q-45 0 -45 37q0 16 36 34q122 61 219 61q23 0 23 -36v-20q0 -7 -53.5 -263.5t-53.5 -283.5t31 -58t31 -49.5t-17 -30.5q-42 -31 -123 -31h-12l-12 1q-138 0 -138 50zM277 -7q0 22 257.5 373.5t386.5 535.5 q338 483 380 483q57 0 57 -16q0 -2 -663 -936q-324 -456 -361 -456q-57 0 -57 16zM854 245v9q0 49 407 456q58 58 111 58h10q26 0 26 -26t-34 -184.5t-34 -185.5t26 -59t27 -64q-1 -31 -37 -76q-36 -46 -36 -63q0 -49 -31 -82.5t-76 -33.5h-26q-80 0 -80 67q0 22 13 40.5 t13 30.5q0 34 -49 51q-26 9 -128 9t-102 53zM956 280q0 -5 10 -5h177q54 0 60 18q69 207 69 314v8l-2 2q-12 0 -90 -89t-99 -110t-49 -53t-52 -56t-24 -29z" />
<glyph unicode="&#xbd;" horiz-adv-x="1623" d="M267 673v9q0 29 48.5 53t65.5 65.5t52 215.5t35 216q0 37 -60 47t-60 36q0 18 32 33q125 57 221 57q26 0 26 -24v-30q0 -27 -57 -264.5t-57 -278.5t31.5 -72.5t31.5 -49t-26.5 -38t-101.5 -20.5h-36l-13 1q-132 0 -132 44zM305 -0.5q0 14.5 311 447.5l105 143 q25 32 46 62l22 31q125 167 180 245q350 493 394 493h17q41 0 41 -15q0 -22 -519 -721.5t-540 -699.5q-57 0 -57 14.5zM964 47q0 48 168 188t228.5 213t60.5 135t-36.5 90t-90.5 28t-109 -52.5t-76 -52.5q-31 0 -31 32q0 67 79 117t167 50h21q95 0 149 -52t54 -134t-73 -171 q-46 -57 -185 -172.5t-139 -136.5t100 -21t152 13t56 13q26 0 26 -26q0 -53 -58 -79q-38 -17 -137 -17h-93q-133 7 -183 7t-50 28z" />
<glyph unicode="&#xbe;" horiz-adv-x="1594" d="M150 705.5q0 53.5 50 53.5q10 0 56.5 -44t119.5 -44t121.5 50.5t48.5 109.5q0 118 -127 138q-71 12 -71 51q0 18 68.5 34t106.5 45q65 49 65 113q0 38 -33.5 61t-85.5 23t-101.5 -41t-69.5 -41t-20 40.5t61 83.5t144 43h41q88 0 139.5 -41.5t51.5 -97.5q0 -98 -92 -167 q-61 -46 -61 -53q0 -1 34 -23.5t57.5 -55t23.5 -94.5q0 -109 -94.5 -184t-213.5 -75h-41q-76 0 -127 31t-51 84.5zM327 -7q0 30 644 908q354 483 380 483h17q40 0 40 -16q0 -1 -652 -920q-334 -471 -372 -471h-17q-40 0 -40 16zM889 244q0 59 405 464q59 59 111 59h10 q28 0 28 -24.5t-34.5 -185.5t-34.5 -184.5t28.5 -61.5t28.5 -56t-38 -76.5t-38 -59.5q0 -55 -30.5 -90.5t-88.5 -35.5h-26q-67 0 -67 77q0 11 12.5 31.5t12.5 29.5q0 36 -49 51q-29 9 -129.5 9t-100.5 53zM991 279q0 -4 5 -4h192q44 0 51 23q65 217 65 299l3 14v4l-2 1 q-14 0 -93 -90q-78 -90 -96 -108l-64 -69l-7 -8z" />
<glyph unicode="&#xbf;" horiz-adv-x="885" d="M64 -108q0 157 245 391q139 133 148 150t16 87t12 81q15 34 47 34h15q60 0 60 -151q0 -66 -63 -153q-24 -33 -129.5 -138.5t-148 -174t-42.5 -138t45.5 -111t118.5 -41.5t132.5 69t100 69t40.5 -42v-15q0 -89 -86.5 -146.5t-191.5 -57.5h-39q-109 0 -194.5 73t-85.5 179 v35zM519 890v26l4 21q0 16 28 51t57 35q14 4 18 4h25q8 -2 20.5 -2t35 -22.5t22.5 -45.5l3 -17v-25q0 -37 -32 -75t-64 -38l-22 -3h-11q-27 0 -54 21.5t-27 51.5z" />
<glyph unicode="&#xc0;" horiz-adv-x="1311" d="M53 135q0 27 68 83q17 14 211 317.5t232.5 374.5t125.5 220.5t132 210t105 60.5q54 0 85.5 -123t69.5 -498t65 -506q7 -36 40.5 -74t33.5 -58q0 -48 -65.5 -78.5t-153 -30.5t-87.5 48l6 14q27 40 27 136q0 164 -47 220q-28 33 -222 33t-242.5 -43t-114.5 -168t-66 -175 l14 -43q0 -21 -59.5 -21t-127.5 51q-30 23 -30 50zM533 594q0 -12 68 -12h164l8 1l78 2q8 1 17 1q64 0 64 41q-3 24 -4 41.5t-2 30.5t-2 27t-2 27l-2 26t-3.5 42t-3.5 43l-2 28t-2 27t-1 21l-3 35q-10 90 -10 149.5t-20 59.5q-4 0 -173 -281.5t-169 -303.5v-5zM733 1782v12 q0 45 59 45h18q41 0 87 -39.5t116.5 -133.5t70.5 -101v-13q0 -21 -27 -21h-10l-4 1q-48 0 -179 114.5t-131 135.5z" />
<glyph unicode="&#xc1;" horiz-adv-x="1311" d="M59 136q0 27 67 84q20 17 214.5 322t238.5 385q172 312 246 413q45 62 107 62q57 0 86.5 -122.5t69 -504t64.5 -500.5q7 -36 41 -75.5t34 -56.5q0 -44 -44 -67q-81 -42 -172 -42t-91 34q0 11 21 56q12 33 12 109q0 167 -47 219q-31 34 -167 34q-247 0 -304 -50 q-38 -33 -106 -159t-68 -178q0 -1 7 -17t7 -26q0 -21 -59 -21t-127 51q-30 23 -30 50zM538 595q0 -12 137 -12h69q193 0 193 46v8q-4 32 -4 51l-3 35q-2 18 -3 31l-2 26t-2 25.5t-2.5 31t-4.5 57.5t-4 51.5t-2 25.5l-2 26l-2 26t-3 35t-2 31q0 96 -21 96q-5 0 -173.5 -281 t-168.5 -303v-6zM867 1546v13q0 10 211 221q59 59 121 59h20q53 0 53 -35v-14q0 -20 -111 -106q-197 -153 -260 -153h-15q-19 0 -19 15z" />
<glyph unicode="&#xc2;" horiz-adv-x="1311" d="M54 132.5q0 22.5 84 101.5q4 3 194 301t226 364q195 352 252.5 427.5t116 75.5t89 -127.5t68 -498t64.5 -501.5q7 -35 40.5 -74.5t33.5 -56.5q0 -46 -63 -77.5t-153 -31.5t-90 47q0 1 16.5 31.5t16.5 119.5q0 164 -47 220q-28 33 -167 33q-251 0 -304 -49 q-40 -37 -107 -161t-67 -177l14 -43q0 -21 -61.5 -21t-125.5 51q-30 24 -30 46.5zM534 596q0 -12 60 -12h198q141 0 141 45q-3 24 -3 42q-2 18 -3 31l-2 26t-2 25.5t-2 25.5t-2.5 31t-2.5 31.5t-2 26.5l-2 26t-2 25.5t-2.5 30.5t-2.5 30.5t-2 25.5t-4 45t-3 55q0 79 -20 79 h-4q-1 0 -169.5 -281t-168.5 -303v-5zM687 1553q0 10 148 145.5t188 135.5h8l7 -1q39 0 64 -30q148 -181 148 -236q0 -32 -48 -32h-7q-36 0 -106 84t-83.5 84t-51 -31.5t-113.5 -84t-103 -52.5h-13q-38 0 -38 18z" />
<glyph unicode="&#xc3;" horiz-adv-x="1311" d="M60 134q0 28 67 83q23 19 127.5 179t134.5 208.5t53 88.5t50.5 82t145 253.5t188.5 308.5q46 62 107 62q56 0 91 -139q25 -99 63.5 -477.5t65.5 -509.5q7 -36 41 -74.5t34 -57.5q0 -47 -64 -78t-153.5 -31t-89.5 33q0 9 16.5 49.5t16.5 115.5q0 164 -47 220 q-28 33 -167 33q-247 0 -303 -49q-43 -37 -109 -162t-66 -151t7 -45t7 -22q0 -21 -59.5 -21t-126.5 50q-30 23 -30 51zM539 593q0 -12 69 -12h172q158 0 158 38v15q-3 29 -5.5 62.5t-3.5 46.5l-2 26l-2 26t-3 29q-2 22 -6 88l-8 94q-2 29 -4 49.5t-2 39.5q0 88 -21 88 q-4 0 -173 -281.5t-169 -303.5v-5zM687 1585v15q0 49 62.5 106.5t119.5 57.5h23q43 0 126 -41.5t121.5 -41.5t76.5 41.5t54 41.5h7q27 0 27 -22v-8q0 -65 -64 -118t-132 -53q-35 0 -131 42t-127 42t-73.5 -42.5t-55.5 -42.5q-34 0 -34 23z" />
<glyph unicode="&#xc4;" horiz-adv-x="1311" d="M67 129q0 23 84 102q22 21 181 272l104 165q40 71 71 119q31 47 63 105q190 347 264 445q47 62 107 62q54 0 85 -120.5t70 -500.5t65 -506q7 -36 40.5 -75t33.5 -57q0 -45 -43 -67q-81 -42 -172 -42t-91 48q0 1 16.5 32t16.5 119q0 163 -47 219q-29 34 -168 34 q-250 0 -303 -49q-39 -36 -106.5 -161t-67.5 -177l14 -43q0 -21 -59.5 -21t-127.5 51q-30 23 -30 46zM547 592q0 -8 21 -8l7 -1l8 -1l24 -1h207q132 0 132 45q-3 24 -3 42q-2 18 -3 31l-2 26l-2 26t-2.5 29.5t-2.5 30.5t-2 27.5t-2 26.5l-2 26t-2.5 29.5t-2.5 30.5t-2 26.5 t-2 25.5t-4 42t-3 83t-20 54q-5 0 -173.5 -281t-168.5 -303v-6zM732 1644v10q0 36 29 72t68 36h24l18 -4q53 0 53 -70v-25q0 -39 -29.5 -68.5t-48.5 -29.5q-12 -4 -16 -4h-25q-27 0 -50 23t-23 60zM1098 1641v19q0 38 30 68t51 30q6 2 9 2l17 2h6q12 -3 19 -3q55 0 55 -54 q3 -8 3 -11l2 -19v-7l-5 -28q0 -13 -26.5 -46.5t-68.5 -33.5h-13l-4 1h-6q-6 2 -9 2q-57 0 -57 59z" />
<glyph unicode="&#xc5;" horiz-adv-x="1290" d="M56 128q0 38 748 1199q57 89 119.5 89t93.5 -107q24 -81 42.5 -345t83.5 -675q8 -50 43.5 -84.5t35.5 -67t-52 -54.5q-84 -36 -165.5 -36t-81.5 43q0 2 17 36t17 80q0 175 -45 245q-27 43 -153 43l-56 -2q-58 -2 -87 -2q-143 0 -184 -41t-99.5 -160.5t-58.5 -162.5 l17 -65q0 -20 -55 -20h-23q-57 0 -132 53q-25 18 -25 34zM533 609q0 -16 64 -16h181q156 0 156 40v16q-4 34 -7 66l-9 114q-7 90 -11 129.5t-6.5 69.5l-4 48t-1.5 26q0 98 -23 98q-12 0 -82 -132t-163.5 -287.5t-93.5 -171.5zM798 1664v6l1 6q0 82 65.5 140t137.5 58h19 q58 0 110 -40.5t52 -114.5v-12q0 -67 -57 -131t-128 -64l-12 -2h-32q-57 0 -106.5 43t-49.5 111zM886 1669l1 -4v-7q3 -10 3 -17.5t21.5 -34.5t57.5 -27h14q48 0 80.5 40.5t32.5 83.5v4l-1 3v7l-2 14q0 23 -23 46t-40 23l-18 3h-17q-38 0 -71.5 -33.5t-33.5 -60.5 q-2 -8 -2 -11l-2 -15v-14z" />
<glyph unicode="&#xc6;" horiz-adv-x="1812" d="M65 114q0 33 128 171q36 38 310 398t354 516q25 48 40 99.5t35 66.5q45 34 414 34h102q169 0 232 -23q86 -31 86 -88q0 -82 -36 -82q-12 0 -40 18.5t-57 29.5q-112 44 -201.5 44t-121.5 -26t-54 -73q-62 -134 -62 -312q0 -41 29.5 -64t139.5 -23q31 0 94 26.5t70 26.5 q47 0 47 -117q0 -52 -34.5 -111.5t-64.5 -59.5t-75 38.5t-83 38.5q-153 0 -192 -62q-56 -88 -56 -325q0 -65 34.5 -101.5t151.5 -36.5t180 23.5t126 72t93 48.5t30 -48.5t-31 -104t-107 -78t-440 -22.5h-54q-124 0 -187 14.5t-63 53.5q0 9 45.5 101t45.5 187.5t-30.5 122.5 t-158.5 27t-183.5 -39.5t-161 -193t-105.5 -205.5q0 -30 -67 -30q-34 0 -78 27.5t-44 40.5zM609 645q0 -12 89 -12h54l9 1q180 0 197 31q22 42 46 185.5t46.5 244t22.5 142.5v14q0 12 -7 12t-232 -286.5t-225 -331.5z" />
<glyph unicode="&#xc7;" horiz-adv-x="1351" d="M259 525q0 186 72.5 371.5t196.5 325.5q258 291 568 291q211 0 287.5 -47t76.5 -162q0 -55 -21 -88t-35.5 -33t-68.5 66.5t-104 97.5t-158 31t-215 -64q-106 -64 -196 -190q-186 -260 -186 -590q0 -83 28 -164q56 -158 203 -225q72 -33 168 -33q158 0 326 126 q90 68 116.5 68t26.5 -22q0 -45 -36.5 -96t-149.5 -114q-160 -90 -355 -90q-242 0 -393 151t-151 390zM514 -426l1 4q0 21 52.5 40t79 42.5t26.5 59.5t-12 58q-21 38 -21 40q0 23 38.5 76t55.5 53l20 -2q41 0 41 -37q0 -24 18 -64.5t18 -72.5v-5q0 -76 -75 -137 q-112 -92 -185 -92h-6q-51 0 -51 37z" />
<glyph unicode="&#xc8;" horiz-adv-x="1169" d="M104 106q0 20 26 46l26 21l23 24q30 38 56 131q161 575 161 824q0 64 -8 79.5t-35.5 38.5t-27.5 33q0 42 72 54q300 50 571 50h78q53 0 81.5 -30.5t28.5 -79.5v-33q0 -73 -21 -73q-16 0 -47 37t-86.5 57t-219.5 20q-84 0 -118 -50.5t-83.5 -185t-49.5 -164.5t13 -43 q33 -32 115 -32t123 16q105 41 120.5 41t38 -25.5t22.5 -93t-31 -119.5t-76 -52q-4 0 -98 54q-38 22 -140.5 22t-150.5 -65q-19 -26 -47.5 -141t-28.5 -195.5t34 -116.5t174.5 -36t202.5 22t134.5 69t92.5 47t20 -43t-37.5 -99t-83.5 -81t-220 -25h-161q-266 0 -377 30 q-66 18 -66 67zM613 1785v4q0 49 59 49h18q41 0 88.5 -40.5t116.5 -133t69 -100.5v-13q0 -21 -27 -21h-9l-5 1q-47 0 -178.5 115.5t-131.5 138.5z" />
<glyph unicode="&#xc9;" horiz-adv-x="1169" d="M104 107q0 18 27 46l25 21l24 24q28 35 55 131q161 575 161 824q0 65 -8 80t-35 38t-27 33q0 42 71 54q294 49 531 49h118q55 0 83 -30t28 -79v-33q0 -74 -22 -74q-17 0 -45.5 36.5t-85.5 57.5t-180 21t-162 -55q-23 -32 -76.5 -170t-53.5 -172t12 -46q33 -32 116 -32 t122 16q101 41 119 41t40 -25t22 -92.5t-31 -120t-66 -52.5t-86.5 38t-117.5 38q-146 0 -195 -65q-19 -25 -47 -139t-28 -195.5t33 -118t173.5 -36.5t202.5 21.5t134.5 68.5t93 47t20.5 -33t-31.5 -96t-81.5 -90.5t-187 -27.5h-242q-228 0 -337 30q-66 18 -66 67zM719 1544 v8q0 16 22 38q184 184 202 198q63 49 119 49h10q53 0 53 -41v-4q0 -32 -103 -104q-229 -160 -274 -160h-5q-24 0 -24 16z" />
<glyph unicode="&#xca;" horiz-adv-x="1169" d="M104 107q0 18 27 46l25 21l24 24q28 35 55 131q161 575 161 824q0 65 -8 79.5t-35.5 38t-27.5 33.5q0 41 72 53q300 50 531 50h118q55 0 83 -30t28 -79v-33q0 -74 -20 -74t-49 37t-85.5 57.5t-180 20.5t-161.5 -55q-24 -34 -76.5 -170t-52.5 -171t12 -47q33 -32 115 -32 t123 16q103 40 120 40t39 -25t22 -92.5t-31.5 -120t-75.5 -52.5q-3 0 -98 54q-39 22 -115 22q-152 0 -193 -95q-58 -136 -58 -336q0 -68 46 -95t173.5 -27t189.5 21.5t134.5 68.5t93 47t20.5 -32t-30.5 -95t-82 -91.5t-187.5 -28.5h-243q-227 0 -336 30q-66 18 -66 67z M551 1552q0 9 147.5 144.5t188.5 135.5h23q34 0 82 -69q122 -176 122 -197q0 -32 -42 -32h-14q-29 0 -105.5 84t-85 84t-117.5 -84t-148 -84h-14q-37 0 -37 18z" />
<glyph unicode="&#xcb;" horiz-adv-x="1169" d="M118 110q0 19 48 63t73 122q96 297 133.5 533.5t37.5 315t-7.5 93t-35 37.5t-27.5 34q0 41 71 53q305 50 571 50h78q55 0 83 -30t28 -79v-34q0 -73 -22 -73q-16 0 -45.5 36t-87 57.5t-179 21.5t-161.5 -56q-26 -36 -78 -172.5t-52 -174.5q0 -73 156 -73q53 0 126 28.5 t89.5 28.5t38 -24.5t21.5 -93t-31 -120.5t-75 -52l-99 54q-40 22 -141 22t-150 -64q-19 -25 -47 -139t-28 -195.5t33 -118t173.5 -36.5t202.5 21.5t136 68.5t93 47t19 -42t-37.5 -99.5t-83.5 -82t-259 -24.5h-80q-257 0 -387 24q-98 18 -98 73zM590 1645v22q0 31 26.5 64 t48.5 33l32 6h6q12 -3 19 -3q55 0 55 -54q3 -9 3 -12l2 -18v-7l-4 -25q0 -15 -27 -49t-70 -34h-16q-72 0 -72 62zM955 1651v13l1 3l3 25q0 10 27 43.5t66 33.5h20q29 0 52 -23t23 -54v-23q-3 -9 -3 -25t-28.5 -44.5t-49.5 -28.5q-6 -2 -10 -2l-16 -2h-3q-78 0 -78 60 q-2 6 -2 9z" />
<glyph unicode="&#xcc;" horiz-adv-x="672" d="M92 77q0 20 87 93q79 66 157 556q40 256 58 340t18 124.5t-44.5 73.5t-44.5 57q0 36 71 58t198 22t127 -38q0 -22 -61 -69q-36 -28 -52 -90q-3 -11 -43.5 -225.5t-101.5 -466t-61 -289t38 -86t38 -49.5q0 -23 -16 -38q-36 -34 -110 -34h-38q-60 3 -105.5 3t-94.5 27 q-20 11 -20 31zM347 1775v18q0 44 68 44h9q5 -1 9 -1q41 0 92 -51q173 -173 173 -231q0 -25 -28 -25h-5l-4 1h-5q-47 0 -178 115t-131 130z" />
<glyph unicode="&#xcd;" horiz-adv-x="672" d="M97 80.5q0 23.5 46.5 60t51.5 41.5q59 64 130 465q35 196 40 234t28.5 161.5t23.5 133.5q0 51 -29 77q-61 55 -61 68q0 80 293 80h18q85 0 85 -37q0 -26 -61 -70q-35 -26 -47 -71t-61.5 -299.5t-99 -456.5t-49.5 -243.5t37.5 -85t37.5 -50.5q0 -31 -34.5 -51.5 t-91.5 -20.5h-38l-59 3q-39 2 -66 2t-75 26q-19 10 -19 33.5zM467 1543v8q0 12 22 37q114 131 189.5 189.5t131.5 58.5h5q57 0 57 -36v-13q0 -29 -116 -110q-214 -150 -255 -150h-10q-24 0 -24 16z" />
<glyph unicode="&#xce;" horiz-adv-x="672" d="M96 77.5q0 20.5 87 93.5q77 64 157 554q44 272 60 349t16 117t-44.5 73t-44.5 57q0 36 71 58t222 22h18q85 0 85 -37q0 -23 -61 -70q-36 -28 -52 -89q-3 -10 -43.5 -227t-101.5 -467t-61 -287.5t38 -86t38 -49.5q0 -23 -16 -38q-36 -34 -110 -34h-38l-59 3q-39 2 -67 2 t-74 25q-20 11 -20 31.5zM302 1550q0 10 148 145.5t188 135.5h15q41 0 94 -76q117 -169 117 -184v-12q0 -27 -45 -27t-115 84t-82.5 84t-121.5 -84t-153.5 -84t-44.5 18z" />
<glyph unicode="&#xcf;" horiz-adv-x="672" d="M108 79.5q0 18.5 87 94.5q80 70 158 560q40 252 57.5 336t17.5 124t-45 75t-45 56q0 35 71.5 57.5t198.5 22.5t127 -38q0 -22 -61 -69q-36 -28 -52 -90q-3 -11 -29 -149t-76 -364.5t-75.5 -322t-25.5 -140t38 -90.5t38 -50q0 -23 -16 -38q-36 -34 -110 -34h-38 q-60 3 -105.5 3t-94.5 27q-20 11 -20 29.5zM338 1647v13l5 27q0 22 29.5 51.5t62.5 29.5h20q72 0 72 -62l3 -18v-20q0 -38 -30 -68t-51 -30l-13 -3h-6l-10 -1l-25 4q-57 0 -57 77zM703 1643v22q3 12 3 23t28 45.5t73 34.5h9q75 0 75 -60q2 -6 2 -9l2 -15v-13l-4 -22 q0 -15 -27 -49t-66 -34h-20q-9 3 -15 3q-60 0 -60 74z" />
<glyph unicode="&#xd0;" horiz-adv-x="1425" d="M95 59q0 14 44 56.5t62 90.5q112 306 112 435q0 39 -62.5 50t-62.5 49q0 59 86 69q56 7 67.5 21t41 168.5t29.5 198t-44 87.5t-44 58q0 33 52 45q88 21 303 21h111q150 0 283 -49q222 -81 292 -283q34 -98 34 -245t-70 -313t-191 -281q-241 -229 -609 -229h-80 q-354 0 -354 51zM377 167q0 -54 104 -54h69q290 0 466 191q202 219 202 514v61q0 203 -118.5 316.5t-333.5 113.5h-21q-95 0 -115 -32q-5 -9 -51.5 -209.5t-46.5 -233t18 -43.5t143.5 -11t125.5 -41t-27.5 -54t-121.5 -13q-148 0 -184 -53q-14 -21 -61.5 -210.5 t-47.5 -224.5v-17z" />
<glyph unicode="&#xd1;" horiz-adv-x="1463" d="M116 68q0 46 66 116q87 93 166 689q31 234 31 297t-12 91l-14 25q-23 41 -23 51q0 42 84 42t136 -37.5t143.5 -174t251 -478.5t164.5 -342q15 0 24 31q45 163 110.5 470.5t65.5 354.5t-14 84l-13 29l-10 26q0 79 129 79q89 0 128 -27t39 -50.5t-79.5 -116.5t-167.5 -611 q-57 -338 -97 -498q-23 -91 -58 -91h-32q-50 0 -116 127.5t-242.5 525.5t-203 398t-54.5 -84q-4 -12 -24.5 -101.5t-40.5 -166t-35 -139.5l-10 -45q-13 -60 -38 -157t-25 -136.5t16 -87.5t16 -63.5t-32 -40t-130.5 -24.5t-98.5 35zM704 1581v7q0 51 60.5 111.5t122.5 60.5 h23q36 0 125 -41.5t123 -41.5t75.5 41.5t47.5 41.5h14q27 0 27 -22l-1 -7v-8q0 -52 -61 -108t-119 -56h-23q-25 0 -121 42t-126.5 42t-76.5 -42t-48 -42h-14q-28 0 -28 22z" />
<glyph unicode="&#xd2;" d="M197 499v44q0 153 62.5 323t177 301t257 202t281.5 71h22q101 0 193 -40q176 -76 245 -286q32 -96 32 -191v-44q0 -151 -65 -317q-137 -350 -434 -498q-130 -65 -270 -65h-22q-212 0 -341 133q-61 63 -99.5 160.5t-38.5 206.5zM380 491q0 -176 85.5 -284t228.5 -108h35h3 q103 0 205 69q206 139 303 445q47 150 47 290v18l-1 17q0 268 -179 359q-60 30 -126 30h-36q-93 0 -200 -65q-220 -134 -313 -431q-52 -165 -52 -287v-53zM774 1787v13q0 45 63 45h9l5 -1q49 0 100 -51q172 -172 172 -225v-4l-1 -4q0 -21 -27 -21h-4l-5 1h-5 q-47 0 -177 113.5t-130 133.5z" />
<glyph unicode="&#xd3;" d="M196 522v22q0 149 61.5 317t172 298.5t253.5 205.5t270 75h66q91 0 177 -41q171 -81 238 -284q32 -96 32 -192v-43q0 -146 -64 -316.5t-176 -298t-250 -196.5t-278 -69h-45q-97 0 -184 40q-181 83 -245 286q-28 88 -28 196zM379 509l1 -17q0 -178 86 -285.5t228 -107.5 h17q215 0 390 231q82 109 133.5 268.5t51.5 287.5v53q0 174 -85 281.5t-221 107.5h-18q-110 0 -214 -64q-209 -127 -311 -416q-58 -164 -58 -321v-18zM885 1553v8q0 38 216 227q63 55 116 55h20q52 0 52 -35v-14q0 -19 -111 -105q-195 -152 -264 -152h-5q-24 0 -24 16z" />
<glyph unicode="&#xd4;" d="M196 522v22q0 150 61 317.5t177.5 304.5t262 206t278.5 69h22q203 0 336.5 -143.5t133.5 -428.5q0 -139 -66.5 -310t-177.5 -297.5t-250 -194t-275 -67.5h-22q-218 0 -355 148q-56 60 -90.5 159t-34.5 215zM379 510l1 -18q0 -176 85.5 -284t228.5 -108h34q90 0 195 61.5 t187.5 183t129 269t46.5 273.5v52q0 169 -86 284q-33 44 -92 74.5t-128 30.5h-35q-95 0 -201 -64q-219 -133 -318 -450q-47 -150 -47 -287v-17zM716 1560q0 18 156 148t186 130l8 -1h7q37 0 83 -67q123 -178 123 -195q0 -33 -42 -33t-118 83.5t-80.5 83.5t-125 -83.5 t-151.5 -83.5h-7q-39 0 -39 18z" />
<glyph unicode="&#xd5;" d="M196 495v45q0 151 60.5 317t176.5 302t260 206.5t281 70.5h22q218 0 343 -150q62 -74 94.5 -174t32.5 -193v-44q0 -167 -73 -339q-146 -344 -426 -476q-137 -65 -267 -65q-353 0 -463 287q-41 107 -41 213zM379 487q0 -182 87.5 -287t226.5 -105h18q216 0 392 235 q83 111 133 269t50 300v35q0 180 -86.5 284.5t-219.5 104.5h-36q-94 -1 -200 -65q-217 -133 -313 -431q-52 -161 -52 -287v-53zM706 1590v7q0 56 63.5 114.5t126.5 58.5h15q33 0 128 -41.5t128.5 -41.5t69 41.5t47.5 41.5h14q28 0 28 -29q0 -67 -81 -134q-46 -38 -123 -38 q-28 0 -123 41.5t-128 41.5t-75.5 -42.5t-54.5 -42.5h-7q-28 0 -28 23z" />
<glyph unicode="&#xd6;" d="M211 521v22q0 160 67 331.5t185 305.5t262 197q143 63 263 63q230 0 354 -136q140 -156 140 -403q0 -172 -66.5 -343t-177 -296.5t-247.5 -194t-278 -68.5h-45q-94 0 -182 39q-183 81 -247 287q-28 88 -28 196zM394 508l1 -17q0 -95 27 -173q75 -220 298 -220t396 231 q86 114 135.5 272t49.5 284v53q0 186 -88.5 287.5t-217.5 101.5h-18q-110 0 -214.5 -63.5t-184.5 -168.5t-132 -266t-52 -303v-18zM761 1654v9l5 28q0 13 26.5 46.5t75.5 33.5h6q73 0 73 -56q2 -6 2 -9l2 -12v-22q0 -38 -31.5 -69.5t-67.5 -31.5h-13l-21 4q-52 0 -52 52 q-3 9 -3 12zM1126 1650v16l4 22q0 15 25.5 47t54.5 32l19 3h13q29 0 51.5 -22.5t22.5 -50.5v-26q0 -29 -27 -63t-54 -34l-18 -3h-16q-29 0 -52 23t-23 56z" />
<glyph unicode="&#xd7;" horiz-adv-x="1161" d="M173 190q0 18 168.5 181t168.5 177.5t-141 175.5t-141 170t29 37t46.5 28t160 -157t154 -157t180.5 164t183.5 164t41 -25t26.5 -41t-168 -178.5t-168 -179t142.5 -174t142.5 -169t-27.5 -39t-42.5 -27.5q-25 0 -168 157.5t-155.5 157.5t-182 -164t-185 -164t-40 27 t-24.5 36z" />
<glyph unicode="&#xd8;" horiz-adv-x="1459" d="M182 -35q0 28 50.5 101t50.5 99t-23 74.5t-42 115.5t-19 216q0 143 69 307q147 351 448 491q130 61 273 61q76 0 124 -13t104.5 -33.5t75 -20.5t68.5 50t79 50q36 0 36 -44q0 -12 -40 -73t-40 -87t21 -71q56 -120 56 -281.5t-62 -334t-176 -306.5q-234 -273 -558 -273 q-84 0 -176 27.5t-108 27.5q-38 0 -92 -55.5t-86.5 -55.5t-32.5 28zM377 507q0 -142 35 -205q7 -12 12 -12q16 0 388 454.5t372 470.5q0 42 -66.5 73.5t-141.5 31.5h-15q-117 0 -228.5 -72.5t-188.5 -190.5t-122 -263t-45 -287zM488 196q0 -33 62 -68t135 -35h43 q96 0 199.5 63t185 180.5t130.5 269.5t49 275v71q0 94 -31 156q-7 13 -11 13t-383 -442.5t-379 -472.5v-10z" />
<glyph unicode="&#xd9;" horiz-adv-x="1423" d="M253 382q0 141 66.5 404t66.5 338t-22 100l-18 16q-31 27 -31 36q0 45 88 80q53 21 143 21h31q50 0 50 -36q0 -2 -31 -51.5t-43 -109.5q-127 -606 -127 -795q0 -124 70 -197t193.5 -73t216.5 65t150.5 184t134 446t76.5 388.5t-17 96.5l-11 18q-20 28 -20 34q0 25 42 25 q91 0 156.5 -37.5t65.5 -74t-41.5 -81t-58.5 -86.5t-66 -302t-50 -265q-55 -183 -129 -290.5t-210 -165t-276 -57.5h-43q-69 0 -143 29q-212 84 -213 340zM738 1778v13q0 45 59 45h18q56 0 101 -52q173 -202 173 -223v-12q0 -21 -23 -21h-14q-32 0 -173 109.5t-141 140.5z " />
<glyph unicode="&#xda;" horiz-adv-x="1423" d="M253 369.5q0 154.5 66.5 417.5t66.5 337.5t-22 99.5l-18 17q-31 27 -31 35q0 40 67 71t156 31t89 -36q0 -4 -30.5 -52t-43.5 -109q-127 -606 -127 -796q0 -126 70.5 -198t193.5 -72t215 64.5t149 180t135 444.5t78 397.5t-24 103.5t-24 43q0 24 42 24q95 0 158.5 -38 t63.5 -74t-40.5 -78.5t-58.5 -85.5t-66.5 -303t-50.5 -266q-56 -188 -131.5 -295.5t-212 -163t-251 -55.5t-190 22.5t-130.5 78.5q-99 101 -99 255.5zM870 1542v8q0 40 216 229q62 54 112 54l10 2h15q53 0 53 -40l-1 -5q0 -36 -106 -107q-236 -157 -270 -157h-5 q-24 0 -24 16z" />
<glyph unicode="&#xdb;" horiz-adv-x="1423" d="M253 370.5q0 153.5 66.5 416.5t66.5 337.5t-22 99.5l-18 17q-31 27 -31 35q0 46 88 81q53 21 143 21h31q50 0 50 -36q0 -4 -31.5 -53t-42.5 -108q-127 -667 -127 -794.5t70 -199t195.5 -71.5t216 65t148.5 182.5t134.5 445.5t76.5 394t-24 101.5t-24 43.5q0 24 42 24 q95 0 158.5 -38t63.5 -73.5t-41 -79.5t-58.5 -86t-66 -302t-50.5 -266q-56 -188 -124.5 -285.5t-197.5 -163t-293 -65.5q-94 0 -170.5 22.5t-135.5 84.5q-93 97 -93 250.5zM698 1550q0 9 148 145t196 136l7 -1h8q43 0 86 -76q12 -18 22 -33.5t20.5 -31t43 -68.5t32.5 -57 q0 -32 -42 -32h-13q-35 0 -105.5 84t-84 84t-54.5 -34.5t-113 -84t-100 -49.5h-13q-38 0 -38 18z" />
<glyph unicode="&#xdc;" horiz-adv-x="1423" d="M275 384q0 128 66 402.5t66 345.5t-21 94l-18 16q-31 27 -31 36q0 45 88 80q55 22 139.5 22t84.5 -36q0 -6 -30.5 -53t-43.5 -109q-127 -606 -127 -795q0 -125 69.5 -197.5t193.5 -72.5t215 63.5t146 174.5q56 111 136 436t80 431q0 42 -17 75l-11 18q-19 27 -19 34 q0 25 42 25q91 0 156.5 -37.5t65.5 -73t-40.5 -78.5t-58.5 -85.5t-67 -304.5t-50 -267q-55 -183 -129 -290.5t-210 -165t-277 -57.5h-42q-69 0 -143 29q-212 84 -213 340zM743 1643v15l1 4l2 22q0 10 26 43t52 33q6 2 9 2l14 2h13q71 0 71 -59q2 -6 2 -9l2 -16v-13l-1 -3 l-2 -22q0 -10 -28 -45t-69 -35h-13q-75 0 -75 59q-2 6 -2 9zM1108 1645v7q0 39 29 75t68 36h23l19 -4q53 0 53 -70v-26q0 -30 -27 -63.5t-51 -33.5q-12 -4 -15 -4h-23q-24 0 -50 21t-26 62z" />
<glyph unicode="&#xdd;" horiz-adv-x="1188" d="M262 1312.5q0 18.5 18 29.5q76 46 229 46q43 0 43 -38l-10 -49q0 -20 30.5 -92t51.5 -129.5t70 -269.5q12 -51 30 -51q6 0 126 162q227 307 227 381l-5 34q0 22 31.5 45.5t67.5 23.5h29q98 0 136 -32q15 -13 15 -24q0 -26 -81 -90.5t-120 -115.5q-144 -184 -333 -494 q-62 -102 -106 -243t-44 -186t35.5 -77t35.5 -49.5t-29 -42.5t-94 -25h-27q-97 0 -137 11q-61 17 -61 61q0 22 45.5 53.5t59.5 64.5q58 137 58 339q-1 69 -43 257q-77 340 -156 416l-19 15l-40 27q-33 24 -33 42.5zM761 1540v9q0 40 216 229q64 56 127 56h5q57 0 57 -36v-13 q0 -29 -116 -110q-214 -150 -255 -150h-10q-24 0 -24 15z" />
<glyph unicode="&#xde;" horiz-adv-x="1115" d="M62 65q0 10 95 123q30 35 75.5 203.5t83.5 441t38 322t-27 96t-27 54.5q0 68 179 68h24l23 -1q143 0 143 -64q0 -18 -27 -39t-27 -40q0 -46 22 -63t85 -29q367 -70 367 -338v-25q0 -82 -40 -170t-120 -153t-165 -89t-177 -35l-51 -5l-26 -1q-54 -4 -74 -13t-48.5 -53.5 t-28.5 -73.5t33 -62t33 -52t-27.5 -42.5t-99.5 -23.5q-162 0 -218 41q-18 13 -18 23zM409 454q0 -21 50 -21l19 -2h69q162 0 268 98t106 233v49q0 105 -73 155.5t-185 50.5h-10q-108 0 -126 -39q-9 -20 -45 -189.5t-54.5 -237t-18.5 -89.5v-8z" />
<glyph unicode="&#xdf;" horiz-adv-x="1072" d="M-120 -237.5q0 39.5 99 108.5q65 45 100 147.5t75 311t42.5 228t4.5 90.5t13 113q56 217 142 373q167 305 416 305q104 0 180.5 -64t76.5 -160t-46 -167q-16 -25 -55 -67l-59 -63q-64 -74 -64 -120t84 -191t84 -271t-88 -220q-109 -116 -273 -116q-67 0 -118.5 22.5 t-51.5 78t43 55.5q23 0 68 -23t65 -23q95 0 150 82q40 60 40 159.5t-78.5 236.5t-78.5 191.5t99 186.5t99 191.5t-27 101.5t-82 42h-1q-139 0 -242 -213q-58 -120 -143.5 -527.5t-138.5 -553t-119 -229.5t-119 -84t-75 14.5t-22 54z" />
<glyph unicode="&#xe0;" horiz-adv-x="1043" d="M110 282v41q0 109 56 232q113 246 309 346q86 44 181 44q41 0 105 -20t68 -20l85 19q50 0 50 -59v-32q0 -14 -47.5 -209t-47.5 -309q0 -50 42 -92t42 -77.5t-50 -73t-108 -37.5h-14q-44 0 -76.5 68.5t-58.5 68.5q-18 0 -69 -34.5t-78 -48.5q-76 -39 -175 -39t-156.5 62.5 t-57.5 169.5zM264 291q0 -79 27 -123.5t74 -44.5h25q60 0 138 63q155 126 224 371q34 119 34 180v19q0 43 -33.5 69.5t-87.5 26.5h-28q-70 0 -138 -50q-140 -103 -205 -318q-30 -100 -30 -173v-20zM497 1363v16q0 39 62 39l9 2l5 -1h5q41 0 75.5 -34.5t102.5 -143t68 -117.5 v-12q0 -22 -28 -22h-14q-48 0 -166.5 135.5t-118.5 137.5z" />
<glyph unicode="&#xe1;" horiz-adv-x="1043" d="M109 304v20q0 92 49.5 214t129.5 214q168 194 367 194q41 0 105 -20t69 -20l84 19q50 0 50 -59v-32q0 -14 -47.5 -209t-47.5 -276.5t42 -123.5t42 -77.5t-48.5 -73.5t-108.5 -38h-14q-45 0 -77.5 68.5t-49.5 68.5q-3 0 -115.5 -61.5t-212.5 -61.5t-158.5 63.5 t-58.5 190.5zM264 272q0 -71 30.5 -110t78.5 -39l8 1h9q47 0 123 52q156 108 235 372q38 127 38 199q0 106 -131 106h-9q-132 0 -242 -143q-60 -79 -99 -190t-39 -178l-2 -20v-50zM604 1108l1 4v4q0 8 68 96q159 205 250 205h1h21q53 0 53 -38q-2 -8 -2 -13q0 -22 -163 -149 t-191 -127h-10q-28 0 -28 18z" />
<glyph unicode="&#xe2;" horiz-adv-x="1043" d="M110 294.5q0 117.5 47 237.5t129 216q168 198 370 198q45 0 105 -20.5t69 -20.5l84 20q50 0 50 -59v-32q0 -14 -47.5 -209t-47.5 -277t42.5 -124.5t42.5 -77.5t-50 -72.5t-108 -37.5h-14q-43 0 -77.5 68.5t-49.5 68.5q-3 0 -115.5 -61.5t-212.5 -61.5t-158.5 63.5 t-58.5 181zM265 282q0 -77 29.5 -118t79.5 -41h8q54 1 134 55q154 105 236 380q35 117 35 180v9q0 106 -131 106h-9h-2q-140 0 -251 -159q-63 -90 -96 -199.5t-33 -172.5v-40zM440 1111v5q0 8 145.5 153.5t186.5 145.5h7l8 -1q42 0 72.5 -61t73 -135.5t42.5 -91.5v-6 q0 -25 -55 -25q-31 0 -95 92.5t-78 92.5q-5 0 -114.5 -93t-146.5 -93h-7q-39 0 -39 17z" />
<glyph unicode="&#xe3;" horiz-adv-x="1043" d="M112 281v41q0 109 56 232q113 246 309 346q86 44 154 44t132 -20t68 -20l85 19q50 0 50 -59v-16q0 -25 -47.5 -220.5t-47.5 -313.5q0 -50 42 -92t42 -77.5t-50 -73t-108 -37.5h-14q-47 0 -76.5 68.5t-58.5 68.5q-18 0 -70 -35.5t-77 -47.5q-80 -40 -176.5 -40t-154.5 63 t-58 170zM266 280q2 -20 2 -29q0 -54 30 -92t78 -38l8 1h8q60 0 138 63.5t131 150t90 210t37 190.5v18q0 44 -33.5 70.5t-87.5 26.5h-19l-10 -1q-66 0 -130 -44q-131 -90 -206 -303q-36 -103 -36 -193v-30zM429 1156v7q0 59 76 129q49 45 124 45q36 0 126 -42t122 -42t71 43 t53 43q35 0 35 -22v-7q0 -62 -61.5 -118.5t-129.5 -56.5q-32 0 -130.5 43t-125.5 43t-70.5 -43.5t-53.5 -43.5q-36 0 -36 22z" />
<glyph unicode="&#xe4;" horiz-adv-x="1043" d="M117 281v40q0 101 53 223q105 241 295 347q93 52 179 52h37q31 0 86 -20t69 -20l85 20q50 0 50 -60v-15l-1 -16q0 -11 -47 -209.5t-47 -308.5q0 -54 42 -92t42 -77t-51.5 -75.5t-120.5 -36.5q-42 0 -76.5 69t-47.5 69t-142 -75q-83 -48 -186 -48t-161 63t-58 170z M271 280q0 -69 27 -114t74 -45h17h2q49 0 127 51q156 101 241 384q34 113 34 179v19q0 46 -35.5 71.5t-94.5 25.5h-10q-140 0 -254 -161q-53 -75 -90.5 -182.5t-37.5 -197.5v-30zM468 1218v16l1 3l2 15q0 27 28.5 55.5t50.5 28.5l20 3h16l18 -4q53 0 53 -69v-28 q-3 -9 -3 -20.5t-25.5 -43t-50.5 -31.5q-6 -2 -9 -2l-16 -2h-6l-3 1h-7q-6 2 -9 2q-60 0 -60 76zM822 1212v28q0 28 28.5 63.5t76.5 35.5h6q32 0 55 -23t23 -57v-16q0 -33 -28.5 -68.5t-67.5 -35.5h-22q-6 2 -9 2q-62 0 -62 71z" />
<glyph unicode="&#xe5;" horiz-adv-x="1043" d="M113 283v40q0 101 53 223q109 250 312 356q84 43 162 43h19q45 0 103.5 -20t69.5 -20l85 19q50 0 50 -59v-31q0 -14 -47.5 -209t-47.5 -310q0 -51 42 -89.5t42 -78t-51.5 -76t-120.5 -36.5q-42 0 -76.5 68.5t-58.5 68.5q-18 0 -81.5 -43t-114.5 -61t-138 -18t-144.5 62.5 t-57.5 170.5zM267 292q0 -76 26 -122.5t76 -46.5h16q51 0 122 46t135.5 137.5t105.5 227.5t41 194v28q0 42 -32 69t-89 27h-28q-130 0 -256 -177q-42 -59 -79.5 -166.5t-37.5 -206.5v-10zM552 1232v18q0 91 70 145.5t133 54.5h19q62 0 112.5 -44.5t50.5 -112.5v-18 q-2 -12 -2 -18q0 -61 -78 -130q-51 -45 -123 -45h-18q-65 0 -113.5 43t-48.5 95zM639 1243q0 -38 26.5 -64.5t54.5 -26.5h25q34 0 69.5 35.5t35.5 77.5v26q0 35 -26 61t-54 26h-25q-35 0 -69 -34t-34 -65l-3 -22v-14z" />
<glyph unicode="&#xe6;" horiz-adv-x="1418" d="M127 273v23q0 91 54 203t154.5 205.5t188 128t208.5 34.5l22 3l21 2l21 4q8 1 49.5 1t88.5 -16t62 -16t99.5 30.5t156.5 30.5t124 -46q52 -48 52 -116q0 -130 -108 -212q-78 -60 -287 -114q-104 -26 -110 -30q-26 -17 -26 -80.5t46 -111t119.5 -47.5t180 59t119.5 59 t13 -14q0 -66 -157 -156q-122 -70 -218 -70q-140 0 -251 114q-17 18 -31 51.5t-23.5 33.5t-44 -21.5t-61.5 -42.5t-50 -35q-140 -82 -220.5 -82t-136 61t-55.5 167zM286 237q0 -57 24.5 -86t53.5 -29h23q35 0 103 42q150 93 271 424q42 114 42 136v33q0 67 -88 67h-36 q-60 0 -128 -46q-144 -96 -232 -334q-33 -90 -33 -162v-45zM904 513q0 -18 24 -18h12l6 1q120 0 252 88q103 69 103 140v32q0 31 -25 60t-71 29h-11q-137 0 -257 -219q-33 -60 -33 -103v-10z" />
<glyph unicode="&#xe7;" horiz-adv-x="844" d="M151 335v21q0 102 49 218q48 116 132 205q175 187 378 187q70 0 132 -37t62 -77t-22 -68.5t-37.5 -28.5t-77.5 29.5t-126 29.5q-110 0 -192 -102q-110 -136 -110 -282t60.5 -220t159.5 -74q65 0 113 24t96 59t50 35q27 0 27 -40q0 -69 -119.5 -140t-235.5 -71h-39 q-127 0 -213.5 97.5t-86.5 234.5zM229 -403q0 23 51 40q102 34 102 113q0 29 -16.5 52t-16.5 28q0 28 39.5 82t51.5 54h7l7 -1l26 -2q22 0 22 -30t19 -68t19 -65v-23q0 -59 -73 -125q-107 -96 -182 -96h-6q-50 0 -50 25v15v1z" />
<glyph unicode="&#xe8;" horiz-adv-x="885" d="M117 325v39q0 88 43 201.5t124.5 204t173.5 138t179 47.5h19q99 0 161.5 -53t62.5 -140v-19q0 -119 -97 -186t-340 -112q-112 -21 -125 -28q-34 -19 -34 -83q0 -103 66 -164q46 -42 123.5 -42t195 64t118.5 64q21 0 21 -37q0 -63 -138 -138t-266 -75t-207.5 89.5 t-79.5 229.5zM316 554q0 -25 25 -25h13l26 3l40 4q95 0 239 72q77 39 77 117v23q0 46 -29 79t-79 33h-24q-94 0 -178 -95q-110 -124 -110 -197v-14zM427 1367v8q0 45 72 45h5q12 -3 18 -3q46 0 107 -92q126 -189 126 -201v-8l-1 -4q0 -22 -27 -22h-14q-32 0 -159 127 t-127 150z" />
<glyph unicode="&#xe9;" horiz-adv-x="885" d="M114 326v20q0 104 42 214q84 222 275 335q104 61 203 61h39q92 0 148 -58.5t56 -134.5v-19q0 -122 -95 -185q-108 -71 -370 -118q-84 -15 -97 -23q-33 -19 -33 -97.5t52 -135t131.5 -56.5t172.5 49q9 5 67.5 42t79.5 37t21 -37q0 -56 -133 -134.5t-260 -78.5t-213 82.5 t-86 236.5zM313 555q0 -25 25 -25h7l6 1l27 2q7 1 13 1l34 4q80 0 212 60q94 43 94 111l2 12v23q0 48 -27 82.5t-80 34.5h-25q-83 0 -185.5 -102.5t-102.5 -189.5v-14zM531 1104v8q0 11 69 100q159 205 251 205h15q58 0 58 -34v-9q0 -18 -153 -151.5t-207 -133.5 q-33 0 -33 15z" />
<glyph unicode="&#xea;" horiz-adv-x="885" d="M116 326v20q0 223 163 419q71 85 168.5 138t188.5 53h19q99 0 161.5 -53t62.5 -141v-18v-3q0 -112 -71 -165q-99 -74 -366 -130q-118 -24 -125 -28q-34 -19 -34 -96.5t51 -135t134.5 -57.5t171.5 48q12 6 68 43t78 37t22 -37q0 -61 -154 -147q-118 -66 -221 -66h-20 q-125 0 -211 82.5t-86 236.5zM315 554q0 -24 25 -24h13l7 1l26 2l27 3q89 0 236 67q86 39 86 117v35q0 40 -29 73t-78 33h-25q-12 -2 -18 -2q-77 0 -173.5 -108.5t-96.5 -182.5v-14zM370 1110q0 24 153 164t179 140h8l8 -1q41 0 70 -57.5t73.5 -135.5t44.5 -95v-6 q0 -25 -56 -25q-30 0 -94 92.5t-78 92.5t-115.5 -93t-145.5 -93h-7q-40 0 -40 17z" />
<glyph unicode="&#xeb;" horiz-adv-x="885" d="M121 325v39q0 92 44 204t121 200q162 187 372 187h2q98 0 161 -53.5t63 -140.5v-18q0 -119 -95 -185q-99 -69 -355 -116q-93 -17 -98 -19q-48 -19 -48 -102.5t53 -138.5t130.5 -55t136.5 30t109.5 64t72.5 34t22 -37q0 -60 -154 -146q-118 -66 -221 -66h-38 q-116 0 -197 87.5t-81 231.5zM319 558q0 -29 20 -29h25q28 4 40 4q112 0 244 66q92 46 92 126v23q-2 10 -2 17q0 38 -33 66.5t-85 28.5l-6 -1q-90 0 -176 -86q-119 -119 -119 -211v-4zM394 1222v9l4 25q0 23 30.5 53.5t70.5 30.5h7q74 0 74 -59q2 -6 2 -8l2 -16v-12 q0 -42 -31.5 -73.5t-63.5 -31.5h-22q-9 3 -16 3q-57 0 -57 79zM748 1216v22q3 9 3 21.5t25.5 44.5t54.5 32l19 3h13q29 0 51.5 -22.5t22.5 -51.5v-25q0 -29 -27.5 -63.5t-55.5 -34.5l-19 -3h-9l-3 1h-7q-6 2 -9 2q-59 0 -59 74z" />
<glyph unicode="&#xec;" horiz-adv-x="548" d="M159 125l1 11q0 54 55.5 322t55.5 293.5t-30 36.5q-47 17 -47 37q0 41 45.5 67t139.5 26h24q51 0 51 -72q0 -49 -26.5 -154.5t-51.5 -241t-25 -186.5t13 -62.5t57.5 -11.5t44.5 -29q0 -43 -53 -79q-94 -64 -174 -64t-80 107zM207 1363v12q0 40 67 40h10l4 -1q42 0 83 -41 q5 -5 63 -92l66 -99q34 -45 34 -62v-13q0 -22 -33 -22h-4l-5 1q-33 0 -159 126t-126 151z" />
<glyph unicode="&#xed;" horiz-adv-x="548" d="M159 104v33q0 92 55.5 314t55.5 294q0 34 -29 44q-48 17 -48 37q0 38 43.5 65.5t141.5 27.5h24q51 0 51 -86q0 -20 -51 -249.5t-51 -337.5q0 -55 76 -55q38 0 38 -22v-8q0 -44 -53 -78q-101 -64 -174 -64h-10q-23 0 -46 23t-23 62zM313 1098v8q0 12 68 100 q160 206 262 206l5 -1q58 0 58 -34v-4l-1 -4q0 -32 -163 -158.5t-191 -126.5h-10q-28 0 -28 14z" />
<glyph unicode="&#xee;" horiz-adv-x="548" d="M149 1104v5q0 8 72 80l81 81q126 137 175 137h8l8 -1q41 0 74 -61q114 -212 114 -223v-6q0 -27 -47 -27h-14q-24 0 -88 92.5t-77 92.5t-114 -92.5t-144 -92.5h-7q-41 0 -41 15zM162 114v11l1 12q0 54 55.5 322t55.5 292.5t-30 36.5q-47 18 -47 38q0 44 51 68t134 24h34 q41 0 41 -72q0 -29 -51.5 -261t-51.5 -301.5t13 -81t57 -11.5t44 -22v-8q0 -45 -53 -79q-101 -64 -173 -64q-32 0 -56 22.5t-24 73.5z" />
<glyph unicode="&#xef;" horiz-adv-x="548" d="M174 118v11l1 11q0 54 55.5 322t55.5 293.5t-30 36.5q-47 17 -47 37q0 41 45.5 67t139.5 26h24q51 0 51 -72q0 -30 -51.5 -262t-51.5 -300.5t12.5 -81t57 -12.5t44.5 -22v-7q0 -50 -64 -86q-102 -57 -148 -57q-94 0 -94 96zM189 1211v28l4 18q0 22 29.5 51.5t67.5 29.5 h13q74 0 74 -76v-18q0 -33 -27.5 -67.5t-54.5 -34.5l-19 -3h-12q-30 0 -52.5 22.5t-22.5 49.5zM538 1222v9q0 35 28.5 70.5t67.5 35.5h23q66 0 66 -59l3 -15v-25q0 -29 -28.5 -64.5t-73.5 -35.5h-6q-76 0 -76 60q-2 6 -2 9z" />
<glyph unicode="&#xf0;" horiz-adv-x="987" d="M108 337q0 101 43 216.5t122.5 203.5t173.5 135t187 47l42 -2q63 0 63 73.5t-66 125.5q-38 30 -102 30l-72 -13q-49 0 -49 30.5t46 69t46 65.5t-49 73t-49 70q0 43 44 43q37 0 130 -60.5t124 -60.5l172 20q30 0 30 -18.5t-53.5 -66.5t-53.5 -104q0 -28 24.5 -94t49 -158 t24.5 -244q0 -298 -133 -491q-69 -102 -172 -163.5t-215 -61.5h-26q-128 0 -204.5 86.5t-76.5 248.5zM262 302q0 -99 45 -155.5t119 -56.5l10 1h9q49 0 109 41q126 87 189 296q31 103 31 182v54q0 91 -44.5 139t-116.5 48h-10q-63 0 -123 -41q-129 -88 -186 -280 q-30 -100 -30 -162l-2 -22v-44z" />
<glyph unicode="&#xf1;" horiz-adv-x="1075" d="M137 154v23q0 35 51 204t51 271q0 19 -20 39t-20 53t32 69q67 75 109.5 75t57.5 -25t23.5 -75.5t17.5 -50.5q15 1 71 51q140 127 267 127h2h23q66 0 113.5 -55t47.5 -131t-34 -240t-34 -230t9 -86.5t38 -20.5t29 -5q0 -11 -24 -28q-71 -50 -137 -50q-40 0 -63 42 t-23 95.5t32 236t32 244t-27 93.5t-70.5 32t-107.5 -42q-141 -93 -229 -366q-15 -47 -41 -148t-34 -122q-32 -79 -78 -79h-15q-49 0 -49 99zM409 1151v8q0 54 60 114t140 60q34 0 125 -42.5t121 -42.5t73 43t46 43h7q34 0 34 -22v-7q0 -62 -61.5 -118.5t-116.5 -56.5 t-141 43t-122 43t-75.5 -43.5t-54.5 -43.5q-35 0 -35 22z" />
<glyph unicode="&#xf2;" horiz-adv-x="976" d="M128 322v15l1 15q1 103 45 216q91 232 296 346q79 44 174 44h13q135 0 225 -95t90 -229v-13l-1 -14v-5v-4q0 -96 -43 -202q-94 -231 -299 -337q-102 -53 -191 -53h-29q-125 0 -203 87t-78 229zM287 330l1 -11q0 -99 41 -161t114 -62h20q59 0 117 40q122 84 184 293 q30 100 30 179v43q0 95 -41.5 152t-109.5 57h-20q-58 0 -121 -43t-101 -106q-114 -187 -114 -370v-11zM462 1366v9q0 44 72 44h5q51 0 90 -46q161 -188 161 -254v-4q0 -26 -28 -26h-14q-32 0 -159 127t-127 150z" />
<glyph unicode="&#xf3;" horiz-adv-x="976" d="M123 308v45q0 95 42.5 209.5t128.5 213.5q158 183 344 183h14q124 0 219 -90t95 -219v-42q0 -100 -45.5 -213t-123.5 -199t-177 -137.5t-187 -51.5h-30q-125 0 -202.5 86.5t-77.5 214.5zM282 310q0 -93 44 -153t111 -60h20q59 1 117 41q122 84 184 292q31 103 31 200 l-1 11q0 106 -41.5 163t-109.5 57h-20q-58 0 -118 -41t-109 -117q-108 -167 -108 -350v-43zM562 1107l1 4v4q0 8 70 98q158 203 249 203h15q58 0 58 -30v-13q0 -30 -164 -157.5t-196.5 -127.5t-32.5 19z" />
<glyph unicode="&#xf4;" horiz-adv-x="976" d="M128 308v45q0 95 39.5 201.5t114 201.5t170.5 149t191 54h14q130 0 222.5 -92.5t92.5 -230.5l-1 -14l-1 -27q0 -113 -52 -221q-104 -217 -290 -314q-102 -53 -190 -53h-30q-121 0 -200.5 84.5t-79.5 216.5zM287 310q0 -93 44 -153t111 -60h20q59 0 120 42.5t107 116.5 q105 172 105 363v22q0 98 -47 169q-34 51 -105 51h-20q-58 0 -118 -41t-109 -117q-108 -167 -108 -350v-43zM404 1107q0 14 145 159t186 145h15q42 0 70 -57q14 -28 66 -120t52 -110q0 -31 -49 -31h-7q-17 0 -89 86q-12 14 -41.5 56.5t-42.5 42.5t-114 -92.5t-144 -92.5h-7 q-40 0 -40 14z" />
<glyph unicode="&#xf5;" horiz-adv-x="976" d="M125 306v45q0 106 46.5 219.5t128.5 209.5q152 177 338 177h2h14q130 0 222 -92t92 -217v-42q0 -100 -45.5 -213t-123.5 -199t-177 -137.5t-187 -51.5h-30q-121 0 -200.5 84.5t-79.5 216.5zM284 308q0 -93 44 -153t111 -60h20q124 0 227 160q51 79 78 186t27 176v22 q0 98 -47 169q-34 51 -105 51h-20q-58 0 -118 -41t-109 -117q-108 -167 -108 -350v-43zM393 1154v15q0 47 60 107t123 60t141.5 -42t115.5 -42t79.5 42.5t45.5 42.5h13q28 0 28 -21v-8q0 -68 -80 -135q-47 -39 -101 -39t-140 43t-119 43t-76.5 -43.5t-47.5 -43.5h-14 q-28 0 -28 21z" />
<glyph unicode="&#xf6;" horiz-adv-x="976" d="M133 321v15l1 15q0 108 46 220.5t124.5 203.5t166 136.5t164.5 45.5h41q121 0 211 -95t90 -228v-14l-1 -14q0 -114 -47 -220q-100 -226 -283 -321q-113 -59 -203 -59h-29q-130 0 -205.5 89t-75.5 226zM292 319q0 -94 40.5 -158.5t115.5 -64.5h29q40 0 102.5 36.5 t103.5 104.5q116 190 116 370v43q0 99 -43.5 154.5t-117.5 55.5l-10 -1q-59 0 -119 -41t-103 -108q-114 -176 -114 -370v-21zM435 1218v15l1 3v7q2 6 2 9q0 26 30.5 56.5t68.5 30.5h13q69 0 69 -53q4 -8 4 -14l2 -21l-1 -4l-3 -25q0 -23 -30 -53t-61 -30h-19q-15 5 -25 5 q-51 0 -51 74zM789 1212v25q0 30 28.5 65.5t66.5 35.5h23l21 -5q47 0 47 -57l3 -18v-15l-1 -4l-2 -23q0 -10 -25.5 -42t-51.5 -32q-6 -2 -9 -2l-16 -2h-7l-21 4q-56 0 -56 70z" />
<glyph unicode="&#xf7;" horiz-adv-x="1148" d="M179 538v29q0 61 34 66q19 3 446 3l313 1h31q103 0 103 -31q0 -72 -15 -80.5t-142 -8.5h-749q-21 0 -21 21zM522 231l1 3l3 37q0 14 26 40t47 26q12 4 16 4h27q9 -3 16 -3q62 0 62 -77v-26q-3 -12 -3 -23t-24.5 -41.5t-52.5 -30.5l-16 -3h-20q-38 0 -60 27.5t-22 66.5z M563 897v13l5 29q0 20 28.5 48.5t69 28.5t65.5 -20t25 -41q3 -9 3 -10l2 -16v-16l-4 -23q0 -22 -28.5 -50.5t-59.5 -28.5h-27l-19 4q-15 0 -37.5 22.5t-22.5 59.5z" />
<glyph unicode="&#xf8;" horiz-adv-x="986" d="M96 -35q0 22 36.5 71t36.5 81q-1 6 -9 30q-32 92 -32 194.5t46 218.5t129 210q164 184 403 185q58 0 98.5 -11t53 -11t51.5 32.5t58 32.5q26 0 26 -26.5t-30 -76t-30 -62.5t21.5 -68t21.5 -160t-62 -237.5t-145.5 -219t-170.5 -122t-215 -35.5q-35 0 -79.5 9t-61.5 9 t-58 -39t-59 -39q-29 0 -29 34zM284 290q0 -61 14 -61q3 0 225.5 263t222.5 292v7q0 18 -28 41t-73 23h-17q-60 0 -122 -43t-102 -105q-118 -184 -118 -341l-2 -18v-58zM340 152q0 -19 28 -44.5t68 -25.5h25q59 0 121 43t107 113q116 180 116 369v33q0 70 -16 70 t-131 -149.5t-216.5 -269.5t-101.5 -139z" />
<glyph unicode="&#xf9;" horiz-adv-x="1062" d="M168 225v25q0 80 43.5 286.5t43.5 232t-30 49t-30 31.5t12 16q57 37 114 37t75 -30t18 -91t-47.5 -251t-47.5 -268q0 -132 94 -132q52 0 124 53t136 150t129.5 311t104 214t38.5 -121q0 -35 -22 -156t-22 -194q0 -34 31 -73t31 -91.5t-48.5 -106.5t-99 -54t-75.5 31 q-10 13 -21 60t-34 47q-5 0 -74.5 -44t-83.5 -52q-107 -61 -182.5 -61t-126 47t-50.5 135zM463 1362v12q0 40 67 40h14q47 0 86 -45q161 -188 161 -254v-4q0 -26 -28 -26h-14q-49 0 -167.5 135.5t-118.5 141.5z" />
<glyph unicode="&#xfa;" horiz-adv-x="1062" d="M168 226v25q0 100 43.5 290.5t43.5 222t-30.5 55.5t-30.5 31.5t12 15.5q55 36 124 36h17q23 0 45 -24t22 -88.5t-48 -256.5t-48 -259q0 -143 95 -143q60 0 132.5 59.5t131 148.5t124.5 304.5t105 215.5t39 -122q0 -29 -22.5 -153t-22.5 -179.5t31 -91t31 -72.5v-14 q0 -56 -48.5 -110t-94.5 -54t-68.5 18.5t-32 69t-34.5 50.5q-9 0 -68.5 -40t-88.5 -57q-103 -60 -181 -60h-22q-67 0 -111.5 54t-44.5 128zM581 1101l1 5v4q0 12 24 39q169 193 186 208q62 54 114 54h11q58 0 58 -39q-2 -8 -2 -13q0 -22 -163 -149t-191 -127h-5l-5 1 q-28 0 -28 17z" />
<glyph unicode="&#xfb;" horiz-adv-x="1062" d="M168 225v25q0 65 43.5 290t43.5 239.5t-30.5 38.5t-30.5 31.5t13 15.5q57 37 123 37q84 0 84 -113q0 -65 -48 -257t-48 -259q0 -143 95 -143q52 0 124 53t136 150t129.5 311t104 214t38.5 -121q0 -35 -22.5 -158.5t-22.5 -178t31 -88t31 -71.5v-31q0 -48 -51.5 -98 t-99.5 -50t-72 32q-9 12 -20 59t-34 47q-8 0 -71.5 -41t-86.5 -55q-103 -60 -180 -60h-23q-67 0 -111.5 54t-44.5 127zM414 1102.5q0 14.5 145.5 160t179.5 145.5h22q37 0 74 -64q115 -201 115 -224v-6q0 -26 -49 -26h-7q-26 0 -95.5 93t-74.5 93t-116.5 -93t-146.5 -93h-7 q-40 0 -40 14.5z" />
<glyph unicode="&#xfc;" horiz-adv-x="1062" d="M178 227v26q0 69 43.5 294.5t43.5 236t-30.5 35.5t-30.5 32.5t12 15.5q57 37 123 37q85 0 85 -113q0 -65 -48 -257t-48 -269q0 -133 94 -133q50 0 123 52t140 153t127.5 312t101.5 211t41 -121q0 -15 -22.5 -150t-22.5 -183t31 -89.5t31 -93t-48.5 -105.5t-99 -54 t-75.5 32q-10 13 -21 59.5t-34 46.5q-5 0 -76.5 -45t-81.5 -51q-110 -60 -180 -60h-22q-70 0 -113 54.5t-43 126.5zM441 1215v19q0 30 27 64t52 34q6 2 9 2l13 2h13q75 0 75 -73v-25q0 -30 -29 -66t-69 -36h-16q-71 0 -71 58q-2 6 -2 9zM794 1222v6l5 27q0 14 26.5 47 t64.5 33h23q9 -3 15 -3q51 0 51 -52q3 -9 3 -12l2 -19v-6l-5 -28q0 -21 -27 -48t-46 -27q-12 -4 -15 -4h-25q-66 0 -66 53z" />
<glyph unicode="&#xfd;" horiz-adv-x="943" d="M-16 -429q0 18 103 72.5t177 151.5q100 130 100 271q0 46 -41.5 184.5t-70 261t-35.5 136.5q-53 114 -53 135.5t36 55t62 33.5q72 0 127 -188q33 -114 47 -283t27 -169q56 0 167 189q67 114 104.5 220t42.5 137l2 23q3 58 7 66q15 34 54 34h20q53 0 53 -43v-18 q0 -79 -194.5 -507t-444.5 -659q-148 -137 -220 -137h-18q-52 0 -52 34zM520 1087v8q0 16 28 48q167 191 182 204q62 54 115 54h5l5 -1q58 0 58 -34v-4l-1 -4q0 -32 -163 -158.5t-192 -126.5h-10q-27 0 -27 14z" />
<glyph unicode="&#xfe;" horiz-adv-x="1035" d="M-59 -428q0 20 29 64q59 90 112 285.5t176 761.5l30 148l4 28q9 48 35.5 165t26.5 140l-21 145q0 45 43.5 71.5t98.5 26.5q65 0 65 -88q0 -31 -35 -220t-35 -212t23 -23q2 0 78 25t174.5 25t165.5 -84t67 -211v-28q0 -98 -43.5 -213t-123 -205t-185.5 -135 q-59 -25 -184.5 -39.5t-180.5 -51t-55 -172.5l11 -111q0 -61 -56 -105.5t-138 -44.5t-82 58zM317 184q0 -35 39.5 -66t92.5 -31h29q65 0 126 42t107 107t82.5 169.5t36.5 177.5l2 21v51q0 74 -32.5 126t-97.5 52h-18q-56 0 -119.5 -43.5t-119.5 -135.5t-92 -228t-36 -214 v-28z" />
<glyph unicode="&#xff;" horiz-adv-x="943" d="M-27 -437q0 19 104 73.5t176 149.5q101 134 101 272q0 48 -41 183.5t-70 259t-36 138.5q-53 114 -53 135.5t36.5 55.5t69.5 34q58 0 104.5 -143t61 -320.5t26.5 -177.5h1q56 0 141 145q165 278 176 444q2 39 6 47q16 34 53 34q74 0 74 -61q0 -79 -145.5 -399.5 t-259.5 -489.5t-251 -292t-221 -123q-53 0 -53 35zM355 1195v15l1 3v7q2 6 2 9q0 26 30.5 56.5t64.5 30.5h17q74 0 74 -73v-28q-3 -9 -3 -27t-32 -43.5t-47 -25.5l-19 -3h-12q-25 0 -50.5 20t-25.5 59zM708 1201v4l6 33q0 12 26 44.5t64 32.5h23q67 0 67 -59q2 -4 2 -8 l2 -16v-9l-4 -25q0 -16 -25 -47.5t-51 -31.5l-13 -3h-6l-10 -1l-24 4q-57 0 -57 82z" />
<glyph unicode="&#x152;" horiz-adv-x="1963" d="M231 489v5v44q0 165 80.5 343.5t195 297t231.5 161t322 42.5q37 0 81 -5l39 -5q69 -9 105 -9t174.5 21t255.5 21h41q78 0 144 -38t66 -83q0 -23 -33 -23q-2 0 -91 13.5t-251 13.5q-110 0 -165 -65q-25 -29 -65 -132.5t-40 -145.5q0 -90 113 -90q31 0 62 8l31 10 q50 17 62 17q100 0 100 -111q0 -55 -39 -102t-102 -47q-5 0 -54 19.5t-106 19.5q-115 0 -168 -61q-18 -21 -42 -104t-24 -194.5t33 -146.5t143 -35t211 12.5t140 28t59.5 15.5t20.5 -24q0 -44 -83.5 -94.5t-168.5 -50.5q-38 0 -108 5t-137.5 7t-128 12t-80.5 10l-38 -5 q-183 -31 -258 -31h-45q-312 1 -442 287q-41 90 -41 189zM378 492l1 -17q0 -165 74 -262t198 -97h31q176 0 252 171t141 486t65 359v30q0 77 -25 102q-46 46 -160 46l-15 -1h-15q-89 0 -201 -70q-112 -69 -191 -197q-155 -247 -155 -550z" />
<glyph unicode="&#x153;" horiz-adv-x="1617" d="M117 388v26q0 103 49 199q95 185 291 268q92 39 191 39t154.5 -25t96.5 -67t60 -42t74.5 34t87.5 50q104 51 217 51t188 -53t75 -144v-26q0 -140 -86 -188q-123 -70 -435 -70q-68 0 -88 -16.5t-20 -56.5q0 -98 64 -156.5t148 -58.5t168 41q20 10 73.5 43.5t79.5 33.5 t26 -34q0 -12 -24 -35q-58 -57 -161.5 -97t-206.5 -40t-177 40q-27 15 -65.5 47t-58.5 32q-20 -1 -70 -33q-139 -91 -280 -91h-3h-29q-155 0 -247 95t-92 234zM311 313q0 -90 38 -149.5t108 -59.5h9q117 0 218 157q49 76 82 191.5t33 191.5v43q0 73 -34 129.5t-98 56.5h-19 q-53 0 -114.5 -41t-111.5 -123q-109 -178 -109 -340l-2 -23v-33zM998 588q0 -25 32 -25h18q14 2 20 2l54 7q139 0 262 56q69 31 69 83l2 11v22q0 51 -35.5 82t-92.5 31h-26q-89 0 -178 -79q-125 -111 -125 -190z" />
<glyph unicode="&#x178;" horiz-adv-x="1205" d="M327 1329q0 71 180 71q88 0 88 -64q-5 -35 -5 -52.5t35 -125.5t53 -182l34 -148q11 -44 27 -44q46 0 264 369q45 77 59.5 140t16.5 66q37 52 140 52t103 -28v-14q0 -25 -78 -97t-107 -112q-211 -289 -336 -526q-44 -83 -76 -201.5t-32 -164t21.5 -82t21.5 -48.5 q0 -55 -68 -93q-38 -21 -110 -21q-136 0 -136 66q0 32 39.5 76.5t55.5 90.5q61 176 61 320.5t-106 474.5q-33 103 -68 153q-77 110 -77 124zM618 1625v29q0 36 36 90q17 25 50 25l3 1l4 1l26 1l25 -3q35 0 35 -31l5 -33l-1 -3v-13l-1 -3v-7q-2 -6 -2 -17t-22.5 -48.5 t-51.5 -37.5q-12 -4 -16 -4l-19 -2h-6q-65 0 -65 55zM987 1623v21q0 56 38 103q20 25 65 25h23q52 0 52 -32q3 -9 3 -12l2 -12v-25l-4 -26q0 -27 -26 -59.5t-57 -32.5l-19 -3h-20q-9 3 -15 3q-38 0 -38 32z" />
<glyph unicode="&#x2c6;" horiz-adv-x="838" d="M255 1165q0 1 142.5 143.5t194.5 142.5h8q43 0 74 -42q134 -179 134 -235v-5q0 -18 -50 -18t-142 133q-33 47 -45 47q-12 -1 -64 -49q-144 -133 -207 -133h-1q-44 0 -44 16z" />
<glyph unicode="&#x2dc;" horiz-adv-x="841" d="M238 1206v8q0 57 66.5 118t120.5 61h32q41 0 118.5 -46.5t117 -46.5t78.5 46.5t56 46.5h15q31 0 31 -17v-8q0 -65 -85 -137q-48 -41 -109 -41t-139 47t-118.5 47t-80 -47.5t-57.5 -47.5h-14q-32 0 -32 17z" />
<glyph unicode="&#x2000;" horiz-adv-x="937" />
<glyph unicode="&#x2001;" horiz-adv-x="1874" />
<glyph unicode="&#x2002;" horiz-adv-x="937" />
<glyph unicode="&#x2003;" horiz-adv-x="1874" />
<glyph unicode="&#x2004;" horiz-adv-x="624" />
<glyph unicode="&#x2005;" horiz-adv-x="468" />
<glyph unicode="&#x2006;" horiz-adv-x="312" />
<glyph unicode="&#x2007;" horiz-adv-x="312" />
<glyph unicode="&#x2008;" horiz-adv-x="234" />
<glyph unicode="&#x2009;" horiz-adv-x="374" />
<glyph unicode="&#x200a;" horiz-adv-x="104" />
<glyph unicode="&#x2010;" horiz-adv-x="723" d="M124 485v10l1 5q0 82 42 93q18 5 219 5h246q23 0 23 -18v-5q-2 -10 -2 -16q0 -47 -27 -74q-12 -12 -64 -12h-421q-17 0 -17 12z" />
<glyph unicode="&#x2011;" horiz-adv-x="723" d="M124 485v10l1 5q0 82 42 93q18 5 219 5h246q23 0 23 -18v-5q-2 -10 -2 -16q0 -47 -27 -74q-12 -12 -64 -12h-421q-17 0 -17 12z" />
<glyph unicode="&#x2012;" horiz-adv-x="723" d="M124 485v10l1 5q0 82 42 93q18 5 219 5h246q23 0 23 -18v-5q-2 -10 -2 -16q0 -47 -27 -74q-12 -12 -64 -12h-421q-17 0 -17 12z" />
<glyph unicode="&#x2013;" horiz-adv-x="1095" d="M85 505v18q0 60 31 75q16 8 169 8h733q48 0 48 -13v-9q0 -69 -30 -84q-16 -8 -180 -8h-712q-59 0 -59 13z" />
<glyph unicode="&#x2014;" horiz-adv-x="1908" d="M112 499v14q0 41 15.5 62t73.5 21l1565 3q74 0 74 -29q0 -76 -73 -82q-34 -3 -829 -3h-662l-73 -1h-37q-54 0 -54 15z" />
<glyph unicode="&#x2018;" horiz-adv-x="533" d="M288 1027v27q0 104 63 212t122 145.5t75 37.5h6q22 0 22 -21v-13q0 -6 -38.5 -48.5t-45.5 -53.5q-44 -69 -44 -124q0 -8 18 -53q9 -33 9 -75.5t-28 -74t-77 -31.5l-6 1q-76 0 -76 71z" />
<glyph unicode="&#x2019;" horiz-adv-x="532" d="M257 975v8q1 15 29 41q108 97 108 185q0 5 -12 45t-12 86t30.5 76.5t73.5 30.5h18q67 0 67 -57v-26q-3 -21 -3 -34q0 -98 -101 -237t-170 -139h-6q-22 0 -22 21z" />
<glyph unicode="&#x201a;" horiz-adv-x="550" d="M28 -240q0 9 43 56.5t44 49.5q51 70 51 125q0 3 -10.5 41.5t-10.5 86.5t32 76.5t77 28.5l6 -1h6q65 0 65 -50v-32q0 -125 -103 -267t-170 -142h-5q-25 0 -25 28z" />
<glyph unicode="&#x201c;" horiz-adv-x="842" d="M279 1032v40q2 14 2 21q0 105 95 235.5t161 130.5h6q22 0 22 -21v-13q0 -13 -27.5 -37.5t-64.5 -75.5t-37 -107q0 -11 14.5 -47t14.5 -82t-27.5 -77t-71.5 -31h-12l-6 1q-69 0 -69 63zM628 1052l1 6q0 111 78 245q48 83 105 119t69 36h16q18 0 18 -24v-4q1 -12 -29 -42 q-100 -100 -100 -183q0 -13 14 -45t14 -82t-27 -80t-71 -30h-18q-70 0 -70 84z" />
<glyph unicode="&#x201d;" horiz-adv-x="843" d="M257 988v9q0 15 32 43.5t68.5 79t36.5 95.5q0 12 -11.5 50.5t-11.5 83.5t28 76.5t68 31.5h31q59 0 59 -63v-20q0 -127 -86 -245q-119 -163 -187 -163q-27 0 -27 22zM605 993v4q-1 14 27 39q110 100 111 185q0 3 -11.5 45t-11.5 87t30 75t79 30h6q71 0 71 -52v-39 q0 -119 -82 -232q-123 -169 -191 -169q-28 0 -28 27z" />
<glyph unicode="&#x201e;" horiz-adv-x="857" d="M22 -231q0 11 36 47q100 100 100 182q0 3 -11.5 41.5t-11.5 82t28 75t68 31.5h30q59 0 59 -55v-33q-2 -14 -2 -20q0 -103 -100.5 -241.5t-167.5 -138.5h-5q-23 0 -23 25v4zM371 -231q0 8 42.5 55.5t44.5 49.5q50 69 50 124q0 1 -11.5 39.5t-11.5 85.5t29.5 76.5 t77.5 29.5h7q71 0 71 -63v-13q0 -104 -85 -250q-37 -64 -98 -113.5t-82 -49.5h-11q-23 0 -23 25v4z" />
<glyph unicode="&#x2022;" horiz-adv-x="896" d="M229 633v9q0 102 79.5 195.5t196.5 93.5h36q91 0 156.5 -71.5t65.5 -164.5v-26q0 -125 -92 -203t-192 -78h-9q-107 0 -174 73t-67 172z" />
<glyph unicode="&#x2026;" horiz-adv-x="1772" d="M171 64v25q6 24 6 50.5t31.5 58t85.5 31.5h23l28 -5q36 0 36 -36l3 -16v-29q0 -61 -32 -99t-73 -38l-22 -3h-19l-24 4q-40 0 -40 36zM759 59v33l4 26q0 38 29.5 73t69.5 35l23 3h19q68 0 68 -64v-14l-2 -15v-7q-2 -8 -2 -11q0 -41 -28.5 -75t-57.5 -34q-14 -4 -15 -4 l-18 -2h-26q-64 0 -64 56zM1347 66v22l1 4v7q2 8 2 11l3 15q0 33 28.5 67t68.5 34l23 3h19q64 0 64 -37q2 -6 2 -10l2 -17v-18q0 -74 -35 -109t-84 -35h-30q-59 0 -59 32z" />
<glyph unicode="&#x202f;" horiz-adv-x="374" />
<glyph unicode="&#x2039;" horiz-adv-x="635" d="M141 508q0 18 185.5 203.5t218.5 185.5t33 -27q0 -33 -145 -188.5t-145 -181.5q0 -3 76.5 -156t76.5 -174q0 -40 -43 -40h-8q-24 0 -91 103q-158 244 -158 275z" />
<glyph unicode="&#x203a;" horiz-adv-x="636" d="M103 152v7q0 18 144.5 183t144.5 177t-77 158.5t-77 181.5t41 35h8q28 0 86 -95q166 -272 166 -283v-9q0 -11 -185 -196t-218 -185t-33 26z" />
<glyph unicode="&#x205f;" horiz-adv-x="468" />
<glyph unicode="&#x20ac;" horiz-adv-x="1156" d="M132 560.5q0 23.5 64.5 57t64.5 79.5t-36 71t-36 37q0 34 57.5 78.5t133.5 155.5q207 305 571 305q120 0 165.5 -34.5t45.5 -101.5t-51 -67q-11 0 -103.5 43.5t-169 43.5t-153.5 -61q-107 -84 -107 -175q0 -52 45 -66t169.5 -14t124.5 -38q-1 -56 -149 -64 q-50 -2 -82 -4.5t-105.5 -5t-98.5 -9.5q-77 -20 -77 -88q0 -46 48 -59q15 -4 173 -15t158 -46q0 -56 -184 -76q-72 -8 -102 -26q-72 -44 -72 -132q0 -36 30 -84q80 -130 269 -130q61 0 148 26t114 26t27 -20q0 -26 -33 -64t-109 -74.5t-202 -36.5q-219 0 -331 127 q-78 89 -108 248q-16 91 -23.5 108.5t-34.5 34.5q-41 27 -41 50.5z" />
<glyph unicode="&#x2122;" horiz-adv-x="1682" d="M236 1301l1 14v14q0 73 46 82q30 6 278 6l105 1h99q38 0 38 -49v-44q0 -48 -21 -48q-15 0 -56.5 30.5t-102.5 30.5q-35 0 -46 -48q-34 -147 -34 -429q0 -29 23.5 -57.5t23.5 -44.5q0 -40 -66 -40h-30l-15 1h-15q-98 0 -98 39q0 12 26.5 42t32.5 63q29 168 29 386 q0 88 -55 88q-41 0 -88 -33t-58 -33q-17 0 -17 29zM861 756q0 3 21 34t29 71q42 214 42 420q0 22 -11 48l-10 20q-18 33 -18 38q0 30 82 30h29q67 0 102 -63q15 -27 79 -233t72.5 -206t102.5 202t122 240q42 57 168 57q27 0 27 -14t-16.5 -42t-20.5 -41.5t-16.5 -200 t-12.5 -230t9 -68.5l11 -20q20 -34 20 -37q0 -39 -63 -39t-94 28t-31 48t19.5 64t28.5 180t9 166t-11.5 30t-130 -251t-150.5 -251t-115.5 253.5t-88 253.5t-10.5 -15q-28 -73 -28 -303q0 -17 8 -52l6 -23q10 -41 10 -43q0 -27 -37.5 -54t-97.5 -27q-35 0 -35 30z" />
<glyph unicode="&#x25fc;" horiz-adv-x="940" d="M0 0v940h940v-940h-940z" />
</font>
</defs>
</svg>
