<?xml version="1.0" standalone="no"?>
<!DOCTYPE svg PUBLIC "-//W3C//DTD SVG 1.1//EN" "http://www.w3.org/Graphics/SVG/1.1/DTD/svg11.dtd" >
<svg xmlns="http://www.w3.org/2000/svg" xmlns:xlink="http://www.w3.org/1999/xlink" version="1.1">
<metadata></metadata>
<defs>
<font id="averiabold" horiz-adv-x="1070" >
<font-face units-per-em="2048" ascent="1594" descent="-454" />
<missing-glyph horiz-adv-x="658" />
<glyph horiz-adv-x="0" />
<glyph horiz-adv-x="682" />
<glyph unicode=" "  horiz-adv-x="658" />
<glyph unicode="&#x09;" horiz-adv-x="658" />
<glyph unicode="&#xa0;" horiz-adv-x="658" />
<glyph unicode="!" horiz-adv-x="658" d="M195 1274v44q0 71 32.5 92.5t107.5 21.5h23q65 0 87 -24t22 -91v-57l-1 -12l-4 -95q-1 -12 -1 -24l-3 -37q-2 -25 -2 -37l-20 -250q-19 -238 -19 -249q0 -88 -23 -114.5t-68 -26.5h-11q-41 0 -55 31q-26 59 -26 227l-5 62q-5 63 -5 75l-4 49q-4 50 -4 62l-3 37 q-3 38 -3 50l-2 25q-2 25 -2 37l-2 25q-2 25 -2 36l-2 25l-2 48l-1 12zM206 146v20l4 38q0 34 25.5 55.5t68.5 21.5h17q46 0 87 -29t41 -93q2 -10 2 -16l2 -21v-30l-6 -47q0 -60 -75 -60l-25 -3h-9q-54 0 -90.5 31.5t-36.5 85.5q-3 15 -3 21z" />
<glyph unicode="&#x22;" horiz-adv-x="887" d="M138 1338v35q0 45 23.5 63.5t75.5 18.5h42q12 -2 19 -2q64 0 64 -75v-21l-1 -7l-1 -22l-3 -36l-2 -29q-7 -52 -7 -68q0 -184 -41 -274q-16 -36 -64 -36h-14q-58 0 -58 81q-5 40 -6 54.5t-3 35.5t-3.5 37.5t-3.5 34.5q-5 47 -5 56l-3 30l-1 7l-1 8l-2 29l-1 8zM520 1345 v28q0 45 23.5 63.5t82.5 18.5h28q90 0 90 -70v-36l-1 -7l-8 -102q-4 -30 -4 -38q0 -189 -42 -281q-16 -36 -64 -36h-13q-59 0 -59 81q-4 32 -6 53t-3.5 40t-2.5 31.5t-3 31l-6 55.5q-6 56 -6 74z" />
<glyph unicode="#" horiz-adv-x="1196" d="M115 451q0 57 21.5 80t93 33.5t87.5 37.5q30 50 30 123t-10 84.5t-65.5 23t-64.5 17.5q-27 17 -27 68t24.5 64.5t87.5 25t86.5 34.5t51.5 157t35 144q24 34 106 34q43 0 43 -45q0 -26 -20 -139.5t-20 -123.5q0 -49 115 -49q60 0 74 24q1 1 26 129.5t39 154.5q23 43 88 43 t65 -37q0 -11 -17 -98.5t-17 -132t16 -60.5t68.5 -36.5t52.5 -51.5v-26q0 -40 -40 -66q-16 -10 -78.5 -22.5t-85 -45.5t-22.5 -174q0 -36 53 -46q81 -15 86 -18q30 -17 30 -65.5t-36 -72.5q-10 -7 -76.5 -17.5t-90.5 -35.5t-49.5 -158t-32.5 -147q-22 -43 -103 -43 q-52 0 -52 37q0 25 22.5 149t22.5 140q0 40 -124 40q-57 0 -70 -31q-2 -5 -24 -130.5t-39 -160.5q-24 -51 -89 -51t-65 61l20 98q18 93 18 130.5t-9 54.5t-72 38t-63 58zM466 566l1 -3v-3q0 -7 18 -7h22l5 1l23 1l24 3q25 5 35 5l35 4q5 1 9 1q48 0 48 83q0 1 3 16l11 61 q0 15 13.5 55.5t13.5 48.5v4q0 13 -38 13l-22 2h-32l-5 -1l-28 -3l-38 -5q-50 0 -50 -58q0 -33 -24 -113t-24 -105z" />
<glyph unicode="$" horiz-adv-x="1159" d="M133 216q0 55 23 79t55.5 24t113 -69t149.5 -69q33 0 47 42.5t14 179.5t-31 176q-16 20 -139 96t-168.5 151t-45.5 184t73 199q47 57 118 93q24 12 87 31.5t80.5 34t31 72.5t56.5 58q33 0 57 -24l13 -17l22 -38q23 -34 68 -55q128 -60 165 -94.5t37 -83t-22.5 -73.5 t-52.5 -25t-97.5 51.5t-105 51.5t-50.5 -47.5t-13 -188.5q0 -66 25 -100q25 -35 142 -107q228 -142 228 -324v-33q0 -134 -88 -231q-48 -53 -97 -76.5t-110.5 -42.5t-78.5 -35t-28.5 -87t-61.5 -71q-44 0 -62 48q-26 69 -39 80q-42 36 -126.5 64t-122.5 62q-66 59 -66 114z M362 1041q0 -66 48.5 -124t83.5 -58h3q13 0 13 77v54l-2 23v9l-1 13v23l-1 9v36l1 9v18l1 9v9l1 9v9l1 13v12q0 15 -10 15h-11q-42 0 -84.5 -51t-42.5 -95v-19zM641 172q0 -19 12 -19h8q45 0 91 53.5t46 110.5v39q0 56 -51.5 116.5t-90.5 60.5q-11 0 -11 -107v-125l-1 -15 v-34l-1 -9v-10l-1 -10v-19l-1 -14v-18z" />
<glyph unicode="%" horiz-adv-x="1690" d="M147 1019v59q0 140 91 252q72 89 188 89h22q122 0 203 -93.5t81 -244.5v-24q0 -145 -74 -259q-34 -53 -90.5 -86t-110.5 -33h-41q-107 0 -188 101t-81 239zM332 1018l1 -7v-13q2 -12 2 -19q0 -61 32 -112t68 -51h10q41 0 74 59t33 149v47l-2 20l-2 26q0 64 -34.5 110 t-62.5 46h-19q-28 0 -62 -45.5t-34 -116.5q-2 -12 -2 -19l-2 -27v-47zM371 5q0 5 29 59q221 414 742 1237q67 105 140 105h16q54 0 54 -16v-12q0 -10 -28 -59q-352 -622 -742 -1237q-67 -105 -139 -105t-72 28zM995 302v59q0 145 84 248t208 103h21q107 0 187.5 -93 t80.5 -258v-24q0 -156 -84.5 -259.5t-207.5 -103.5h-10l-11 1q-108 0 -188 92.5t-80 234.5zM1181 322l1 -7v-20q3 -30 3 -33q0 -58 33.5 -108.5t68.5 -50.5h9l5 1q44 0 73 65t29 142v48l-1 7v13q-2 14 -2 20q0 73 -34.5 119t-61.5 46h-20q-28 0 -63 -47t-35 -116l-2 -12 l-3 -54v-13z" />
<glyph unicode="&#x26;" horiz-adv-x="1506" d="M123 365v32q0 163 169 317q94 86 94 124q0 10 -24.5 68t-26.5 63q-29 79 -29 147q0 120 82 200t215 80t220.5 -82.5t87.5 -235.5q0 -29 -21.5 -108.5t-32 -165.5t-10.5 -93q0 -56 32.5 -85.5t80 -29.5t114 52.5t147 52.5t80.5 -60q0 -23 -52.5 -124t-52.5 -172t90 -150.5 t90 -88.5q0 -58 -133 -58q-2 0 -79.5 14t-168.5 14l-154 4q-9 0 -116.5 -25.5t-175.5 -25.5h-61q-139 0 -246 95q-60 53 -89.5 120.5t-29.5 120.5zM360 407q0 -98 78 -168.5t174 -70.5h14q66 0 137 50q32 22 32 38t-146.5 195t-154.5 179h-5q-38 0 -83.5 -58.5t-45.5 -120.5 v-44zM540 1118l1 -5v-9q2 -10 2 -14q0 -44 61 -142q23 -36 39 -36h4q21 0 72.5 60t51.5 129v35q0 49 -30.5 92t-77.5 43h-18q-46 0 -75.5 -41.5t-29.5 -87.5v-24z" />
<glyph unicode="'" horiz-adv-x="534" d="M156 1344v22q0 46 12 58q28 28 83 28h42q48 0 69 -16.5t21 -55.5v-43l-1 -7l-2 -29l-3 -37l-2 -30q-3 -22 -3 -30q0 -180 -43 -283q-17 -41 -68 -41h-14q-56 0 -56 76q-16 128 -16 166l-6 53q-7 52 -7 74z" />
<glyph unicode="(" horiz-adv-x="769" d="M150 556v93q0 132 39 284q80 311 274 518q80 85 141 85t61 -45q0 -27 -87 -165.5t-127 -264.5q-64 -203 -64 -459q0 -408 165 -683q112 -187 112 -201q0 -47 -62 -47t-156 100q-180 193 -260 514q-36 144 -36 271z" />
<glyph unicode=")" horiz-adv-x="769" d="M105 -291q0 21 89 169.5t140 313t51 414.5q0 406 -160 673q-118 197 -118 202q0 53 47 53h17q57 0 151 -100q183 -196 261 -525q32 -138 32 -250v-93q0 -118 -34 -267q-72 -316 -274 -540q-81 -90 -141.5 -90t-60.5 40z" />
<glyph unicode="*" horiz-adv-x="955" d="M166 1192q0 62 71 62q26 0 93 -32.5t78.5 -32.5t11.5 15l-18 148q0 41 22 54t72 13h18q55 0 55 -61q0 -34 -10.5 -85t-10.5 -62.5t14 -11.5q3 0 67 30t87 30q78 0 78 -55q0 -87 -69 -115t-69 -71q0 -2 29.5 -45t29.5 -100q0 -44 -105 -44q-24 0 -50.5 -19t-33.5 -19h-7 q-7 0 -25.5 7t-35.5 7q-34 -12 -43.5 -12t-42.5 15q-15 17 -28 17l-27 -2h-27q-44 0 -54 10t-10 53.5t31.5 75t31.5 63.5q0 14 -61.5 52.5t-61.5 114.5z" />
<glyph unicode="+" horiz-adv-x="1186" d="M148 557v78q0 49 21 59q22 10 169.5 10t154.5 7t7 181.5t12 192.5t85.5 18t81 -19.5t7.5 -194t11.5 -179.5t172.5 -5t161 -34v-57q0 -83 -24 -92t-172.5 -9t-153.5 -7.5t-5 -181.5t-3 -186q-9 -34 -83 -34h-36q-44 0 -50 17.5t-6 192t-12.5 183.5t-150 9t-162.5 6t-25 45 z" />
<glyph unicode="," horiz-adv-x="599" d="M130 -255q0 12 28 45t56.5 77t28.5 100q0 17 -18.5 35.5t-35 51.5t-16.5 112q0 132 141 132h8q79 0 104 -34t25 -106v-26q0 -148 -61.5 -250.5t-138.5 -157.5q-43 -31 -75 -31h-7q-39 0 -39 41v11z" />
<glyph unicode="-" horiz-adv-x="763" d="M88 499v51l1 7q0 81 37 89.5t266 8.5l136 2h94q50 0 50 -34v-47q0 -91 -28 -103.5t-279 -12.5l-71 -3h-15l-86 -4h-15l-23 -1h-23q-44 0 -44 47z" />
<glyph unicode="." horiz-adv-x="593" d="M145 123v30q0 60 31 96.5t85 36.5l15 3l21 1h10q76 0 110 -34t34 -104v-37q0 -122 -109 -122l-6 -1l-5 -1l-21 -1h-16q-70 0 -109.5 29.5t-39.5 103.5z" />
<glyph unicode="/" horiz-adv-x="885" d="M37 -124q0 26 37 121q182 469 339 883t220 566q35 84 101 84l19 -1h18q68 0 68 -26q0 -27 -113 -317t-272 -710t-212 -544q-36 -84 -101 -84l-18 1h-18q-68 1 -68 27z" />
<glyph unicode="0" horiz-adv-x="1171" d="M137 675l1 22q0 303 113 499q57 97 142 152t182 55h36h4q95 0 173 -51q164 -105 219 -349q31 -134 31 -270v-44q0 -162 -36 -297q-70 -266 -239 -364q-75 -44 -165 -44h-37q-189 0 -306.5 185t-117.5 506zM393 666q0 -216 35.5 -327t75 -145.5t68.5 -34.5h20 q73 0 121 111q56 131 56 316l2 29l1 46v93q0 232 -52 353.5t-134 121.5t-136 -120.5t-54 -321.5q-2 -30 -2 -46l-1 -60v-15z" />
<glyph unicode="1" horiz-adv-x="1105" d="M238 1177v13q0 35 65 67q234 117 311 117t93 -71q11 -48 11 -445t12 -462t62 -147t50 -135v-16q0 -37 -51 -68.5t-114 -31.5h-117q-86 0 -156.5 35.5t-70.5 88.5t52 127t67.5 127t15.5 298.5t-35 334.5q-21 54 -108 94t-87 74z" />
<glyph unicode="2" horiz-adv-x="1147" d="M135 100q0 60 71 158t229 266.5t221.5 267t63.5 190.5t-50.5 145.5t-128 53.5t-167.5 -65q-150 -108 -165 -108q-43 0 -58.5 20.5t-15.5 67t32.5 98.5t97.5 96q135 91 294 91h33q80 0 156 -28q152 -56 210 -203q25 -65 25 -151q0 -125 -90 -256q-62 -90 -246 -262.5 t-184 -220.5q0 -43 139 -43q77 0 205 13.5t155 13.5q57 0 57 -81t-36.5 -118.5t-138.5 -37.5h-29l-60 2q-30 1 -61 1l-63 1h-63l-158 3l-31 1q-32 1 -104 1t-98 9q-42 15 -42 75z" />
<glyph unicode="3" horiz-adv-x="1147" d="M117 169q0 36 22.5 62.5t65 26.5t145.5 -48.5t182 -48.5q79 1 147 57t68 162q0 176 -163 225q-28 8 -85 19.5t-63 14.5q-46 23 -46 80q0 43 97 85q194 83 194 252q0 54 -42.5 90.5t-117.5 36.5t-174 -48.5t-119 -48.5q-69 0 -69 59q0 102 99 159q129 74 316.5 74 t279.5 -75.5t92 -204.5t-91 -230t-91 -103q0 -13 74 -57q172 -104 172 -278v-32q0 -98 -44 -182q-125 -242 -474 -242h-3q-158 0 -265 57t-107 138z" />
<glyph unicode="4" horiz-adv-x="1175" d="M116 470q0 75 78 204q180 298 416 622q72 99 158 99h20q77 0 101 -34q12 -17 12 -123l-1 -23q-1 -24 -1 -47l-5 -210q0 -256 15.5 -314t43.5 -89q74 -81 74 -82v-13q0 -88 -34 -130q-63 -78 -63 -104l3 -35v-39q0 -97 -39 -128.5t-161 -31.5h-41q-43 0 -67 45.5 t-24 117.5l7 83q0 11 -19 23q-78 49 -115 58t-140 16.5t-137 22.5q-81 37 -81 112zM304 540q0 -9 63 -9h34l7 1h35q159 0 177.5 24t18.5 271v23l1 8v15l1 7v16l4 91v15l1 22v20q0 11 -5.5 11t-85.5 -129.5t-165.5 -253t-85.5 -132.5z" />
<glyph unicode="5" horiz-adv-x="1149" d="M117 145q0 106 102 106q27 0 128 -49.5t161 -49.5q118 0 186 74q61 101 67 159v3q0 160 -100 232q-78 55 -260 55l-31 -2q-20 -1 -56 -1q-73 0 -101 43.5t-28 118.5t41 329q16 102 43 139t83.5 48t186.5 11t217.5 8.5t125 8.5t64 -12.5t26.5 -53.5q0 -99 -66 -137 q-41 -24 -234 -24t-231 -33q-55 -48 -55 -161q0 -50 17 -61.5t105 -11.5q90 0 198 -34q195 -62 269 -222q38 -82 38 -158v-34q-1 -101 -41 -191q-122 -272 -472 -272q-162 0 -272.5 55.5t-110.5 116.5z" />
<glyph unicode="6" horiz-adv-x="1163" d="M123 623v52q0 137 57 275q110 266 340 367q120 53 225 53h45q69 0 110 -22.5t41 -62t-42.5 -56t-158.5 -34.5q-201 -31 -283 -189q-24 -46 -24 -96q0 -57 68 -57l100 7q90 0 169 -34q158 -69 222 -230q36 -90 36 -170v-49q0 -66 -28 -143q-28 -78 -84 -134 q-108 -110 -260 -110h-48q-100 0 -192 52q-183 103 -252 322q-41 131 -41 259zM412 429q0 -101 51.5 -189.5t120.5 -88.5h27q72 0 116.5 82.5t44.5 196.5l-1 9q0 118 -49.5 198.5t-130.5 80.5h-7q-73 0 -121.5 -59.5t-48.5 -150.5l-2 -18v-61z" />
<glyph unicode="7" horiz-adv-x="1139" d="M124 1193v23q0 71 23 102q45 60 107 60h22l164 -11l174 1q272 0 341 -13.5t69 -78.5t-33 -143.5t-159.5 -343t-208 -503t-84.5 -244.5q-33 -71 -116 -71h-23q-58 0 -82.5 16.5t-24.5 74t217.5 522.5t217.5 500t-29.5 49.5t-154.5 14.5t-220.5 -26.5t-136.5 -26.5 q-63 0 -63 98z" />
<glyph unicode="8" horiz-adv-x="1163" d="M145 339q0 105 36.5 174t106 138.5t69.5 73.5t-29.5 28t-55 48t-55.5 82t-30 142q0 164 118 280q52 50 128.5 81.5t159.5 31.5h46q142 0 244.5 -91.5t102.5 -241.5q0 -147 -122 -273q-52 -54 -52.5 -58.5t37.5 -32.5t69.5 -55.5t68.5 -94t37 -151.5v-45q0 -83 -42 -163 q-125 -241 -420 -241h-2q-178 0 -296.5 99t-118.5 269zM388 382q0 -100 57 -170t138 -70h29q67 0 120 59t53 149l-1 7q0 95 -62 164q-93 103 -184 103h-7q-47 0 -108 -96q-35 -55 -35 -138v-8zM423 1053q0 -74 63.5 -146.5t139.5 -72.5l5 1q40 0 83 64.5t43 133.5v20 q0 86 -48 140t-112 54h-30q-54 0 -99 -50.5t-45 -118.5v-25z" />
<glyph unicode="9" horiz-adv-x="1156" d="M132 962v25q0 168 99 281q50 57 123 91.5t157 34.5h24q210 0 352 -173q72 -89 110.5 -214.5t38.5 -263.5v-25q0 -138 -48 -272q-101 -279 -337 -384q-134 -59 -249 -59h-23q-178 0 -178 93q0 35 52 56q31 13 146 27q193 23 279 152q46 68 46 129.5t-87 61.5l-38 -2h-42 q-79 0 -162 36q-165 71 -229 235q-34 87 -34 171zM384 929q0 -94 49 -178t124 -84h29q69 0 117.5 59.5t48.5 167.5v51q-2 18 -2 26q0 101 -58.5 179t-118.5 78h-28q-66 0 -113.5 -77.5t-47.5 -177.5v-44z" />
<glyph unicode=":" horiz-adv-x="608" d="M151 143v26q3 15 3 24q0 51 34 75t73 24q10 2 15 2l26 2l6 -1q68 0 108 -28.5t40 -109.5v-20q0 -129 -115 -129l-10 -2l-21 -1h-11l-5 1q-70 0 -105 30t-35 83zM153 834v25q0 117 100 117q10 2 14 2l21 2h15q151 0 151 -149v-15q0 -66 -27.5 -98t-92.5 -32h-36 q-15 3 -26 3q-44 0 -80 31t-36 88z" />
<glyph unicode=";" horiz-adv-x="622" d="M147 -229q0 7 26 41t39 54q40 62 40 121q0 17 -22 41.5t-27 33.5q-25 43 -25 110.5t29 103t102 35.5h16q14 -2 23 -2q54 0 81 -30t27 -100v-42q0 -140 -66.5 -244t-136.5 -152q-33 -23 -59 -23h-14q-33 0 -33 43v10zM166 836v24q0 56 29 90t84 34l16 3l21 1h11 q18 -3 32 -3q55 0 84.5 -34t29.5 -88v-36q-2 -10 -2 -15q0 -52 -31.5 -83.5t-85.5 -31.5l-10 -2h-42q-10 2 -15 2q-49 0 -83.5 29.5t-34.5 85.5z" />
<glyph unicode="&#x3c;" horiz-adv-x="1198" d="M133 588.5q0 64.5 65 103.5t196.5 105t150 76t80.5 40q86 42 223.5 119.5t162.5 77.5t25 -58q0 -95 -82 -153q-39 -27 -299.5 -161.5t-260.5 -144.5q0 -4 265 -140t307 -166q69 -48 69 -126t-20 -78q-39 0 -129 51.5t-374 190t-331.5 169t-47.5 95z" />
<glyph unicode="=" horiz-adv-x="1188" d="M115 389v42q0 60 32 65q7 1 461 1l394 2h34q52 0 52 -47v-73q0 -46 -42 -46h-183l-35 1h-327l-12 -1h-116l-46 -1h-170q-42 0 -42 57zM115 767v74q0 42 31 47q40 6 240 6h467q193 0 214.5 -7.5t21.5 -65.5v-21q0 -69 -23 -77t-237 -8h-456q-194 0 -227 5q-31 5 -31 47z " />
<glyph unicode="&#x3e;" horiz-adv-x="1193" d="M157 1046v18q1 44 23 44q30 0 455 -231q49 -27 181.5 -93t185 -98.5t52.5 -100t-64 -104.5q-230 -131 -508.5 -266t-288.5 -135h-13q-22 0 -22 76.5t62.5 120t324.5 175t262 137.5q0 11 -268.5 149t-294.5 155q-87 57 -87 153z" />
<glyph unicode="?" horiz-adv-x="1002" d="M110 1191v16q0 81 100 146.5t241 65.5h41q165 0 276 -98t111 -240v-19q0 -103 -73 -216q-33 -50 -124.5 -138t-106.5 -112t-24.5 -84.5t-21.5 -78.5t-58 -18q-112 0 -112 138q0 76 27 133.5t90.5 128.5t83.5 106q49 84 49 150t-36 104t-94.5 38t-137 -61.5t-129 -61.5 t-76.5 31.5t-26 69.5zM296 119v28l4 27q0 33 27.5 60.5t79.5 27.5l25 3h32q18 -3 26 -3q51 0 83.5 -32.5t32.5 -102.5l-1 -5q0 -124 -110 -124l-26 -3h-32q-15 3 -25 3q-55 0 -85.5 35.5t-30.5 85.5z" />
<glyph unicode="@" horiz-adv-x="1651" d="M135 591q0 149 58.5 290t158.5 243q221 228 564 228q277 0 460 -183q162 -164 162 -388t-106 -371q-106 -148 -278 -148q-44 0 -85 20l-33 22l-29 15q-36 0 -110.5 -32t-137.5 -32q-100 0 -162 69.5t-62 170.5t37 188q70 164 229.5 188t274.5 24q33 0 53 -26t20 -104 l-3 -43l-5 -46q-9 -92 -9 -154.5t32 -87.5l27 -11q69 0 132 94.5t63 248.5q0 77 -37 171t-104.5 153.5t-148 90.5t-200.5 31q-118 0 -224 -46q-236 -103 -326 -354q-41 -116 -41 -248v-6q0 -129 45 -238q90 -221 295 -301q108 -42 220.5 -42t168.5 14t115.5 36.5t92 22.5 t32.5 -28q0 -51 -153.5 -100.5t-285.5 -49.5h-55q-126 0 -256 59q-261 119 -353 400q-36 111 -36 260zM684 478l4 -41q0 -46 23 -75.5t43 -29.5h16q73 0 145.5 118t72.5 213l8 76l-1 7q0 102 -62 102h-17q-77 0 -154.5 -106.5t-77.5 -234.5v-29z" />
<glyph unicode="A" horiz-adv-x="1379" d="M102 159.5q0 65.5 38.5 125t62.5 118.5t116 311t149.5 421.5t69.5 192.5q47 90 149 90q105 0 145 -93q20 -47 176.5 -499t204.5 -527.5t48 -119.5q0 -90 -65 -131q-39 -25 -140.5 -25t-127.5 37q-3 4 -20 129t-57 165t-210 40t-201 -37t-55.5 -160.5t-31.5 -134.5 q-21 -35 -90.5 -35t-104.5 26q-56 41 -56 106.5zM506 564q0 -18 32 -18h5l6 1h5l62 5h64q102 0 102 12v10q0 11 -24 83l-8 30q-23 86 -31 130t-19 84.5t-28.5 116.5t-19.5 76t-12 -46.5t-62 -240.5l-16 -60q-7 -35 -31.5 -108.5t-24.5 -74.5z" />
<glyph unicode="B" horiz-adv-x="1310" d="M172 65q0 27 21 78.5t28.5 87t7.5 133t-5 222.5l-5 124l-3 48l3 74q3 73 3 74l2 49l1 74q0 107 -8 151t-26 97.5t-18 80t35.5 41.5t141.5 15l22 1q23 1 45 1l23 1q23 1 46 1l115 2q145 0 227 -20q173 -44 239 -188q28 -62 28 -146t-37.5 -148t-93.5 -112t-56 -53t36 -24 t72.5 -43t71.5 -68q71 -91 71 -204v-25q0 -174 -131 -282q-131 -109 -371 -109l-47 -2h-139l-22 1q-179 0 -221 10q-56 13 -56 58zM483 427q0 -189 17.5 -218t113.5 -29h32q118 0 185 61t67 166.5t-73 171.5t-207 66h-32q-65 0 -84 -14.5t-19 -69.5v-134zM483 916 q0 -55 13.5 -73t56.5 -18h49q119 0 180.5 61.5t61.5 136.5v38q0 68 -55.5 123.5t-160.5 55.5h-36l-7 -1h-14q-14 -2 -20 -2q-62 0 -62 -58l-1 -7l-1 -6l-2 -40v-21l-1 -21v-98l-1 -22v-48z" />
<glyph unicode="C" horiz-adv-x="1327" d="M103 692v7q0 150 45 279q93 269 316 374q127 60 269 60h31q246 0 343 -42q36 -16 73.5 -71.5t37.5 -107.5q0 -115 -82 -115q-17 0 -77 38t-92 55q-113 59 -207 59q-172 0 -275 -146q-102 -146 -102 -378t105 -372q105 -139 281 -139q85 0 225 63t163 63t48.5 -21 t25.5 -53t-25 -69q-42 -63 -118 -101q-148 -74 -328 -74h-33h-5q-151 0 -267 55q-230 108 -314 366q-38 116 -38 270z" />
<glyph unicode="D" horiz-adv-x="1449" d="M172 57v19q0 8 23.5 60.5t35 107t11.5 191.5l1 25q1 25 1 49l1 25v174l1 49q0 300 -11 381t-37 138.5t-26 78.5q0 44 55.5 54.5t271.5 10.5l45 1h68q182 -1 298 -45q241 -92 339 -354q49 -130 49 -274v-53q0 -147 -55 -289t-145 -230q-183 -177 -476 -177l-45 -2h-178 q-139 0 -183 13t-44 47zM501 287q0 -63 26.5 -84t92.5 -21h25q163 0 266 143q102 143 102 375v34q0 229 -104 367t-272 138l-13 -1q-83 0 -103 -21.5t-20 -104.5v-42l1 -15v-72l1 -14v-73l1 -44v-260l-1 -45v-87l-1 -15v-29l-1 -58v-71z" />
<glyph unicode="E" horiz-adv-x="1212" d="M149 1315q0 47 77 63q148 31 397 31h117l39 -1q207 0 245 -22q61 -35 61 -115t-63 -80q-9 0 -75 12l-88 16q-92 13 -200.5 13t-140.5 -59q-42 -78 -42 -221q0 -59 25 -76t91 -17t124.5 21t75.5 21q73 0 104 -48q20 -31 20 -136q0 -147 -82 -147q-46 0 -108.5 20t-127 20 t-95.5 -23.5t-31 -105.5q0 -174 52 -254q27 -41 161 -41t238 28t127 28q67 0 67 -65q0 -112 -82 -144q-66 -26 -283 -26h-117q-270 0 -400 34q-85 22 -85 93q0 30 25.5 87t39 160.5t13.5 358.5t-11.5 333t-39.5 147t-28 95z" />
<glyph unicode="F" horiz-adv-x="1151" d="M146 159q0 20 31.5 86.5t40 147.5t8.5 333t-10.5 338.5t-20 115.5t-26 67.5t-16.5 59.5q0 46 48 62q103 35 280 35l32 1q124 4 161 4h159q157 0 203 -30.5t46 -131.5q0 -68 -68 -68q-14 0 -81.5 16t-123.5 25.5t-160.5 9.5t-132.5 -56q-43 -86 -43 -241q1 -87 121 -87 q48 0 103 18.5t86 18.5q56 0 89.5 -56t33.5 -130.5t-21 -104.5t-82 -30q-13 0 -58.5 14.5t-126 14.5t-111.5 -38t-31 -144t12.5 -157t29 -100.5t16.5 -81.5q0 -57 -108 -57h-29q-141 0 -196 37.5t-55 108.5z" />
<glyph unicode="G" horiz-adv-x="1457" d="M105 657v44q0 304 188 515q84 95 208.5 147t267.5 52h39q11 0 263 -31q59 -7 99.5 -30t67 -75t26.5 -101.5t-24 -72.5t-48.5 -23t-106.5 48t-150 72.5t-154 24.5q-166 0 -272 -121q-56 -64 -88.5 -166t-32.5 -224q0 -223 96 -364q53 -79 130 -122t159 -43t139.5 49 t57.5 119t-46.5 159t-46.5 100q0 33 68.5 51.5t177.5 18.5q229 0 229 -87q0 -104 -64 -356q-19 -73 -58.5 -110t-223.5 -86t-245 -49h-39q-117 0 -234 45t-206 141t-133 222.5t-44 252.5z" />
<glyph unicode="H" horiz-adv-x="1491" d="M131 1318.5q0 33.5 27.5 59t85.5 25.5h39q137 0 187.5 -22.5t50.5 -67.5q0 -26 -15 -84t-23 -109.5t-8 -211.5q0 -78 66 -98q40 -12 194 -12t201 23t47 126q0 157 -22.5 251.5t-22.5 99.5q0 48 41 70t164 22t160.5 -29.5t37.5 -87.5q0 -16 -23.5 -74t-29 -134t-5.5 -293 v-169l-1 -42q0 -270 35 -352l16 -30q24 -45 24 -59v-33q0 -76 -146 -76t-190 24.5t-44 71.5q0 22 13 80t20.5 117t7.5 186t-43 152.5t-222 25.5t-212.5 -33.5t-33.5 -153.5t22 -233t22 -125q0 -47 -37 -70.5t-152 -23.5t-150 13q-64 24 -64 100q0 28 23 76.5t30 102t7 368.5 t-13 405t-38.5 140.5t-25.5 84z" />
<glyph unicode="I" horiz-adv-x="720" d="M141 81.5q0 38.5 34 105t42.5 127.5t8.5 394.5t-8.5 397.5t-42.5 127t-34 98q0 88 124 88h189q126 0 126 -87q0 -33 -34.5 -97.5t-44.5 -139.5t-10 -387t7.5 -381t44.5 -138.5t37 -100.5q0 -90 -119 -90h-190q-62 0 -96 22.5t-34 61z" />
<glyph unicode="J" horiz-adv-x="968" d="M31 89q0 61 30 92t62.5 31t98.5 -22t107 -22t78 41t61 114q42 129 42 423v75l-1 24q-1 24 -1 103t-17.5 140.5t-50 123t-32.5 112.5t46 72.5t142 21.5h90q65 0 102.5 -34.5t37.5 -76t-20 -111.5t-27 -152t-7 -357t-14.5 -377.5t-66.5 -188.5t-143 -140t-204 -54h-46 q-113 0 -190 50.5t-77 111.5z" />
<glyph unicode="K" horiz-adv-x="1378" d="M177 1282v33q0 102 178 102h38q94 0 125 -20t31 -54q0 -33 -15 -85q-42 -144 -42 -316q0 -85 29 -85q57 0 233 236q99 132 118.5 200.5t38.5 85.5q38 34 116 34q156 0 156 -46q0 -30 -202 -267t-202 -301q0 -36 241 -395q91 -136 170.5 -230t79.5 -119v-21 q0 -35 -138.5 -35t-192.5 41q-11 9 -91 163q-188 364 -285 364q-14 0 -37 -39.5t-23 -126t19.5 -180t19.5 -111.5q0 -110 -179 -110q-96 0 -137 18t-41 68q0 11 21 102t21 163l-13 576l2 163q0 54 -19.5 122t-19.5 70z" />
<glyph unicode="L" horiz-adv-x="1147" d="M134 1339q0 43 45 68q21 12 86 12h24q143 0 194.5 -23t51.5 -89q0 -24 -21 -78.5t-32.5 -107t-11.5 -200.5l-1 -27q-1 -27 -1 -60v-231q0 -305 20 -349q29 -64 151.5 -64t238.5 47t156 47q62 0 62 -84v-49q0 -109 -68 -134q-22 -8 -335 -8l-106 -2h-161q-172 0 -235 29 q-41 19 -41 78q0 22 12.5 56.5t27.5 91.5t15 445t-7 434t-35.5 100.5t-28.5 97.5z" />
<glyph unicode="M" horiz-adv-x="1770" d="M116 138.5q0 30.5 26 104.5t35 143q25 188 25 604q0 89 -6 156l-17 138q0 50 14 68q30 38 115 38t154 -40t107 -102t208 -493l80 -205l21 -32q21 0 157 341q137 341 179 403q86 126 229.5 126t143.5 -68q0 -28 -13.5 -113.5t-13.5 -333t16.5 -388.5t44 -246t27.5 -123.5 t-38 -52t-116 -33.5t-134 32.5t-56 93.5l3 39l9 87q4 77 4 208q0 483 -39 483q-19 0 -168 -387.5t-162 -408.5q-45 -73 -106 -73t-99 83q-15 32 -155.5 403.5t-165.5 371.5q-37 0 -37 -539v-102l2 -94l1 -42q0 -72 -30.5 -108.5t-107.5 -36.5t-107 34t-30 64.5z" />
<glyph unicode="N" horiz-adv-x="1480" d="M113 93q0 15 32 79.5t39.5 118t7.5 356t-3.5 397t-17.5 153.5l-10 36q-17 56 -19 68l-4 33q0 53 89 53q172 0 281 -109q39 -39 300 -420q260 -380 283 -381q9 0 9 315q0 316 -22.5 430t-22.5 117q0 27 29.5 47t105.5 20h40q59 0 94.5 -34.5t35.5 -97.5 q0 -11 -26.5 -103.5t-32.5 -176t-6 -472.5t-5 -426.5t-21.5 -49.5t-56.5 -12q-109 0 -204 108q-72 81 -317.5 449.5t-285.5 368.5q-19 0 -19 -106l1 -45q1 -45 1 -207t24 -307.5t24 -169.5q0 -60 -65 -93q-47 -24 -126 -24t-97 8q-35 16 -35 77z" />
<glyph unicode="O" horiz-adv-x="1505" d="M157 671v24l1 24q0 151 48 287q101 283 313 386q113 55 245 55t236 -49q203 -96 291 -335q54 -148 54 -291v-72q0 -128 -43.5 -271.5t-128 -248t-195 -156.5t-229.5 -52h-21q-254 0 -417 201q-71 88 -112.5 222t-41.5 276zM434 698q0 -353 179 -494q57 -45 119 -45h38 q60 0 114 43q176 138 176 503q0 250 -87 403t-220 153h-13q-62 0 -121 -41.5t-102 -117.5q-83 -147 -83 -369v-35z" />
<glyph unicode="P" horiz-adv-x="1238" d="M142 78v20q0 28 27 113.5t27 194.5l1 23q1 24 1 48l1 24v49l14 374l3 69l2 91q0 92 -4 117t-15.5 64t-11.5 71q0 37 59 51q110 26 372 26l44 2h45h3q277 0 372 -201q34 -72 34 -143v-49q0 -172 -142 -310q-72 -70 -187 -108q-41 -14 -113 -30q-123 -28 -173 -103 q-30 -44 -30 -98t25 -127t25 -99q0 -77 -62 -119q-38 -26 -134 -26h-64q-119 0 -119 76zM491 791q0 -68 76 -68h37q101 0 165.5 71t64.5 174v45q0 101 -63 164t-162 63h-21q-72 0 -83.5 -32t-11.5 -238l-1 -25v-74l-1 -24v-56z" />
<glyph unicode="Q" horiz-adv-x="1501" d="M162 752v59q0 115 40 239q81 254 295 350q95 42 221.5 42t240.5 -55.5t196.5 -161t118 -231.5t35.5 -292q0 -260 -124 -486q-71 -128 -71 -136q0 -59 134 -132.5t134 -112.5v-11q0 -45 -88 -45h-47q-184 0 -426 100t-375.5 222t-208.5 292.5t-75 358.5zM430 684 q0 -192 77 -340q37 -71 97 -116t108 -45h18q28 0 63 38q161 177 194 234q55 95 55 248v68q0 193 -75 337q-37 70 -92 111.5t-115 41.5h-27q-46 0 -103 -31t-99 -96q-101 -155 -101 -378v-72z" />
<glyph unicode="R" horiz-adv-x="1343" d="M177 116v27q0 18 18 65.5t24.5 86.5t6.5 210l9 443q0 239 -24 332l-15 45q-9 27 -9 38q0 37 49 49q33 8 222 8l86 1h59q247 0 361 -88q141 -109 141 -317q0 -166 -146 -292q-61 -53 -61 -96.5t147 -296.5q51 -87 116 -159t65 -117.5t-127.5 -45.5t-180.5 60 q-31 35 -112 200.5t-104 197.5q-60 85 -105.5 85t-69 -43t-23.5 -126t25.5 -169t25.5 -101q0 -108 -136 -108h-28q-103 0 -148 16q-66 23 -66 95zM485 842q0 -48 15 -65t53 -17h36q113 0 185.5 65.5t72.5 161.5v42q0 83 -55.5 144.5t-131.5 61.5q-14 2 -21 2l-37 2 q-84 0 -100 -32q-16 -31 -16 -135v-146l-1 -31v-53z" />
<glyph unicode="S" horiz-adv-x="1158" d="M97 223v30q0 99 86 99q39 0 112.5 -62t138 -92t152.5 -30t152 49.5t64 136t-86 153.5q-47 35 -224 119q-176 84 -244 150q-118 116 -119 274q0 158 121 265q121 106 308 106h36q217 0 317 -48t100 -185q0 -46 -24 -67.5t-51.5 -21.5t-143.5 73.5t-215 73.5t-148 -50 t-49 -122t95 -138q3 -2 204 -104t269 -173q106 -110 106 -279q0 -168 -133 -277q-133 -110 -319 -110h-35q-232 0 -355 57q-50 23 -82.5 70.5t-32.5 102.5z" />
<glyph unicode="T" horiz-adv-x="1244" d="M100 1224q0 158 74 183q27 9 464 9l188 2h104q140 0 164 -16q52 -35 52 -128t-14 -116.5t-45 -23.5t-102.5 33t-123.5 33q-76 0 -95 -83q-15 -65 -15 -351t7.5 -392t34.5 -185t27 -106q0 -54 -59 -77q-23 -9 -126 -9h-27l-27 1q-93 0 -119 15q-42 24 -42 91q0 24 22 78.5 t33 103.5t11 166l2 59v235q0 308 -13 369q-17 82 -94 82q-51 0 -125 -32t-101 -32q-55 0 -55 91z" />
<glyph unicode="U" horiz-adv-x="1426" d="M114 1286.5q0 50.5 49 98.5q27 26 126.5 26t151.5 -21t52 -79q0 -17 -21 -119t-21 -444t54 -448q70 -137 223 -137q181 0 255 146q58 114 58 424t-14 430t-14 168t41 64.5t116.5 16.5t99.5 -21q47 -40 47 -85v-28q0 -31 -27.5 -91.5t-33.5 -120t-6 -303.5t-15.5 -359 t-75.5 -213t-172 -154t-252 -56h-41q-142 0 -252 57q-204 105 -242 366q-16 108 -16 380t-7.5 311.5t-35 90t-27.5 101z" />
<glyph unicode="V" horiz-adv-x="1340" d="M56 1306q0 40 25 68.5t94 28.5q171 0 219.5 -38t48.5 -145q0 -150 215 -744q33 -92 44 -92q34 0 200 543q56 182 69.5 236.5t17 112.5t10.5 73q23 54 167 54q70 0 98.5 -22.5t28.5 -69.5t-59 -132t-100 -190t-150 -413l-91 -247q-79 -214 -91 -239q-38 -83 -130 -83 t-136 81q-17 32 -156 423l-119 337q-39 111 -62.5 171t-83 153.5t-59.5 133.5z" />
<glyph unicode="W" horiz-adv-x="1880" d="M94 1271.5q0 41.5 21 79t71 37.5q105 0 157 -32q27 -17 45 -57t37 -157.5t54 -251.5q105 -404 126 -404q46 0 167 575q42 200 55 225q39 74 135 74t139 -99q27 -62 58.5 -194.5t56.5 -220.5q97 -345 126 -345t168 602q42 184 50 199q38 71 157 71q32 0 52 -25.5t20 -75.5 v-30q0 -24 -43 -134t-143 -475t-128.5 -435t-71 -102t-85 -32t-76.5 37q-76 84 -182 446q-65 222 -97 299l-17 34q-25 0 -114 -295t-129 -390q-57 -133 -127 -133q-55 0 -103 36.5t-66 84.5t-58 195.5t-61.5 222t-60.5 221.5t-86 277.5t-47 172z" />
<glyph unicode="X" horiz-adv-x="1355" d="M118 43q0 4 202 309.5t202 339.5t-127 240.5t-191 295.5t-64 110q0 47 26.5 64t167.5 17h70q102 0 134 -59q9 -16 13 -70.5t35 -124.5q93 -208 120 -208q34 0 130 189q40 80 59 161.5t26 88.5q25 23 121 23l36 -1h37q89 0 89 -57q0 -23 -117.5 -182t-206.5 -312 q-39 -67 -39 -128q0 -15 199 -338.5t199 -337.5q0 -40 -34.5 -52.5t-144.5 -12.5h-36q-137 0 -173 50q-16 23 -23 85t-27 106q-121 269 -157 269l-19 -13q-66 -68 -145 -252q-29 -68 -35.5 -127t-10.5 -70q-20 -48 -97 -48h-109q-110 0 -110 45z" />
<glyph unicode="Y" horiz-adv-x="1307" d="M106 1343q0 36 31 56t117 20h55q136 0 170 -64q2 -5 13 -73.5t56 -173.5q123 -289 147 -289q36 0 149 295q48 126 53.5 147.5t11 62.5t16.5 57q26 38 102 38h27q152 0 152 -53v-18q0 -46 -59 -115q-104 -121 -283 -492q-72 -150 -72 -274.5t9 -176t29.5 -104.5 t20.5 -93.5t-36 -68t-93 -27.5h-137q-132 0 -132 89q0 25 15 70l8 22l9 22q36 108 36 270q0 90 -51.5 199.5t-152 292.5t-156 264t-55.5 117z" />
<glyph unicode="Z" horiz-adv-x="1251" d="M97 101.5q0 57.5 72 173.5q20 32 312 459.5t292 464t-148 36.5t-320 -58q-83 -28 -117.5 -28t-50.5 25t-16 92q0 144 161 144l67 -2l545 2h73q92 0 130.5 -14.5t38.5 -73t-73 -173.5q-20 -32 -308.5 -454t-288.5 -466t165 -44t358 67q77 27 106 27q78 0 78 -80v-32 q0 -115 -99 -146q-42 -13 -441 -13l-299 -1q-154 0 -195.5 18.5t-41.5 76z" />
<glyph unicode="[" horiz-adv-x="753" d="M194 -65v1350q0 186 40 216.5t277 30.5l48 1h23q75 0 75 -39q0 -50 -40 -82q-18 -14 -73.5 -30.5t-78.5 -33t-38 -73t-15 -677.5t17.5 -680.5t81.5 -78.5q98 -30 113 -43q35 -32 35 -85q0 -31 -62 -31h-143q-188 0 -224 35t-36 220z" />
<glyph unicode="\" horiz-adv-x="873" d="M52 1493v13q0 18 77 18t105 -58q41 -85 190 -489q150 -405 278 -735t128 -345v-14q0 -20 -86 -20h-17q-56 0 -93 90q-222 532 -542 1419q-40 111 -40 121z" />
<glyph unicode="]" horiz-adv-x="753" d="M102 -279q0 69 103.5 100t122 93t18.5 690.5t-20 695.5q-16 54 -119.5 87.5t-103.5 102.5q0 41 62 41h112q128 0 185 -13.5t74 -64t17 -678.5v-259q0 -698 -18 -751.5t-81 -68.5t-178 -15l-45 -2h-66q-63 0 -63 24v18z" />
<glyph unicode="^" horiz-adv-x="1147" d="M115 707q0 71 339 629q47 77 108 77h16q70 0 112 -69q341 -562 341 -643q0 -15 -63 -15h-33q-69 0 -109.5 53.5t-140.5 253.5t-115 200q-3 0 -115.5 -210.5t-135.5 -239.5q-45 -56 -149 -56q-55 0 -55 20z" />
<glyph unicode="_" horiz-adv-x="1061" d="M-1 -181q0 30 79 30h935q49 0 49 -35v-65q0 -30 -67 -30h-922q-74 0 -74 46v54z" />
<glyph unicode="`" horiz-adv-x="802" d="M143 1455q0 38 100 38h12q103 0 151 -62q159 -204 159 -260v-4q0 -23 -53 -23h-11l-6 1q-69 0 -132 63q-220 220 -220 247z" />
<glyph unicode="a" d="M115 240v24q0 231 371 339q78 23 101 35q60 33 60 91t-54 97q-33 24 -94.5 24t-143.5 -61.5t-136 -61.5t-74.5 25.5t-20.5 60.5t23.5 64.5t101.5 67.5q127 62 294 62t262 -95q76 -76 76 -243l-3 -71l-3 -46q-4 -92 -4 -114l-3 -89q0 -83 33.5 -165.5t33.5 -108.5t-42 -48 t-106.5 -22t-104.5 32t-49.5 32t-99 -40t-161.5 -40h-21q-95 0 -165.5 75.5t-70.5 175.5zM342 257q3 -15 3 -30.5t25.5 -41t65.5 -25.5h5q77 0 133 56t56 120q2 10 2 16l2 10l5 66v20q0 28 -24 28l-8 2q-15 -3 -24 -3q-90 0 -165.5 -65t-75.5 -131v-22z" />
<glyph unicode="b" horiz-adv-x="1160" d="M116 1386q0 40 40.5 65t159.5 25q66 0 80 -44q8 -26 8 -219t3 -207q9 -39 79 -39q1 0 64.5 12t98.5 12q172 0 279 -144q108 -144 108 -368v-26q0 -213 -110 -339q-110 -125 -257 -125q-60 0 -136 27.5t-116 27.5l-13 -3l-30 -10q-31 -9 -51 -9q-98 0 -121 64 q-7 19 -7 201t-13 482t-20 374t-26.5 138.5t-19.5 104.5zM436 460l1 -9l1 -30v-19q2 -18 2 -28q0 -102 39 -163t110 -61h7q80 0 132.5 98.5t52.5 235.5v43q0 115 -45 211.5t-122 96.5h-14l-7 -1q-65 0 -108.5 -62.5t-43.5 -163.5q-3 -28 -3 -39l-2 -59v-50z" />
<glyph unicode="c" horiz-adv-x="1004" d="M87 463v24q0 232 134 374q134 143 357 143h23q308 0 308 -163q0 -36 -27 -68t-65 -32t-114.5 50t-139.5 50q-97 0 -160.5 -84t-63.5 -243.5t72.5 -245t186.5 -85.5q55 0 131.5 32t120.5 32q69 0 69 -63q0 -74 -130 -139q-96 -48 -211 -48h-47h-5q-83 0 -165 33 q-161 64 -231 226q-43 98 -43 207z" />
<glyph unicode="d" horiz-adv-x="1184" d="M131 433v55q0 100 42 214t112.5 186.5t138 95.5t165 23t134.5 35q18 17 18 88t-23 146.5t-23 99.5q0 87 150 87h47q92 0 106 -62q11 -48 11 -297l-24 -703q0 -155 14.5 -225.5t14.5 -78.5q0 -48 -43 -65t-107.5 -17t-114 24t-52.5 24l-84 -44q-61 -32 -126 -32h-22 q-69 0 -137 30.5t-105 81.5q-92 127 -92 334zM378 474q0 -128 48 -218.5t125 -90.5h23q68 0 113 70t45 176q3 27 3 29l2 49v80l-1 10v19q-2 20 -2 29q0 96 -41.5 165.5t-116.5 69.5h-22q-65 0 -119 -84t-54 -206l-3 -32v-66z" />
<glyph unicode="e" horiz-adv-x="1057" d="M94 445v23q0 213 130 368q71 84 171.5 129t199.5 45h22q138 0 232.5 -94.5t94.5 -252.5q0 -97 -59 -129q-36 -20 -229 -37.5t-228 -27.5q-84 -24 -84 -99.5t67.5 -134t178.5 -58.5q49 0 151.5 40.5t137.5 40.5q69 0 69 -53q0 -86 -115.5 -147t-250.5 -61h-47 q-85 0 -168 32q-170 65 -237 237q-36 92 -36 179zM354 649q0 -20 32 -20h33l5 1l92 6q190 0 190 51v9q-4 20 -4 32q0 49 -47.5 83t-87.5 34h-32q-61 0 -121 -60t-60 -122v-14z" />
<glyph unicode="f" horiz-adv-x="762" d="M104 889v16q0 36 45 85t60 97q69 224 114.5 274t116 78t139.5 28h23q91 0 154 -35q41 -23 41 -68.5t-27.5 -70.5t-67.5 -25l-114 21q-60 0 -90 -40.5t-30 -106.5t27 -101.5t86 -77t59 -83.5t-61 -72.5t-82.5 -86.5t-21.5 -235.5t6 -221.5t19 -98.5t13 -73.5 q0 -56 -35.5 -74.5t-139.5 -18.5h-46q-50 0 -88 41.5t-38 83.5t16.5 98.5t23.5 104.5t7 191t-16.5 201.5t-54.5 95t-38 74.5z" />
<glyph unicode="g" horiz-adv-x="1151" d="M142 571v32q0 99 31.5 194.5t75.5 148.5q96 116 272 116q54 0 134.5 -30.5t87.5 -30.5t34.5 22t80 22t88 -22.5t35.5 -65.5v-28q0 -71 -17.5 -201t-17.5 -266.5t12.5 -253t12.5 -204.5q0 -175 -124 -287t-312 -112q-145 0 -272 62q-95 46 -95 119q0 26 26 48.5t61.5 22.5 t128 -32t180 -32t144.5 70t57 204q0 21 -14 21t-30 -8l-18 -10q-23 -13 -61 -28.5t-116 -15.5q-164 0 -268 138q-53 69 -84.5 183t-31.5 224zM380 510q0 -100 42.5 -184.5t110.5 -84.5h27q79 0 124.5 91.5t45.5 206.5v58q0 129 -42.5 198t-111.5 69h-14l-7 -1 q-76 0 -125.5 -92t-49.5 -202v-59z" />
<glyph unicode="h" horiz-adv-x="1188" d="M137 1368q0 70 146 70h30q80 0 98.5 -39.5t18.5 -207t7.5 -195.5t33 -28t103.5 23t140.5 23t129.5 -38.5t111 -112.5t43.5 -313.5t20.5 -328.5q3 -11 15 -49t12 -59q0 -62 -30.5 -85.5t-114 -23.5t-123.5 21.5t-40 78.5q0 9 3 39t4.5 78.5t7 169.5t5.5 223t-28 144 t-83.5 42t-103.5 -32t-75.5 -99.5t-27.5 -292.5q0 -77 17.5 -178.5t17.5 -120t-32 -47.5t-89 -29h-31q-108 0 -140 20t-32 68q0 1 15 79q27 140 27 351.5t-9 331.5t-9 168l-3 119q0 94 -17.5 157t-17.5 73z" />
<glyph unicode="i" horiz-adv-x="610" d="M118 925v12q0 38 41 51.5t149 13.5l26 2l39 1q39 0 51 -44q4 -15 4 -209v-272l2 -121q0 -53 28.5 -147t28.5 -123.5t-27.5 -59t-73.5 -29.5h-158q-63 0 -85.5 22.5t-22.5 60t24 96t30.5 118.5t6.5 225.5t-5 214t-31.5 110t-26.5 78.5zM153 1290v19q0 71 38 98.5t97 27.5 h35q56 0 91.5 -25.5t35.5 -94.5v-14l-1 -5l-2 -23q0 -46 -36.5 -72t-95.5 -26h-30q-132 0 -132 115z" />
<glyph unicode="j" horiz-adv-x="622" d="M-43 -324q0 49 47 87q20 16 86 30.5t93 67t27 384.5t-8 403.5t-34 159t-26 125t36 50.5q57 21 171 21h17q63 0 80 -77q12 -53 12 -341v-316q0 -267 -14.5 -360t-53.5 -160t-118.5 -112t-156.5 -45h-35q-123 0 -123 83zM180 1286v34l4 27q0 44 39.5 68.5t97.5 24.5h26 q15 -3 39.5 -3t56 -22.5t31.5 -66.5q4 -16 4 -23v-33l-4 -28q0 -36 -31 -62.5t-71 -26.5q-15 -3 -20 -3l-26 -2h-15q-131 0 -131 116z" />
<glyph unicode="k" horiz-adv-x="1136" d="M110 1374v26q0 36 41.5 49.5t127.5 13.5h33q55 0 76 -22t21 -108l-1 -33q-1 -34 -1 -84v-117q0 -458 44 -458q36 0 142 136q36 46 65.5 94t63.5 69t153 21t119 -44q0 -20 -135.5 -146.5t-135.5 -180.5q0 -72 184.5 -310.5t184.5 -246.5q0 -29 -79 -29h-34q-156 0 -209 44 q-29 24 -61.5 91.5t-64.5 118.5q-107 170 -143 170q-42 0 -42 -89q0 -38 11 -98.5t11 -66.5q0 -78 -42.5 -100t-141 -22t-127.5 16t-29 83l2 23l5 47l4 54q11 118 11 440.5t-5 424.5t-26.5 165t-21.5 69z" />
<glyph unicode="l" horiz-adv-x="631" d="M121 1385v15q0 38 44.5 53t187.5 15q63 0 71 -67q2 -17 2 -247v-319l1 -40v-39l2 -59q4 -80 4 -154.5t19 -179t43.5 -173t24.5 -80.5v-16q0 -60 -42 -84q-25 -14 -96 -14h-89q-80 0 -114 23.5t-34 88.5l20 135q2 27 4.5 68.5t3.5 53.5l3 56q5 63 5 365t-5.5 366 t-20.5 117l-20 58q-14 41 -14 58z" />
<glyph unicode="m" horiz-adv-x="1719" d="M119 130q0 47 16.5 99t21.5 79t5 135t-1 150l-2 84v82l-1 75q0 84 11 101q21 33 91 33q94 0 170 -56q30 -22 46.5 -21t87 26.5t147.5 25.5t169.5 -45.5t99.5 -45.5t61.5 36.5t63.5 41.5q93 55 173.5 55t142.5 -39.5t101.5 -122.5t39.5 -361q0 -111 22 -207t22 -104 q0 -142 -167 -142q-74 0 -94 22.5t-20 74.5l2 67l-1 39q-2 51 -2 77l-3 123l1 129q0 250 -131 250q-98 0 -133 -82q-41 -97 -41 -394l18 -144q0 -82 -61 -106q-36 -14 -140 -14t-127 22.5t-23 48.5t9 99t9 135q0 272 -34 374q-24 73 -91 73q-89 0 -143 -104 q-33 -63 -33 -295l6 -266q0 -74 -33 -103t-81 -29q-174 0 -174 124z" />
<glyph unicode="n" horiz-adv-x="1189" d="M104 105q0 47 21 99q38 95 38 404q0 120 -14.5 197t-14.5 96q0 46 42.5 60t123 14t112.5 -28l12 -15q24 -37 45 -37t62 22.5t93 42.5t130.5 20t145.5 -42t97 -128q17 -47 26.5 -222.5t20 -241t30 -117.5t19.5 -100t-34.5 -71.5t-175.5 -23.5q-58 0 -83 22t-25 86l3 21 q4 30 4 157q0 286 -38.5 393.5t-135.5 107.5q-55 0 -98 -29.5t-63 -75.5q-38 -87 -38 -331q0 -53 13.5 -151.5t13.5 -99.5q0 -113 -199 -113h-27q-66 0 -86 19t-20 65z" />
<glyph unicode="o" horiz-adv-x="1155" d="M125 455v35l1 18q0 97 36 200q76 214 261 295q81 36 163 36h48q84 0 159 -37.5t129 -100t84 -152.5t30 -179v-36q0 -232 -143 -397q-64 -73 -152.5 -112.5t-183.5 -39.5h-17q-184 0 -298 132q-62 72 -89.5 163.5t-27.5 174.5zM382 493q0 -151 58.5 -248t136.5 -97h8l8 1 q72 0 124 97.5t52 240.5v44q0 144 -54 245t-129 101h-24q-68 0 -124 -93t-56 -247v-44z" />
<glyph unicode="p" horiz-adv-x="1170" d="M125 -307q0 48 13.5 90t21.5 78t22 202.5t14 313.5l4 100l1 49v49q0 207 -19.5 277.5t-19.5 80.5q0 74 159 74q59 0 97.5 -26t47 -26t80.5 37t131 37h22q241 0 318 -249q29 -94 29 -220q0 -240 -142 -400q-118 -133 -306 -133q-90 0 -149 -41q-31 -22 -31 -61.5 t28.5 -114.5t28.5 -100q0 -106 -135 -106h-23q-121 0 -156.5 20.5t-35.5 68.5zM443 446q0 -268 153 -268h15q80 0 129 98.5t49 213.5v64q-2 20 -2 31q0 100 -58 194q-42 69 -105 69h-21q-69 0 -120 -79q-35 -54 -35 -150l-1 -10l-1 -9l-3 -67v-87z" />
<glyph unicode="q" horiz-adv-x="1175" d="M132 532v27q0 308 221 433q74 42 154 42h22q47 0 131 -29.5t94 -29.5t46 15.5t77 15.5q88 0 111 -80q3 -11 3 -284l-1 -23v-48l2 -97l6 -194l11 -232q0 -102 11 -148t31 -95.5t20 -74.5v-20q0 -65 -46.5 -90.5t-174.5 -25.5h-21q-41 0 -73 23.5t-32 59t20 109.5t20 145 q0 96 -167 96l-66 -3q-168 0 -283.5 143.5t-115.5 364.5zM378 496q0 -125 52 -222.5t119 -97.5h28q80 0 118.5 82.5t38.5 192.5q2 18 2 29l2 40v60q0 291 -159 291h-7l-8 -1q-69 0 -126.5 -89.5t-57.5 -209.5l-2 -21v-54z" />
<glyph unicode="r" horiz-adv-x="853" d="M120 76.5q0 41.5 18.5 89.5t24.5 103t6 214t-4.5 214.5t-21.5 121t-17 83.5q0 41 38.5 60t139 19t121.5 -24q7 -7 19 -34.5t23 -27.5t80 48t127 48h15q56 0 83 -32.5t27 -85t-32.5 -83.5t-77.5 -31l-101 12q-85 0 -132 -95q-38 -76 -38 -258q0 -85 27 -178t27 -133 q0 -67 -55 -87.5t-150.5 -20.5t-121 18t-25.5 59.5z" />
<glyph unicode="s" horiz-adv-x="936" d="M86 174q0 90 68 90q43 0 137.5 -62t169 -62t115 32t40.5 85.5t-73 98.5q-15 10 -153.5 70.5t-191.5 110.5q-89 84 -89 200t91.5 197.5t224.5 81.5h53q189 0 260 -34.5t71 -122.5t-74 -88q-35 0 -117.5 47.5t-145.5 47.5t-100.5 -26t-37.5 -72.5t60 -84.5q22 -14 167 -78 t198 -114q88 -83 88 -209.5t-101 -208.5t-260 -82h-26q-223 0 -298.5 46.5t-75.5 136.5z" />
<glyph unicode="t" horiz-adv-x="790" d="M75 912v17q0 39 43 56q65 26 76.5 46.5t33.5 104.5t49.5 115t76.5 31h16q50 0 72 -40q5 -10 23.5 -79.5t46 -101t98.5 -51.5t71 -74q0 -45 -37 -74q-11 -8 -71.5 -26.5t-81.5 -57.5q-31 -58 -31 -265t30 -257t103 -63t91.5 -30t18.5 -59t-39 -65q-70 -42 -165 -42h-20 q-167 0 -226 131q-37 83 -37 339.5t-17.5 302t-59.5 68.5q-64 34 -64 74z" />
<glyph unicode="u" horiz-adv-x="1175" d="M94 911v22q0 60 99 60q146 0 175 -34.5t29 -227.5l3 -142q0 -246 35.5 -332t136.5 -86q53 0 96.5 33t62.5 75q38 86 38 342l-32 247q0 66 44 94.5t182 28.5q46 0 57.5 -32.5t11.5 -128t-2 -121.5l-2 -26q-13 -133 -13 -234t12 -168l16 -71q12 -54 12 -67v-22 q0 -40 -58.5 -66.5t-158.5 -26.5q-30 0 -67.5 25t-44 25t-90.5 -37.5t-137 -37.5h-26q-78 0 -148.5 36.5t-112.5 107.5q-59 98 -59 359q0 212 -39 336q-20 64 -20 69z" />
<glyph unicode="v" horiz-adv-x="1068" d="M45 917q0 82 82 82h45q164 0 202 -60q14 -22 20 -98.5t45 -193.5q108 -323 124 -323q29 0 130 325q42 132 53.5 211.5t22.5 96.5q26 41 164 41q91 0 91 -60v-16q0 -27 -89 -173q-21 -35 -147 -342l-142 -347q-33 -56 -99 -56h-21q-80 0 -118 71q-9 16 -128 325 t-177 394.5t-58 122.5z" />
<glyph unicode="w" horiz-adv-x="1555" d="M64 918q0 79 127 79t168 -87q15 -33 26 -111t29 -152q65 -265 97 -265q38 0 91 217q57 286 75 318q35 61 143 61q71 0 105 -69q13 -26 78 -279t100 -253q29 0 101 275q14 53 35 164t30 126q31 53 128 53q97 -1 97 -81q0 -65 -43.5 -143t-80 -187.5t-49.5 -147.5l-12 -38 q-6 -19 -25 -76l-61 -182q-22 -52 -61 -83t-76 -31q-68 0 -117 83q-22 38 -102 267t-93 229t-80.5 -205.5t-104.5 -278.5q-49 -97 -107 -97q-92 0 -146 102q-16 30 -85.5 257t-96.5 289q-90 208 -90 246z" />
<glyph unicode="x" horiz-adv-x="1102" d="M91 24q0 27 155 227.5t155 241.5q0 26 -145 234.5t-145 228.5q0 41 49.5 49t154.5 8t138 -37q16 -17 23.5 -54.5t16.5 -61.5q54 -144 87 -144t96 124q18 36 32.5 88.5t36 67.5t128 15t106.5 -41q0 -17 -139.5 -194.5t-139.5 -226.5q0 -31 154 -252.5t154 -239.5 q0 -42 -40 -50.5t-192 -8.5q-91 0 -122 46q-11 16 -20.5 62.5t-24.5 79.5q-65 143 -93 143t-98 -132q-28 -53 -41 -105t-16 -57q-26 -38 -103 -38h-81q-86 0 -86 27z" />
<glyph unicode="y" horiz-adv-x="1079" d="M96 937.5q0 40.5 36 56.5t117 16t119 -21t49.5 -50t16 -97t65.5 -262t75 -194q25 0 112 283q25 81 45 193t20 113q19 34 127.5 34t108.5 -57v-20q0 -9 -89 -207q-9 -19 -164 -437.5t-177 -463.5q-110 -221 -253 -221h-26q-69 0 -106.5 27.5t-37.5 67.5t50 76q15 11 73 31 t92 60q66 79 66 195q0 69 -151 457q-51 131 -109.5 255.5t-58.5 165z" />
<glyph unicode="z" horiz-adv-x="1009" d="M83 57v23q0 70 242 385.5t242 347.5q-1 32 -95 32t-187.5 -31t-127 -31t-45.5 26q-11 25 -11 75v8q0 117 102 117h2h23l75 -3q75 -3 104 -3h189q240 0 263 -6q41 -11 41 -64.5t-41.5 -122.5t-236.5 -322.5t-195 -286.5t85.5 -33t142 13t116 31t95.5 18q65 0 65 -77v-25 q0 -59 -21 -83q-38 -42 -108 -42h-25l-24 1l-50 1l-26 1h-242q-258 0 -292 5q-60 9 -60 46z" />
<glyph unicode="{" horiz-adv-x="801" d="M107 596q0 58 52 87q81 45 106 92t25 184l-6 104q-3 52 -3 132q0 246 206 321q72 26 165 26q45 0 45 -23v-17q0 -47 -79.5 -116.5t-89.5 -87.5q-30 -53 -30 -189l6 -179q0 -130 -31.5 -183.5t-57.5 -75t-55 -39t-29 -21.5q0 -9 24 -23q82 -48 115.5 -117.5t33.5 -227.5 l-1 -25q-4 -90 -4 -174t32 -139q10 -18 87.5 -85t77.5 -118q0 -36 -50 -36h-24q-90 0 -160 32.5t-111 85.5q-70 90 -70 285l9 235q0 103 -40 161q-21 30 -82 63.5t-61 67.5z" />
<glyph unicode="|" horiz-adv-x="719" d="M266 1435q0 62 9.5 77t43.5 15h58q54 0 64.5 -16t10.5 -73v-630l-1 -21v-631l1 -84v-377q0 -71 -52 -71h-57q-69 0 -74 48q-2 20 -2 566v1113z" />
<glyph unicode="}" horiz-adv-x="800" d="M108 1504q0 37 46 37h23q151 0 245 -94t94 -278l-10 -261q0 -105 30.5 -149t77.5 -68q73 -37 73 -80.5t-68 -88.5t-90.5 -90.5t-22.5 -183.5l5 -103q3 -78 3 -139q0 -149 -95.5 -244.5t-243.5 -95.5h-22q-44 0 -44 37.5t80.5 118t85.5 89.5q30 56 30 213l-1 26l-3 51 l-1 77q0 131 30 185.5t67 85.5l75 63q0 1 -32 22.5t-42 29.5q-46 39 -72 97t-26 199l4 102q2 51 2 118t-24.5 110t-99 101.5t-74.5 112.5z" />
<glyph unicode="~" horiz-adv-x="1187" d="M101 561q0 76 87.5 159t177.5 83h38q66 0 212 -76t197 -76t108.5 68.5t98.5 68.5q65 0 65 -62v-23q0 -80 -105 -168q-76 -64 -159 -64h-25q-77 0 -218 76.5t-198 76.5t-115.5 -69.5t-97.5 -69.5q-66 0 -66 76z" />
<glyph unicode="&#xa1;" horiz-adv-x="682" d="M190 966v14q0 111 91 111q10 2 15 2l20 2h38l31 -4q36 0 71.5 -25.5t35.5 -77.5l3 -24v-23l-4 -31q0 -23 -19 -49.5t-68 -26.5q-10 -2 -15 -2l-20 -2h-38l-31 4q-50 0 -80 35t-30 97zM210 -156l1 12l3 70l2 24q8 96 8 121l16 200q15 187 15 251q0 152 78 153h22 q41 0 56 -40q21 -57 21 -205l4 -50q4 -50 4 -62l10 -147l2 -24q5 -65 6.5 -94t3 -53.5t3 -48.5t1.5 -36l2 -23l2 -47l1 -11l1 -45v-21q0 -55 -26 -77t-95 -22h-34q-64 0 -85.5 19.5t-21.5 76.5v79z" />
<glyph unicode="&#xa2;" horiz-adv-x="1128" d="M177 546v54q0 88 33.5 181t83 150t142.5 96q153 63 169 74.5t63 99.5q28 53 76 53q15 0 45 -57.5t91.5 -131t61.5 -119t-28 -67t-59 -21.5l-121 21q-42 0 -57 -51q-50 -171 -50 -412q0 -57 25.5 -87t56.5 -30t90 15.5t82 15.5q53 0 53 -61.5t-125 -129.5 q-81 -44 -120 -102q-73 -110 -100 -110h-11q-26 0 -41.5 58t-42 84.5t-124.5 108t-127 126.5q-66 102 -66 242zM409 595l1 -8l2 -40q0 -104 56 -181q33 -45 44 -45h13q20 0 20 40l3 35l5 71l6 72l2 29q4 28 5.5 46t4 42t4.5 43q5 47 5 55l18 133v14q0 39 -18 39h-5 q-58 0 -110.5 -90t-52.5 -181l-2 -16l-1 -33v-25z" />
<glyph unicode="&#xa3;" horiz-adv-x="1164" d="M129 92q0 70 86 170t86 203t-61 139q-83 49 -83 120q0 16 34.5 46.5t45 52.5t40.5 179q30 156 94 230q133 152 381 153q116 0 187 -38.5t71 -113.5q0 -30 -30 -55.5t-61 -25.5t-97 27t-110 27q-87 0 -141 -77.5t-54 -202.5q0 -68 28 -98.5t102.5 -51.5t94.5 -36t20 -68 q0 -40 -74 -66q-110 -38 -132 -71q-80 -119 -80 -253q0 -43 42 -61.5t129.5 -18.5t194.5 21t142 21t53.5 -33.5t18.5 -90t-56 -88.5t-140 -32h-63q-68 0 -217.5 11t-300 11t-150.5 70z" />
<glyph unicode="&#xa4;" horiz-adv-x="1175" d="M164 279.5q0 20.5 55.5 82t55.5 84.5q0 2 -27 91.5t-27 170.5t27 146.5t27 75.5q0 36 -55.5 90t-55.5 69v15q0 13 31 46.5t48.5 33.5t66 -48.5t75.5 -48.5q7 0 70.5 19.5t124.5 19.5t123 -20t64 -20q34 0 89.5 47.5t71 47.5t55.5 -40t40 -60t-54.5 -80t-54.5 -83.5 t14 -63t26 -82t12 -121.5t-27.5 -142.5t-27.5 -86.5t56 -81t56 -69v-15q0 -14 -30 -46t-49 -32t-68 49t-71 49t-60 -13.5t-60.5 -19.5t-80.5 -6t-118.5 19t-66.5 19q-33 0 -88.5 -47.5t-72 -47.5t-55.5 39t-39 59.5zM381 660q0 -95 59 -173.5t148 -78.5h15q79 0 131 64 q72 88 72 185v45q0 95 -69 187q-50 66 -131 66h-21q-84 0 -144 -80.5t-60 -168.5v-46z" />
<glyph unicode="&#xa5;" horiz-adv-x="1190" d="M144 1293q0 34 46.5 63t117.5 29h33q91 0 114 -53q6 -13 9 -63t49 -178q98 -276 129 -276q22 0 119 266q33 91 48 164.5t20 83.5q28 52 103 52q106 0 106 -80q0 -25 -86.5 -185.5t-86.5 -249.5q0 -36 25 -90t25 -63q0 -41 -63.5 -83.5t-63.5 -89.5q0 -26 63.5 -58 t63.5 -54q0 -16 -75.5 -85t-75.5 -124q0 -8 7 -41.5t7 -84t-63 -79.5q-35 -16 -135.5 -16t-126.5 15q-46 26 -46 85l9 99q0 54 -51 112q-89 101 -89 105q0 19 63.5 54t63.5 57q0 33 -63 84.5t-63 74.5q0 5 24 53t24 112t-90.5 237t-90.5 207z" />
<glyph unicode="&#xa6;" horiz-adv-x="752" d="M279 320v27q0 55 6.5 67t46.5 12h73q44 0 48 -29q1 -8 1 -206v-284l1 -27v-46l1 -27v-28q0 -70 -45 -70h-80q-44 0 -47.5 25.5t-3.5 211.5v346zM279 810v82l1 10v382l-1 36v91q2 16 2 25q0 25 85 25h8q72 0 77 -25q3 -14 3 -210v-369l1 -27q0 -67 -10.5 -76.5t-68.5 -9.5 h-32q-47 0 -56 11t-9 55z" />
<glyph unicode="&#xa7;" horiz-adv-x="1105" d="M188 -81q0 44 20.5 71t59 27t112 -52t142.5 -52t115 35.5t46 96.5t-42.5 106t-177.5 134t-186 153q-85 106 -85 254q0 74 45.5 146t45.5 81.5t-30.5 83t-30.5 126.5q0 133 94.5 217.5t244.5 84.5t250.5 -41t100.5 -99v-24q0 -20 -22.5 -47t-59 -27t-109 47t-134 47 t-107 -33.5t-45.5 -91t63 -113.5q21 -19 76 -55l57 -35q131 -79 203.5 -174t72.5 -230q0 -73 -41 -158.5t-41 -97.5t19 -51.5t32 -72.5t13 -91q0 -131 -97.5 -220t-254.5 -89h-33q-114 0 -215 44t-101 100zM356 725q0 -83 85 -176q22 -25 199 -162q42 -33 60.5 -33t41 32.5 t22.5 74.5v25q0 72 -82 147q-220 200 -275 200q-11 0 -31 -28.5t-20 -72.5v-7z" />
<glyph unicode="&#xa8;" horiz-adv-x="861" d="M126 1309v18l2 18l3 21q0 36 29 60t79 24h21l27 -4q26 0 48.5 -22.5t22.5 -78.5v-27l-4 -34q0 -35 -24.5 -59.5t-56.5 -24.5q-8 -2 -12 -2l-16 -2h-24q-12 3 -19 3q-71 0 -71 72q-3 12 -3 17zM532 1299v31q5 20 5 40t23 47.5t63 27.5l29 4h16q92 0 92 -66l4 -20l2 -29v-9 l-4 -35q0 -37 -26 -63t-62 -26q-8 -2 -12 -2l-17 -2h-16l-4 1h-8q-8 2 -11 2q-71 0 -71 74z" />
<glyph unicode="&#xa9;" horiz-adv-x="1575" d="M171 675v23q0 136 47 264.5t132.5 223t203.5 153.5t243 59h40q104 0 218 -57q219 -109 303 -358q44 -129 44 -267v-24q0 -284 -161 -483q-85 -106 -202 -161t-238 -55h-20q-112 0 -229 53.5t-203 149t-132 221t-46 258.5zM300 657q0 -105 40 -211q82 -213 253 -300 q93 -48 186 -48h33q95 0 188.5 50t160.5 136.5t100.5 193t33.5 198.5v39q0 136 -45 242q-93 220 -278 302q-78 35 -172 35q-200 0 -346 -163q-69 -78 -111.5 -189.5t-42.5 -226.5v-58zM431 671v20q0 183 117 310q44 48 116.5 78.5t143.5 30.5h19q166 0 214 -39t48 -120 q0 -40 -52 -40q-15 0 -81.5 41.5t-132.5 41.5q-93 0 -150 -85.5t-57 -214.5t57 -209t169 -80q53 0 111.5 31.5t101 31.5t42.5 -27q0 -68 -82.5 -114t-204.5 -46q-169 0 -274 110t-105 280z" />
<glyph unicode="&#xaa;" horiz-adv-x="783" d="M115 1257v10q0 42 95 79.5t207 37.5q223 0 223 -213q0 -10 -2 -31l-3 -31q-5 -75 -5 -76l-3 -45q-1 -15 -1 -54.5t23 -81t23 -44.5v-13q0 -63 -130 -63q-27 0 -47.5 22t-31.5 22t-71 -25t-97 -25h-27q-58 0 -104 50t-47 124q0 147 219 219q127 42 127 78t-26.5 59.5 t-70 23.5t-96.5 -33.5t-104 -33.5t-51 44zM273 896q0 -47 38 -47q6 -2 8 -2l13 -1h3l4 1l23 3q3 1 16.5 1t44 30.5t30.5 49.5q7 21 7 32l3 20v6l2 14v9l1 13q0 25 -19 25h-3l-48 -9q-49 0 -84.5 -44.5t-35.5 -61.5l-3 -16v-23z" />
<glyph unicode="&#xab;" horiz-adv-x="1074" d="M117 543.5q0 40.5 280 339.5q63 67 111.5 67t48.5 -37v-17q0 -37 -117 -187.5t-117 -163.5t116.5 -162.5t116.5 -202.5q0 -38 -50 -38t-118 72q-271 289 -271 329.5zM532 548q0 20 166.5 208.5t209.5 188.5h9q50 0 50 -38v-9q0 -43 -115.5 -191.5t-115.5 -161t114.5 -160 t114.5 -194t-45 -46.5h-9q-45 0 -107 66q-272 290 -272 337z" />
<glyph unicode="&#xac;" horiz-adv-x="1216" d="M106 734v14q0 40 31 40l14 -1l29 -1l30 -2q30 -2 60 -2h348q425 0 448.5 -12.5t23.5 -210.5v-32l1 -31v-31q6 -90 6 -120q6 -45 6 -73v-27q0 -26 -15 -26h-42q-83 0 -104 31t-21 146l-2 61q0 130 -43 147q-28 11 -363.5 11t-360.5 7q-46 13 -46 112z" />
<glyph unicode="&#xad;" horiz-adv-x="808" d="M104 481v71q0 75 33 83q43 10 280 10l168 3h71q50 0 50 -55v-23l-1 -8v-8q0 -93 -25 -104.5t-286 -11.5l-17 -1h-40l-8 -1h-32l-24 -1h-24l-32 -1h-47q-66 0 -66 47z" />
<glyph unicode="&#xae;" horiz-adv-x="1407" d="M118 729l1 18v19q0 88 48.5 194t134 185.5t200.5 127.5t245 48h20l21 -1q114 0 225 -44q216 -87 304 -304q32 -79 32 -174v-19q-1 -233 -189 -395q-94 -81 -213 -123t-229 -42h-60q-109 1 -214 45q-104 44 -180 116q-146 140 -146 349zM302 736q0 -83 32 -176 q66 -193 233 -272q73 -35 165 -35q183 0 317 161q54 66 86 161.5t32 175.5v51q-1 92 -37 189q-71 189 -242 264q-68 30 -149 30l-15 -1q-83 0 -159 -40q-155 -81 -227 -268q-36 -95 -36 -190v-50zM489 504q0 2 11 39.5t11 91.5l2 45q3 45 4.5 83t2.5 61t1 39l1 31v31 q0 86 -8 125t-8 43q0 26 151 26l28 1h56q113 0 169 -50.5t56 -127t-52 -140t-52 -70t21.5 -42.5t46 -82t53.5 -85.5t29 -51.5v-9q0 -19 -59.5 -19t-89.5 30q-7 7 -63.5 108t-90.5 101q-50 0 -50 -82q0 -30 12.5 -72.5t12.5 -47.5q0 -45 -59 -45h-14q-78 0 -100 15t-22 54z M642 846q0 -45 29 -45h18l4 1l55 5q10 3 22.5 3t43 24t30.5 53q2 8 2 11v20q0 36 -25 67t-61 31l-24 3h-44q-50 0 -50 -77v-96z" />
<glyph unicode="&#xaf;" horiz-adv-x="854" d="M88 1295v53q0 44 38 44l452 4h82q104 0 104 -44v-53q0 -39 -30 -43t-310 -4h-17l-24 -1h-215q-80 0 -80 44z" />
<glyph unicode="&#xb0;" horiz-adv-x="834" d="M118 1105v27q0 118 98.5 202.5t222.5 84.5h10q114 0 190 -70t76 -165v-27q0 -111 -94.5 -198.5t-216.5 -87.5h-30q-105 0 -180.5 69.5t-75.5 164.5zM284 1140q0 -67 34.5 -115t74.5 -48l27 -3l5 1q46 0 84.5 45t38.5 108v38q0 67 -41 108t-81 41h-22q-42 0 -79 -43.5 t-37 -88.5q-2 -10 -2 -16z" />
<glyph unicode="&#xb1;" horiz-adv-x="1197" d="M114 718v32q0 48 12.5 56t183 8t185.5 16t15 138t9 138.5t90 16.5h19q62 0 70.5 -16.5t8.5 -144.5t26 -140q15 -7 172.5 -7t171.5 -4q26 -7 26 -59v-17l-1 -16q0 -51 -21.5 -59.5t-180.5 -8.5t-176.5 -17.5t-17.5 -135t-8.5 -135t-51.5 -17.5h-93q-33 0 -40 32 q-2 10 -2 125t-17.5 131.5t-176.5 16.5t-181 7.5t-22 59.5zM116 48v70q0 49 34 54q13 2 384 2h365q171 0 186.5 -5.5t15.5 -42.5v-40q0 -65 -22 -71t-257 -6h-643q-63 0 -63 39z" />
<glyph unicode="&#xb2;" horiz-adv-x="806" d="M104 1299v14q0 59 88 107.5t183 48.5h42q107 0 172 -60t65 -168q0 -69 -50.5 -133t-164 -155.5t-113.5 -121.5q0 -16 94 -16t143 9t73 9q43 0 43 -79t-82 -79h-17l-54 3q-54 3 -74 3h-58l-78 2q-153 0 -168 3q-38 8 -38 56t60 120q27 33 127 129q99 96 136.5 147.5 t37.5 119.5q0 32 -29 59t-75.5 27t-105.5 -47t-114 -47q-43 0 -43 49z" />
<glyph unicode="&#xb3;" horiz-adv-x="809" d="M96 787.5q0 52.5 85 52.5q18 0 76 -28t114 -28t89.5 35t33.5 83q0 94 -109 118q-85 18 -88 20q-23 18 -23 54q0 27 58.5 50t89.5 53t31 81q0 64 -92 64q-41 0 -97.5 -25.5t-87.5 -25.5q-54 0 -54 54t70.5 88t200.5 34h21q224 0 224 -156q0 -83 -82 -157q-34 -30 -34 -40 q0 -5 45.5 -31t63.5 -47q46 -54 46 -121q0 -113 -87 -182t-238 -69h-43q-100 0 -156.5 35.5t-56.5 88z" />
<glyph unicode="&#xb4;" horiz-adv-x="801" d="M237 1163q0 65 173 260q54 61 137 61h29q85 0 85 -32v-4q0 -67 -237 -251q-67 -52 -122 -52h-23q-10 2 -16 2q-26 0 -26 16z" />
<glyph unicode="&#xb5;" horiz-adv-x="1177" d="M148 838v27q0 70 25.5 85t140.5 15q75 0 92 -58q6 -20 6 -307t16 -335q34 -102 122 -102q111 0 155 100q24 55 24 357l-2 125l-1 30v76q0 116 148 116q88 0 104 -73q10 -45 10 -276t5 -280.5t30 -119.5t25 -106q0 -82 -170 -83q-26 0 -76.5 29.5t-73.5 29.5t-99.5 -29.5 t-136.5 -32t-81 -24t-21 -169t-28.5 -179t-97 -31.5t-88 21.5t-19.5 89t10.5 198.5t10.5 399t-16 398q-14 84 -14 109z" />
<glyph unicode="&#xb6;" horiz-adv-x="1195" d="M198 991q0 107 39.5 192t97 131t137.5 65.5t232 19.5h66q136 0 181 -20q29 -13 29 -58q0 -7 -31 -97t-31 -185l21 -446l2 -76q1 -39 1 -137v-213q0 -322 -5 -340q-13 -45 -55 -45q-50 0 -61 112q-47 478 -47 1094q0 53 -9 65.5t-72 12.5l-16 -10l8 -253l1 -65v-131l1 -66 v-64l1 -32v-66l-4 -200q0 -225 -19 -299.5t-67 -74.5t-58 39q-2 9 -22.5 321.5t-27.5 337.5q-20 77 -113 151t-136 152t-43 185z" />
<glyph unicode="&#xb7;" horiz-adv-x="611" d="M170 629v15q0 63 24 91t97 28l5 -1h10l20 -2q54 0 89.5 -35.5t35.5 -100.5l1 -5l1 -6l1 -21v-21l-1 -5l-2 -24q0 -83 -103 -83h-29q-72 0 -108.5 36.5t-36.5 96.5q-2 10 -2 15z" />
<glyph unicode="&#xb8;" horiz-adv-x="818" d="M212 -382q0 46 100 58.5t100 78.5q0 31 -47 58q-46 27 -46 52q0 56 49 121q22 29 71 29h15q29 0 29 -19l-10 -54q0 -16 58.5 -69.5t58.5 -107.5v-26q0 -63 -63 -111.5t-155 -48.5q-18 -2 -27 -2h-36q-97 0 -97 35v6z" />
<glyph unicode="&#xb9;" horiz-adv-x="772" d="M158 1353q0 24 36 42q144 72 222 72h11q35 0 45.5 -37t10.5 -265.5t8 -262.5t49 -81.5t41 -93.5q0 -59 -127 -59h-110q-80 0 -124 33q-15 11 -15 47t42 78t52.5 72t10.5 158t-17.5 168t-76 65.5t-58.5 63.5z" />
<glyph unicode="&#xba;" horiz-adv-x="806" d="M69 1001v30q0 128 104 225t254 97h58q118 0 188.5 -70.5t70.5 -171.5v-10q0 -153 -111.5 -242.5t-270.5 -89.5h-23q-22 2 -34 2q-92 0 -164 66.5t-72 163.5zM296 1034l1 -7v-13q2 -14 2 -20l3 -26q0 -64 34.5 -98.5t63.5 -34.5h15q42 0 71.5 53t29.5 143v65l-2 20l-2 27 q0 52 -29 98.5t-70 46.5h-15q-42 0 -70 -50.5t-28 -105.5q-2 -12 -2 -20l-2 -34v-44z" />
<glyph unicode="&#xbb;" horiz-adv-x="1074" d="M144 189q0 36 100 174l13 18q7 9 21 28l14 18q7 9 20 27l64 89q0 18 -114.5 165t-114.5 192t45 45h8q45 0 206 -193t161 -204t-185 -236q-137 -166 -187.5 -166t-50.5 43zM554 181v9q0 45 172 265q64 82 64 92.5t-117.5 161.5t-117.5 195.5t48 44.5h9q44 0 206.5 -195 t162.5 -213.5t-168 -208.5t-205 -190h-8q-46 0 -46 39z" />
<glyph unicode="&#xbc;" horiz-adv-x="1645" d="M157 1273v8q0 27 31 43q135 71 193 71h30q36 0 43.5 -55.5t7.5 -255t6 -232.5t38 -84t32 -80.5t-26 -51.5t-83 -22h-103q-48 0 -81 24.5t-33 49.5t56 120q25 43 25 167t-21 172.5t-68 78.5t-47 47zM345 6q0 55 783 1291q53 84 96 84h16q67 0 67 -16t-32 -72 q-309 -545 -753 -1223q-54 -82 -94 -82h-16q-67 0 -67 18zM943 267q0 55 298 459q37 50 85 50h24q56 0 70 -22q4 -6 4 -101l-2 -55l-1 -14l-2 -56l-1 -14l-2 -56q0 -125 56 -167q34 -25 34 -32v-8q0 -67 -27 -103t-27 -51q0 -77 -23 -96.5t-83 -19.5l-25 -2h-25 q-60 0 -60 89l4 51q0 8 -38.5 29t-110 21t-110 21.5t-38.5 76.5zM1062 302q0 -3 6 -3h75l4 1q88 0 98 13t10 136l1 8v17l1 4v16l1 8v9l1 16v41q0 3 -2 3t-30 -39l-6 -11l-7 -10l-3 -3l-13 -21q-10 -10 -43 -59.5t-63 -85.5t-30 -37v-3z" />
<glyph unicode="&#xbd;" horiz-adv-x="1654" d="M138 1284.5q0 26.5 38 43.5q144 65 194 65h10q40 0 51 -36t11 -253t6 -252.5t38 -92t32 -82.5v-11q0 -19 -27.5 -38.5t-102.5 -19.5h-69q-53 0 -90 24.5t-37 56.5l57 114q25 50 25 169.5t-22 169.5t-68 83t-46 59.5zM324 4.5q0 17.5 47 100.5q378 666 722 1192 q55 84 116.5 84t61.5 -19t-39 -86q-459 -791 -741 -1221q-45 -68 -106 -68t-61 17.5zM985 34v16q0 53 144 197t179.5 191t35.5 99.5t-29.5 81t-77 28.5t-102.5 -46t-105 -46q-40 0 -40 60.5t86.5 109.5t203 49t179.5 -60.5t63 -163.5q0 -63 -41 -122t-158 -160t-117 -126 q0 -14 62 -14h8q70 1 90 1q18 0 76 7q45 5 60 5h6q35 -8 35 -67v-16q0 -69 -87 -69h-17l-17 1l-35 1l-18 1l-111 2h-57q-216 0 -216 40z" />
<glyph unicode="&#xbe;" horiz-adv-x="1679" d="M134 711v14q0 58 85 58q22 0 77.5 -29.5t107.5 -29.5t85.5 35t33.5 86.5t-33 78t-58.5 32.5t-60.5 10.5t-42 8.5q-26 15 -26 51q0 19 105 75q74 39 74 101q0 33 -25 55t-66 22t-98 -27.5t-84 -27.5q-48 0 -48 50t62 86.5t188 36.5h21q228 0 228 -164q0 -52 -26 -84.5 t-55 -58.5t-29 -33t46 -35q102 -60 102 -160v-19q0 -105 -90.5 -167.5t-214 -62.5t-191.5 27t-68 71zM415 5q0 55 792 1306q44 69 86 69h17q67 0 67 -16.5t-33 -71.5q-536 -893 -752 -1223q-54 -82 -94 -82h-17q-66 0 -66 18zM1000 258v10q0 54 293 452q41 56 82 56h36 q44 0 58 -13t13 -50.5t-1 -51.5l-2 -28l-2 -56l-1 -14l-1 -42l-3 -83q0 -112 59 -150q32 -20 32 -33q0 -64 -19 -95q-5 -8 -27 -20q-9 -5 -9 -38q0 -89 -27 -106.5t-110 -17.5h-24q-55 0 -55 83l2 24l1 22q0 18 -18 28q-59 32 -91 32q-93 0 -139.5 18.5t-46.5 72.5z M1118 302q0 -4 9 -4h62l3 1h12q87 0 97 13t10 75v66l1 12v8l1 13v8l1 12v13l1 16v33q0 3 -2 3l-58 -81q-54 -75 -62 -90t-41.5 -54.5t-33.5 -41.5v-2z" />
<glyph unicode="&#xbf;" horiz-adv-x="1008" d="M129 26v19q0 91 45 163t150 173t115 116q30 43 30 112.5t55 69.5h29q99 0 99 -152q0 -107 -133 -251t-133 -248q0 -66 37.5 -103.5t94 -37.5t145 49.5t130 49.5t67 -30t25.5 -65v-15q0 -74 -102 -130.5t-239 -56.5h-20q-169 0 -282 91.5t-113 245.5zM406 962v29 q0 103 94 103q20 4 25 4h43q144 0 144 -127v-24l-1 -4v-9q-2 -10 -2 -26.5t-21 -41.5t-61 -25q-14 -3 -19 -3l-10 -2l-21 -1h-22q-149 0 -149 127z" />
<glyph unicode="&#xc0;" horiz-adv-x="1365" d="M113 156v20q0 7 48.5 109.5t75.5 173t161 457.5t138 394q45 80 145 80t135 -70q52 -105 117.5 -326.5t147 -441t120 -285.5t38.5 -92q0 -68 -79 -122q-36 -25 -121 -25h-24q-62 0 -91 11q-45 17 -45 63q5 28 5 74q0 159 -68 216q-36 30 -186 30t-185.5 -31t-53.5 -175.5 t-20 -148.5q-18 -36 -91 -36t-107 31q-60 55 -60 94zM391 1779v4q0 41 89 41h6q81 0 156 -58q30 -23 153 -177q39 -49 39 -67v-5q0 -16 -19 -16h-33q-83 0 -158 58q-233 181 -233 220zM496 580q0 -19 34 -19l11 -2h155q80 0 80 25q0 58 -124 461q-10 34 -13.5 34t-9 -23 t-13.5 -49t-22 -75l-34 -119q-64 -224 -64 -233z" />
<glyph unicode="&#xc1;" horiz-adv-x="1364" d="M111 147v20q0 17 67 151t195.5 527.5t151 444.5t56 77.5t97 26.5t94.5 -19t56.5 -80t85.5 -249l18 -53q7 -22 32 -102.5t34 -106.5q154 -445 198 -512t44 -104q0 -66 -80 -123q-36 -26 -123 -26h-23q-78 0 -107.5 19t-29.5 56q6 48 6 74q0 158 -68 217q-37 32 -187.5 32 t-189.5 -35.5t-59 -266.5q-4 -42 -10 -57q-16 -37 -111 -37q-51 0 -99 44t-48 82zM495 580q0 -14 28 -14l29 -3h130q92 0 92 21v5q0 59 -124 462q-10 34 -13.5 34t-8.5 -21.5t-12.5 -45.5t-21.5 -73l-34 -120q-65 -228 -65 -235v-10zM529 1532v9q0 23 30 57q155 174 156 175 q82 64 159 64h11l6 -1q79 0 79 -36v-5q0 -53 -250 -228q-69 -48 -145 -48h-17q-29 0 -29 13z" />
<glyph unicode="&#xc2;" horiz-adv-x="1365" d="M111 164q0 16 67.5 151t195.5 526.5t151 444t56.5 79t117 26.5t120.5 -75t115.5 -330t153.5 -455.5t114.5 -270.5t39.5 -94q0 -69 -78 -125q-35 -25 -123 -25h-24q-136 0 -136 75q5 43 5 75q0 142 -54 202q-41 45 -198 45t-195.5 -35t-58.5 -266q-3 -42 -11 -58 q-17 -37 -87.5 -37t-99.5 22q-71 55 -71 125zM356 1537q0 19 33 55q162 177 196 203t94 26h8q67 0 108 -38q213 -195 213 -239v-6q0 -19 -67 -19t-136 58q-118 100 -128 100t-117 -99q-65 -60 -146 -60h-8q-50 0 -50 19zM496 582q0 -19 34 -19l12 -2h154q80 0 80 26 q0 57 -124 460q-10 34 -13.5 34t-8 -19.5t-12.5 -45.5t-22 -75l-34 -119q-66 -231 -66 -240z" />
<glyph unicode="&#xc3;" horiz-adv-x="1364" d="M111 149v19q0 7 72.5 162t197.5 537t146 429.5t54 73.5t96.5 26t94.5 -19t56.5 -80t85.5 -249l18 -53q9 -27 28 -90.5t38 -118.5q148 -436 195 -507.5t47 -108.5q0 -66 -80 -123q-36 -26 -123 -26h-48q-112 0 -112 75q6 48 6 74q0 160 -68 217q-37 31 -188 31t-189.5 -35 t-58.5 -266q-4 -42 -10 -57q-16 -37 -111 -37q-51 0 -99 44t-48 82zM335 1577v17q0 61 66.5 122.5t129.5 61.5h26q50 0 137 -43.5t122 -43.5t78.5 43.5t78.5 43.5h8q43 0 43 -31v-16q0 -69 -83 -139q-53 -45 -118 -45t-157.5 43.5t-124.5 43.5t-76 -44t-78 -44h-8 q-44 0 -44 31zM495 581q0 -14 34 -14l11 -2h154q80 0 80 21v5q0 59 -124 462q-10 34 -13.5 34t-8.5 -21.5t-12.5 -46t-29.5 -101.5l-26 -91q-65 -228 -65 -235v-11z" />
<glyph unicode="&#xc4;" horiz-adv-x="1364" d="M112 168q0 24 63.5 140t188.5 505t165.5 485.5t134.5 96.5h24q55 0 85 -19t53.5 -73t147 -438.5t196 -539.5t72.5 -156q0 -66 -80 -123q-35 -25 -99 -25h-72q-112 0 -112 74q5 42 5 98q0 136 -67 194q-36 31 -187 31t-184.5 -30.5t-56.5 -186.5q-5 -36 -7.5 -80.5 t-10.5 -61.5q-17 -37 -90.5 -37t-106.5 32q-62 59 -62 114zM357 1627v28q0 59 31.5 90.5t90.5 31.5h34q12 -3 24 -3q62 0 62 -93v-4l-1 -4l-3 -33q0 -38 -29.5 -67.5t-93.5 -29.5h-29q-86 0 -86 84zM497 581q0 -17 63 -17h62l6 1l104 2q6 1 11 1q32 0 32 17v12 q0 56 -121 449q-12 40 -15.5 40t-8 -18t-69 -244t-64.5 -232v-11zM766 1631v29l4 24q0 34 27.5 61.5t70.5 27.5q8 2 12 2l22 2h12q92 0 92 -69l3 -23v-16l-1 -4v-9q-2 -8 -2 -12q0 -40 -27.5 -67.5t-63.5 -27.5q-12 -3 -13 -3l-21 -2h-29l-28 4q-54 0 -54 57z" />
<glyph unicode="&#xc5;" horiz-adv-x="1358" d="M123 136q0 36 44.5 105.5t94 198.5t95 269.5t49.5 151t33 98.5l33 104q67 204 78 226q43 85 120 85h24q90 0 124 -71t169.5 -512.5t196 -529t60.5 -123.5t-59 -80t-116 -44h-71q-75 0 -99.5 21t-24.5 33l13 124q0 137 -65 196q-35 32 -185.5 32t-181.5 -29 q-63 -59 -63 -307q0 -37 -17.5 -53.5t-81.5 -16.5t-117 43t-53 79zM475 1650v17q2 12 2 17q0 61 84 114q58 37 140 37q21 -3 41 -3q57 0 110 -47t53 -98v-30q0 -66 -68 -113.5t-143 -47.5h-21q-74 0 -135 42.5t-61 99.5zM502 571q0 -13 29 -13l5 -1l6 -1l23 -1h55l6 1l114 3 q6 1 23 1t17 15v5q0 28 -55 220t-65 236.5t-13.5 44.5t-74 -228.5t-70.5 -276.5v-5zM608 1655l1 -4l5 -35q0 -9 23.5 -32.5t44.5 -23.5h17q21 0 45 24t24 45q3 9 3 12l2 17v21l-4 23q0 21 -24 45t-46 24h-16q-9 -3 -19 -3t-33 -29t-23 -67v-17z" />
<glyph unicode="&#xc6;" horiz-adv-x="1846" d="M60 149q0 13 125 206q17 27 84.5 160t170.5 320.5t120.5 223t50.5 112.5t36 81q47 65 256 65l48 -1l97 -1l48 -1h143q299 0 367 -20q98 -29 98 -114q0 -65 -50 -65l-24 6l-28 9q-83 23 -226.5 23t-183 -50t-39.5 -150.5t23.5 -119.5t77 -19t98.5 16l35 15q54 24 67 24 q82 0 118 -65q15 -27 15 -113.5t-31 -107.5l-30 -8q-15 0 -98.5 29t-144 29t-95 -29t-34.5 -143.5t35 -155t125 -40.5t221 36t149 36q61 0 61 -71q0 -95 -47 -131t-247 -36l-48 -1q-49 -1 -99 -1l-150 -2q-223 0 -275 16q-74 23 -74 80l7 27l9 31q10 42 10 73 q0 99 -30.5 136t-152.5 37t-179 -54q-35 -33 -104.5 -191.5t-78.5 -173.5q-32 -51 -81 -51h-30q-50 0 -94 51q-21 24 -21 73zM574 652q0 -11 38 -11h77q129 0 141 32q11 29 11 136v19v135l1 7v38l1 15v15l1 23v23l1 7v31l1 22v8q0 49 -12 49q-19 0 -62 -93 q-198 -429 -198 -452v-4z" />
<glyph unicode="&#xc7;" horiz-adv-x="1300" d="M86 669v37q0 334 177 539q79 91 192 140.5t244 49.5h33q57 0 181 -25.5t143 -39.5q59 -43 90 -111t31 -139.5t-61 -71.5q-39 0 -87.5 36.5t-92.5 72.5q-116 95 -235 95q-169 0 -265 -160q-83 -138 -83 -386q0 -519 349 -519h1q90 0 234 73.5t213 73.5q54 0 54 -72 q0 -35 -46 -95q-46 -59 -166 -125q-117 -64 -266 -66q15 -12 15 -47l65 -59q50 -45 50 -101v-15q0 -62 -53 -115t-144 -53h-48q-120 0 -120 38v25q0 15 63 25t92 28t29 51.5t-37 58t-37 56t37 94.5q6 11 17 16q-408 28 -532 422q-37 119 -37 269z" />
<glyph unicode="&#xc8;" horiz-adv-x="1216" d="M139 147q0 18 32 75t48 168.5t16 352.5t-14 315t-25.5 101t-34 66t-22.5 50v25q0 45 115 64q183 30 443 30l38 -1q211 0 253 -15q81 -29 81 -142q0 -65 -55 -65q-11 0 -76 16.5t-120.5 27.5t-169 11t-145.5 -62q-41 -80 -41 -217q0 -48 29 -66t121 -18q21 0 73.5 23.5 t84.5 23.5q65 0 92 -60q17 -38 17 -132t-10 -118q-18 -43 -62 -43t-106.5 22t-125 22t-90.5 -21.5t-28 -73.5q0 -177 44 -263q28 -54 149 -54q173 0 284 39.5t119 39.5q60 0 60 -72q0 -110 -81 -147q-52 -24 -247 -24l-76 -2h-117q-296 0 -397 38q-56 21 -56 86zM322 1785v5 q0 37 88 37h11q82 0 163.5 -72.5t128 -142.5t46.5 -86v-9q0 -16 -33 -16h-10l-6 1q-72 0 -206 94q-182 127 -182 189z" />
<glyph unicode="&#xc9;" horiz-adv-x="1217" d="M140 1288q0 42 80 59q189 39 395 39h118l39 -1q208 0 246 -26q56 -39 56 -154q0 -37 -55 -37q-6 0 -81.5 20t-123.5 29.5t-163.5 9.5t-147.5 -59q-45 -83 -45 -217q0 -54 27 -72t117 -18q28 0 80.5 23t76.5 23q64 0 93 -61q17 -36 17 -142t-23 -131t-62 -25t-93 19.5 t-117.5 19.5t-93 -22t-29.5 -136t46 -199q31 -57 150 -57q169 0 280.5 38.5t124.5 38.5q62 0 62 -64q0 -109 -79 -145q-62 -28 -325 -28h-118q-284 0 -395 41q-56 21 -56 86q0 13 34 80t51 183.5t17 342t-17.5 311.5t-51.5 147t-34 84zM462 1524v9q0 24 34 62 q152 171 161 178q72 56 155 56h6q85 0 85 -37v-4q0 -36 -235 -219q-73 -57 -154 -57h-22q-30 0 -30 12z" />
<glyph unicode="&#xca;" horiz-adv-x="1217" d="M135 1273v26q0 47 117 64q197 29 407 29h78l39 -1q182 0 214 -12q84 -31 84 -148q0 -63 -57 -63q-15 0 -82.5 17.5t-122.5 28t-166 10.5t-143 -62q-42 -82 -42 -220q0 -49 28 -66.5t123 -17.5q28 0 78 23.5t82 23.5q67 0 94 -60q16 -35 16 -141t-22.5 -129.5t-83.5 -23.5 q-12 0 -75.5 22t-135.5 22t-97 -39q-13 -20 -13 -91q0 -190 58 -254q29 -32 147 -32t191 18.5t130 39t73 20.5q60 0 60 -71q0 -112 -80 -148q-55 -25 -249 -25l-77 -2h-117q-292 0 -400 38q-55 19 -55 87q0 19 30 75.5t47 154t17 361t-14.5 336.5t-25 97t-33 64t-22.5 49z M282 1541q0 47 207 238q49 45 117.5 45t107.5 -33q219 -185 219 -245v-5q0 -20 -58 -20l-8 1q-69 0 -137 58q-117 100 -122.5 100t-123.5 -100q-70 -59 -145 -59h-8q-49 0 -49 20z" />
<glyph unicode="&#xcb;" horiz-adv-x="1217" d="M133 135q0 19 31 78t47.5 160.5t16.5 355t-13.5 328t-26 103t-34 65.5t-21.5 47v26q0 43 84 59q181 34 400 34h118l39 -1q207 0 244 -27q54 -40 54 -132q0 -64 -57 -64q-14 0 -87 19t-123 28.5t-161 9.5t-144 -62q-42 -78 -42 -220q0 -49 29 -67t122 -18q28 0 78 23.5 t82 23.5q66 0 94 -59q17 -36 17 -142.5t-23 -129.5t-83 -23q-12 0 -75.5 22t-135.5 22t-97 -39q-13 -20 -13 -91q0 -144 43 -230q28 -56 135 -56q150 0 224 19.5t125 39t91 19.5t40 -43v-27q0 -113 -79 -149q-59 -27 -326 -27h-117q-297 0 -400 38q-56 21 -56 87zM280 1634 v8l4 32q0 38 28.5 66.5t73.5 28.5l26 3h25l27 -4q55 0 55 -61l3 -23v-25q0 -121 -122 -121h-34l-27 4q-55 0 -55 61q-2 8 -2 11zM689 1631v20q0 121 127 121h26q49 0 69.5 -20.5t20.5 -63.5v-28q0 -51 -28 -84.5t-78 -33.5l-25 -3h-22l-4 1h-8q-8 2 -11 2q-64 0 -64 66z" />
<glyph unicode="&#xcc;" horiz-adv-x="733" d="M70 1795v4q0 34 76 34h23q75 0 151 -59q31 -25 154 -182q36 -46 36 -68v-4q0 -14 -27 -14h-23q-86 0 -154 53q-236 184 -236 236zM136 1320v17q0 25 26 49.5t108 24.5h166q143 0 143 -80q0 -39 -38 -94t-49.5 -125t-11.5 -388.5t9.5 -390.5t49.5 -142q40 -71 40 -107 q0 -71 -161 -71h-5h-130q-146 1 -146 83q0 40 38 93t47.5 124.5t9.5 394t-11.5 394t-31.5 107.5q-53 95 -53 111z" />
<glyph unicode="&#xcd;" horiz-adv-x="733" d="M139 85q0 35 38 90.5t49 124t11 395t-10 402t-48 133.5t-38 103q0 75 155 75h130q164 0 164 -69v-18q0 -15 -63 -125q-35 -61 -35 -182l-2 -42l-1 -43v-42l-1 -42v-284q0 -199 19 -294q7 -33 44 -90t37 -100q0 -77 -150 -77h-168q-131 0 -131 85zM215 1530v5l1 4 q0 67 190 236q68 60 154 60h17q79 0 79 -37v-4q0 -54 -255 -232q-64 -45 -145 -45l-6 1h-5q-30 0 -30 12z" />
<glyph unicode="&#xce;" horiz-adv-x="738" d="M40 1539q0 64 214 245q45 38 101 38h17q63 0 108 -38q96 -81 185 -197q27 -35 27 -48q0 -19 -50 -19h-17q-67 0 -137 59q-118 100 -127.5 100t-117.5 -100q-64 -59 -137 -59h-17q-49 0 -49 19zM141 83q0 34 39 93.5t48 129t9 393.5t-10 396t-47.5 132t-37.5 99.5t38 59 t97 19.5h168q144 0 144 -87q0 -16 -63 -126q-34 -60 -34 -181l-2 -42v-43l-2 -83v-275q0 -190 11.5 -261t49.5 -131.5t38 -99.5q0 -78 -130 -78h-187q-129 0 -129 85z" />
<glyph unicode="&#xcf;" horiz-adv-x="739" d="M42 1626v20q0 54 25 89t71 35q12 3 17 3l25 2h9l31 -4q55 0 55 -52q4 -14 4 -15l2 -23v-17q0 -54 -26.5 -91t-98.5 -37h-29q-85 0 -85 90zM140 81.5q0 39.5 39 95.5t48.5 128.5t9.5 397t-12 397t-47.5 129t-35.5 91t24 60t92 25.5h186q88 0 116 -24t28 -45v-18 q0 -36 -37 -87.5t-50 -118t-13 -395t10 -403t49 -136.5t39 -99.5t-33 -59t-96 -21.5h-187q-60 0 -95 22t-35 61.5zM448 1627v28q3 12 3 31.5t26 51t72 31.5l5 1l4 1l30 2l4 -1l28 -2q4 -1 8 -1q63 0 63 -81v-28q0 -121 -127 -121h-26l-35 5q-51 0 -51 56q-2 8 -2 11z" />
<glyph unicode="&#xd0;" horiz-adv-x="1463" d="M131 726.5q0 42.5 12.5 60.5t61.5 32.5t58.5 35.5t9.5 129q0 199 -55 289q-38 63 -38 89q0 33 40 43q27 7 150 7l90 1l24 1l69 1h94q288 0 466 -192q85 -92 124.5 -209t39.5 -287v-28q0 -155 -41 -281t-140 -231t-222.5 -147t-295.5 -42h-252q-96 0 -119.5 13t-23.5 38 t30 77.5t46.5 138t16.5 208.5t-14 138t-57.5 26.5t-58.5 29t-15 60zM510 242q0 -63 90 -63q199 0 320 161q57 75 86 181t29 205v39q0 179 -120 325t-302 146h-32q-71 0 -71 -66v-31l1 -16q0 -225 41 -271q15 -17 96 -27t100 -19q34 -16 34 -74.5t-27 -76.5 q-12 -8 -98.5 -22.5t-109.5 -48.5q-37 -56 -37 -296v-46z" />
<glyph unicode="&#xd1;" horiz-adv-x="1459" d="M95 93l12 29l35 57q29 54 36.5 98t7.5 382.5t-6 409t-31.5 152.5t-25.5 95q0 51 102 51q189 0 298 -129q42 -49 278.5 -411t252.5 -362q23 0 23 319t-27.5 429t-27.5 113q0 68 175 68q63 0 97.5 -27t34.5 -61v-30q0 -4 -27.5 -80t-36.5 -146.5t-9 -486t-5 -448.5 q-10 -64 -55 -64q-141 0 -230 106q-46 55 -296 435.5t-283 380.5q-22 0 -22 -256t28 -417t28 -175q0 -56 -71 -87q-50 -22 -126 -22t-93 7q-36 14 -36 70zM382 1575v17q0 62 66.5 123.5t136.5 61.5h9l9 -1q46 0 137.5 -43t124.5 -43t76.5 43.5t77.5 43.5h8q44 0 44 -30v-17 q0 -62 -66.5 -123.5t-135.5 -61.5h-10l-9 1q-52 0 -139 43.5t-121.5 43.5t-78.5 -44t-77 -44h-8q-44 0 -44 30z" />
<glyph unicode="&#xd2;" horiz-adv-x="1467" d="M173 682v24q0 129 35.5 264.5t110 242.5t181.5 165.5t217 58.5h60h4q107 0 199 -53q189 -107 259 -329q47 -148 47 -288v-47q0 -159 -42 -295q-87 -281 -296 -386q-102 -51 -225 -51l-20 1h-20q-107 0 -207 55q-191 105 -262 346q-41 140 -41 292zM440 658 q0 -218 82.5 -359t207.5 -141h12q61 0 115.5 40.5t88.5 107.5q77 154 77 396l-1 17q0 232 -71 368q-87 165 -205 165h-25q-56 0 -107.5 -37.5t-87.5 -99.5q-86 -146 -86 -372v-85zM443 1793v5q0 39 84 39h11q12 -2 18 -2q75 0 154 -70q29 -26 150 -177q27 -34 27 -56 t-40 -22h-12q-85 0 -152 52q-240 187 -240 231z" />
<glyph unicode="&#xd3;" horiz-adv-x="1467" d="M170 648v49q0 153 42 289q87 280 287 389q110 60 219 60h61q99 -1 201 -53q188 -97 263 -332q47 -148 47 -291v-47q0 -158 -43 -296q-84 -271 -282 -382q-107 -60 -222 -60h-41q-112 0 -212 47q-196 92 -279 357q-41 129 -41 270zM440 657q0 -217 83 -358t195 -141h24 q54 0 109.5 35t94.5 113q77 154 77 396l-1 17q0 232 -71 368q-87 165 -205 165h-25q-56 0 -107.5 -37.5t-87.5 -99.5q-86 -146 -86 -372v-86zM587 1534v9q0 67 186 232q70 62 148 62l11 2h17q79 0 79 -37l-1 -5v-4q0 -50 -249 -224q-66 -46 -134 -46l-11 -2h-11l-6 1 q-29 0 -29 12z" />
<glyph unicode="&#xd4;" horiz-adv-x="1467" d="M169 645v73v6q0 130 45 271q85 267 284 377q110 60 240 60h20q107 0 207.5 -45.5t171.5 -137t112 -221.5t41 -272v-47q0 -159 -44 -300q-42 -141 -118 -237q-157 -200 -406 -201h-20q-120 0 -219 51q-189 97 -267 333q-47 145 -47 290zM411 1542q0 48 207 239 q48 44 116 44h8q67 0 108 -38q213 -195 213 -245q0 -19 -50 -19h-17q-68 0 -137 58q-119 101 -128 101t-117 -100q-64 -59 -137 -59h-17q-49 0 -49 19zM438 672q2 -34 2 -51q0 -186 87 -333q38 -65 91.5 -98.5t110.5 -33.5h12q117 0 199 137q81 137 81 338l2 34v50 q0 231 -78 380q-41 78 -95.5 115.5t-104.5 37.5h-24q-65 0 -121.5 -47t-92.5 -123q-69 -144 -69 -355v-51z" />
<glyph unicode="&#xd5;" horiz-adv-x="1467" d="M170 650v48q0 154 46 302q46 150 126 244q162 193 394 193h2h21q119 0 217 -50q194 -99 267 -336q47 -148 47 -290v-48q0 -157 -44 -298q-87 -281 -298 -388q-104 -52 -225 -52h-21q-116 0 -218 51q-191 95 -273 354q-41 129 -41 270zM392 1588q0 69 67 131t137 62h18 q44 0 136.5 -43.5t128.5 -43.5t73 43.5t77 43.5h9q44 0 44 -38q0 -77 -83 -147q-54 -46 -116 -46t-160 43.5t-127.5 43.5t-73.5 -44t-77 -44h-8q-45 0 -45 39zM440 659q0 -212 84 -361q78 -139 200 -139q9 0 18 1h12q54 0 108.5 43t83.5 104q77 161 77 396l-1 17 q0 232 -79 383t-209 151h-13q-109 0 -195 -138t-86 -371v-86z" />
<glyph unicode="&#xd6;" horiz-adv-x="1466" d="M173 671l1 24q0 309 155 524q72 99 176.5 156t215.5 57h60q105 0 205 -54q193 -105 270 -371q35 -123 35 -273v-24q0 -319 -163 -537q-71 -94 -175.5 -146.5t-207.5 -52.5h-41q-237 0 -382 187q-70 91 -109.5 225.5t-39.5 284.5zM414 1633v17l1 4l2 20q0 35 25.5 66 t68.5 31l8 2l39 3h4q89 0 89 -62q2 -6 2 -11l2 -16v-24q0 -59 -29 -88t-68 -29q-8 -2 -12 -2l-17 -2h-33q-79 0 -79 68zM443 690q0 -231 71 -367q86 -165 206 -165h24q117 0 198 137.5t81 354.5v84q0 228 -89 385q-35 62 -88 96.5t-110 34.5h-12q-53 0 -109.5 -39 t-97.5 -120q-74 -148 -74 -366v-35zM823 1634v16l1 4l2 20q0 45 31.5 71.5t71.5 26.5l26 3h21l35 -5q55 0 55 -91v-4l-1 -4l-3 -32q0 -31 -25.5 -62t-72.5 -31l-17 -3h-9l-13 -1h-4l-4 1q-91 0 -91 68z" />
<glyph unicode="&#xd7;" horiz-adv-x="1212" d="M208 228q0 21 118 160l155 183q0 16 -134.5 179.5t-134.5 187.5q0 9 40.5 53.5t53.5 44.5q20 0 153 -156.5t144 -156.5t139.5 157t152.5 157q17 0 61.5 -49t44.5 -70t-136.5 -180.5t-136.5 -162.5q0 -16 136.5 -177t136.5 -172q0 -29 -39.5 -71t-54.5 -42q-25 0 -154 157 t-142.5 157t-143 -157t-150.5 -157t-65 47t-44 68z" />
<glyph unicode="&#xd8;" horiz-adv-x="1491" d="M159 555v82q0 155 61 315q120 316 389 424q108 43 269 43q51 0 126.5 -18.5t104.5 -18.5t78.5 42t84.5 42q47 0 47 -60q0 -25 -34.5 -81t-34.5 -88t23 -85q68 -157 68 -303v-54v-6q0 -174 -59 -325q-180 -466 -646 -466q-48 0 -133 17t-115 17t-81 -45t-87 -45 q-47 0 -47 59q0 18 38.5 84.5t38.5 94t-22 77.5q-69 157 -69 298zM411 655q0 -225 37 -225h5q3 0 140.5 206t241.5 350t104 166v9q0 29 -43 62.5t-105 33.5h-19q-153 0 -270 -181q-32 -50 -61.5 -158t-29.5 -251v-12zM563 257q0 -32 44.5 -64.5t103.5 -32.5h29q69 0 136 43 t112 113q100 155 100 370l2 25v72q0 202 -37 202h-4q-2 0 -137 -202.5t-242 -350.5t-107 -167v-8z" />
<glyph unicode="&#xd9;" horiz-adv-x="1408" d="M99 1277.5q0 40.5 35.5 79.5t79.5 39h33q135 0 184.5 -25t49.5 -87q0 -7 -11 -53l-14 -55q-13 -57 -17.5 -137t-4.5 -350t41 -361t104.5 -125.5t153 -34.5t149 46.5t88.5 112.5q48 108 48 441q0 36 -2 109l-3 74v38q0 96 -11 172l-6 31l-5 30q-12 70 -12 80q0 60 45 76.5 t155 16.5q52 0 83 -35.5t31 -70t-32 -90t-39.5 -109t-7.5 -319.5t-19 -379.5t-70 -192.5q-131 -202 -433.5 -202t-429.5 209q-51 85 -67 201.5t-16 389.5t-6.5 309.5t-40 83.5t-33.5 87.5zM411 1782v9q0 27 71 27h22q90 0 168 -68q182 -159 182 -221v-10q0 -16 -39 -16h-16 q-12 2 -18 2q-66 0 -145 55q-225 158 -225 222z" />
<glyph unicode="&#xda;" horiz-adv-x="1409" d="M97 1278.5q0 40.5 36 80t81 39.5q164 0 226 -31q42 -21 42 -83q0 -11 -18.5 -83t-24 -168t-5.5 -320q0 -327 65.5 -440.5t231.5 -113.5q171 1 247 173q42 96 43 432q0 37 -2 111l-3 75v37q0 115 -17.5 207t-17.5 109q0 60 44 77.5t156 17.5q45 0 80.5 -31.5t35.5 -70 t-33 -94t-40 -106.5t-7 -315t-16.5 -384.5t-72.5 -205.5q-137 -205 -439.5 -205t-429.5 212q-50 84 -65.5 199t-15.5 394t-7 317t-40.5 84t-33.5 86.5zM569 1528v9q0 66 191 236q68 60 154 60h17q79 0 79 -37l-1 -4v-5q0 -49 -254 -227q-60 -42 -123 -42l-17 -3h-11l-6 1 q-29 0 -29 12z" />
<glyph unicode="&#xdb;" horiz-adv-x="1408" d="M97 1287.5q0 54.5 64 93.5q23 14 122 14t148 -25.5t49 -88.5q0 -11 -18 -81q-29 -110 -29 -450t42 -433t106 -126.5t143.5 -33.5t145.5 39.5t108 134t42 418t-19.5 429t-19.5 123.5q0 59 42.5 77t156.5 18q46 0 81 -32t35 -69.5t-32.5 -96t-39.5 -108t-7 -312.5t-16 -382 t-73 -207q-134 -205 -438.5 -205t-430.5 210q-51 84 -67 202.5t-16 396t-6 312t-39.5 81.5t-33.5 101.5zM382 1537q0 17 28 51q109 131 170 182.5t117 51.5h17q63 0 108 -38q98 -83 185 -196q27 -35 27 -51.5t-50 -16.5h-16q-67 0 -137 59q-118 100 -123.5 100t-122.5 -100 q-69 -59 -137 -59h-16q-50 0 -50 17z" />
<glyph unicode="&#xdc;" horiz-adv-x="1408" d="M95 1274.5q0 40.5 36.5 80.5t80.5 40q165 0 225 -31q42 -22 42 -84q0 -7 -11 -53l-14 -56q-23 -104 -23 -446.5t66.5 -455t231.5 -112.5q172 1 248 175q42 96 42 415.5t-19.5 427.5t-19.5 147t42.5 56t157.5 17q43 0 79 -32t36 -71t-32.5 -95t-39.5 -107t-7 -323 q0 -273 -18 -385q-41 -249 -252 -349q-103 -49 -217 -49h-41q-306 0 -431 211q-49 83 -65.5 193t-16.5 391.5t-6 319.5t-40 86.5t-34 89zM380 1636v4l4 33q0 42 33.5 70t89.5 28h26q24 -6 39 -6q48 0 48 -63l3 -24v-16q0 -63 -30 -93t-76 -30l-25 -3h-25l-27 4q-55 0 -55 58 q-3 9 -3 15zM789 1625v20l1 4l2 20q0 34 26.5 66t72.5 32l21 3h34q12 -3 24 -3q63 0 63 -89v-16q0 -55 -27.5 -87.5t-66.5 -32.5l-13 -3l-21 -2h-29q-20 5 -31 5q-56 0 -56 83z" />
<glyph unicode="&#xdd;" horiz-adv-x="1305" d="M111 1321q0 87 155 87h54q104 0 145 -25.5t41 -80.5l-2 -40q0 -87 141 -398q26 -57 36 -57q35 0 115.5 208t84 274.5t8.5 77.5q18 41 117 41h27q140 0 140 -56v-19q0 -38 -81 -128q-31 -35 -111 -186t-144.5 -292.5t-64.5 -265t11 -175t34.5 -104.5t23.5 -74 q0 -110 -154 -110h-108q-147 0 -147 95q0 25 24.5 72.5t39 107.5t14.5 199q0 82 -64.5 221.5t-149 298.5t-95.5 177q-90 138 -90 152zM522 1528v9q0 48 178 226q69 69 152 69l17 3h12l5 -1q79 0 79 -36v-5q0 -55 -246 -227q-73 -51 -145 -51h-23q-29 0 -29 13z" />
<glyph unicode="&#xde;" horiz-adv-x="1258" d="M156 95q0 27 32 83t42 120q26 171 26 453.5t-11 354.5t-46 131.5t-35 107.5q0 53 121 53h89q184 0 184 -118q0 -71 21.5 -85.5t100.5 -22.5q197 -22 301 -114q128 -113 128 -281v-26q0 -178 -129 -307q-96 -96 -274 -132q-111 -23 -127 -33q-51 -32 -51 -80 q0 -3 16 -33.5t16 -54.5q0 -100 -163 -100l-24 1h-24q-100 0 -146.5 17t-46.5 66zM502 539q0 -54 96 -54l8 1q105 0 162 51q85 77 85 192v35q-2 18 -2 26q0 82 -63.5 139t-151.5 57h-38q-70 0 -82 -26q-12 -24 -12 -136v-144l-1 -16v-48l-1 -24v-53z" />
<glyph unicode="&#xdf;" horiz-adv-x="1217" d="M102 74q0 18 24.5 63t38.5 98t14 209t-21 255t-21 141t44.5 214.5t104 243t150 110.5t210 40t214.5 -66q120 -83 120 -241q0 -76 -45 -156q-87 -155 -87 -173q0 -45 90.5 -132.5t132 -156.5t41.5 -155q0 -166 -105 -267t-252.5 -101t-147.5 97q0 45 67 78l22 10l49 17 q125 49 125 148q0 71 -27 118.5t-98 121.5t-75 79q-37 50 -37 113.5t56 183t56 186.5t-52 102q-30 20 -88 20t-104 -52.5t-72 -165.5t-26 -622v-120l3 -148q0 -77 -44 -115t-185 -38q-75 0 -75 61z" />
<glyph unicode="&#xe0;" d="M129 264q1 243 345 341l31 9q73 24 96 36q51 27 51 74.5t-37.5 86t-100 38.5t-156 -55t-132 -55t-65.5 21.5t-27 57.5q0 75 125 131t249 56t191 -25.5t110 -71.5q69 -74 69 -245q0 -23 -3 -69l-6 -91q-5 -115 -5 -175t35 -132.5t35 -82.5v-20q0 -27 -23 -42 q-56 -37 -143 -37q-40 0 -74 32t-70 32q-8 0 -89.5 -38.5t-127.5 -38.5h-41q-107 0 -172 80t-65 183zM259 1423v4q0 30 73 30h33q86 0 134 -54q178 -200 178 -267q0 -15 -31 -15h-40q-62 0 -128 59q-219 195 -219 243zM345 252q0 -38 26 -64t61 -26h20q68 0 125.5 57.5 t57.5 125.5q2 10 2 15l1 6l1 5l3 30v10l2 26v9q0 27 -31 27h-9l-4 -1q-107 0 -181 -63.5t-74 -135.5v-21z" />
<glyph unicode="&#xe1;" d="M124 257q0 223 291 323q9 3 82.5 24.5t104.5 38.5q51 27 51 75.5t-37.5 87t-102 38.5t-157 -54.5t-132 -54.5t-66.5 20.5t-27 57.5q0 76 126 132.5t285 56.5t249 -78.5t90 -241.5q0 -23 -8 -145.5t-8 -198.5t35.5 -149.5t35.5 -81.5v-20q0 -25 -25 -42q-56 -37 -143 -37 q-43 0 -78 32t-52 32t-106 -39.5t-150 -39.5h-21q-107 0 -172 80t-65 184zM344 259q0 -38 23.5 -66t58.5 -28h30q52 0 113 52t61 116q4 20 4 25l2 10l5 60v24q0 23 -29 23h-9q-15 -3 -25 -3q-101 0 -183 -82q-51 -51 -51 -120v-11zM392 1147q0 21 79.5 134.5t105.5 133.5 q66 51 141 51l6 -1h5q83 0 83 -30v-4q0 -38 -231 -243q-65 -58 -130 -58h-11l-6 1q-42 0 -42 16z" />
<glyph unicode="&#xe2;" d="M124 266q0 129 112 221q69 57 178 94q3 1 80 23.5t108 39.5q52 28 52 75.5t-37.5 86t-105 38.5t-153.5 -54t-129.5 -54t-70 21t-26.5 57q0 72 104 123q135 66 278 66h51q69 0 138 -26q180 -68 180 -294q0 -61 -7.5 -145.5t-7.5 -178.5t12.5 -124.5t34.5 -65.5t22 -63v-21 q0 -26 -24 -42q-54 -36 -144 -36q-41 0 -77 31.5t-56 31.5t-103.5 -39.5t-150.5 -39.5q-112 0 -185 73t-73 202zM212 1155q0 13 82.5 120t127 144.5t94.5 37.5h26q52 0 92.5 -34.5t125 -144t84.5 -122.5q0 -21 -57 -21h-17q-60 0 -131 71q-105 105 -111.5 105t-115.5 -109 q-67 -67 -133 -67h-9q-58 0 -58 20zM345 254q0 -39 25.5 -64.5t61.5 -25.5h20q68 0 125 57t57 121q3 15 3 20l1 6l1 5l3 30v10l2 26v9q0 27 -31 27h-9l-5 -1q-69 0 -160.5 -51t-91.5 -132l-2 -11v-26z" />
<glyph unicode="&#xe3;" d="M125 259v23q0 118 112 207q85 68 268 121q72 21 97 35q52 28 52 74.5t-37.5 87t-101.5 40.5t-157.5 -55t-131.5 -55t-66.5 20.5t-28.5 58.5q0 72 122 130t260 58h50q156 0 247 -97q71 -76 71 -222q0 -59 -7.5 -145t-7.5 -179.5t12 -122.5t35 -65.5t23 -62.5v-20 q0 -26 -25 -43q-53 -36 -143 -36q-39 0 -77 31.5t-55 31.5t-103 -39.5t-151 -39.5q-118 0 -187.5 75t-69.5 189zM189 1198v9q0 71 66 132t136 61h17q51 0 135 -44.5t120 -44.5t77 44.5t70 44.5h16q42 0 42 -31v-8q0 -72 -66 -133t-134 -61h-9l-10 1q-51 0 -134 44t-120 44 t-78 -44.5t-69 -44.5h-8l-8 1q-43 0 -43 30zM345 257q0 -34 23.5 -62t62.5 -28h15q71 0 128.5 57.5t57.5 120.5q3 15 3 20l2 10l4 46v10l1 15q0 31 -26 31h-18q-105 0 -179 -63.5t-74 -130.5v-26z" />
<glyph unicode="&#xe4;" d="M125 238q0 158 111 248q89 74 213 107.5t153 48.5q52 26 52 66q0 71 -42 104.5t-107 33.5t-148 -55t-133 -55t-71.5 24t-21.5 52q0 74 123 132.5t251.5 58.5t194.5 -25t109 -70q72 -74 72 -245l-14 -274l-1 -22q-1 -22 -1 -65.5t36 -115.5t36 -76v-20q0 -34 -39 -52 q-59 -27 -114.5 -27t-90 30t-53.5 30t-108 -38.5t-146 -38.5h-21q-105 0 -172.5 78t-67.5 166zM212 1253v16l4 32q0 38 27.5 65.5t69.5 27.5l8 2l33 2l4 -1l24 -2q4 -1 8 -1q55 0 55 -59q2 -6 2 -11l2 -19v-9l-5 -40q0 -43 -34 -67.5t-91 -24.5h-20l-4 1h-8q-8 2 -11 2 q-64 0 -64 86zM345 265l1 -5l2 -33q0 -13 24.5 -37.5t64.5 -24.5h5q68 0 129 53.5t61 120.5q3 12 3 20l2 10l5 60v24q0 23 -29 23h-9l-25 -3q-87 0 -176 -76q-58 -50 -58 -127v-5zM611 1246v32q3 12 3 20q0 45 33 72.5t94 27.5h16l31 -4q59 0 59 -82v-20l-4 -33 q0 -41 -32.5 -68t-94.5 -27h-16l-31 4q-58 0 -58 78z" />
<glyph unicode="&#xe5;" horiz-adv-x="1066" d="M123 258q0 202 268 303q29 11 105 33.5t103 37.5q49 28 49 75.5t-36.5 87t-102.5 39.5t-155 -55t-136 -55t-68.5 24.5t-21.5 52.5q0 74 124 131.5t282 57.5h24q155 0 246 -97q70 -75 70 -223l-15 -275l-2 -85q0 -61 36 -128.5t36 -82.5v-20q0 -26 -24 -43 q-53 -37 -141 -37q-41 0 -79 31.5t-56.5 31.5t-101 -39t-148.5 -39h-20q-105 0 -170.5 78t-65.5 196zM307 1290v18q0 76 70 125t151 49h7q80 0 144 -45t64 -116v-19q0 -69 -65 -121t-148 -52h-21q-74 0 -138 45t-64 116zM340 254l1 -5l2 -33q0 -13 24.5 -37.5t63.5 -24.5h5 q67 0 129.5 54.5t62.5 134.5q2 10 2 15l4 30v10l2 20v20q0 27 -29 27h-9l-25 -3q-99 0 -166 -67t-67 -141zM441 1289q0 -36 26 -62t43 -26l11 -1h12l3 1h5l11 3q9 0 32 23t23 49l3 20v21q0 41 -26.5 67.5t-53.5 26.5h-9q-32 0 -56 -30t-24 -60v-32z" />
<glyph unicode="&#xe6;" horiz-adv-x="1581" d="M90 309q0 57 36 117q83 139 329 189q192 39 192 82q0 56 -42.5 87t-101 31t-152.5 -53.5t-124.5 -53.5t-54.5 20t-24 60q0 60 113.5 112t244.5 52t205 -35.5t82 -35.5t113.5 37.5t191.5 37.5q170 0 283 -92q62 -50 99.5 -125.5t37.5 -138.5v-30q0 -67 -52 -90 q-36 -16 -248 -28.5t-233 -17.5q-55 -13 -55 -76.5t62.5 -109t141.5 -45.5t177 40t130 40q59 0 59 -63.5t-106.5 -118.5t-235 -55t-197 25t-130 62.5t-76.5 37.5t-67 -33q-137 -88 -281 -88t-230.5 72t-86.5 187zM360 259q0 -39 27.5 -66.5t66.5 -27.5h15q72 0 128.5 56.5 t56.5 154.5v50q0 44 -35 44h-19q-112 0 -176 -64t-64 -126v-21zM928 654q0 -28 35 -28h41l5 1l84 3q164 0 164 46v10l-1 4q0 52 -36.5 103.5t-99.5 51.5h-31q-60 0 -110.5 -59t-50.5 -123v-9z" />
<glyph unicode="&#xe7;" horiz-adv-x="993" d="M88 486q0 246 125 389.5t339 143.5h23q156 0 225 -49q100 -71 100 -182q0 -63 -82 -63q-39 0 -125 58t-169 58t-137 -87.5t-54 -235t58 -233.5q63 -95 175 -95q62 0 127 26t126 26q90 0 90 -47q0 -75 -106 -141q-103 -65 -230 -67q13 -12 13 -48q0 -15 27 -31 q87 -52 87 -127v-22q0 -69 -60.5 -114.5t-142.5 -45.5h-32q-127 0 -127 39v24q0 15 61.5 24.5t91.5 27t30 53t-37 57.5t-37 45.5t37 103.5q4 10 12 15q-71 5 -147 38q-157 69 -225 245q-36 95 -36 215z" />
<glyph unicode="&#xe8;" horiz-adv-x="1045" d="M103 439v46q0 87 36.5 184.5t107.5 170.5t164.5 117.5t195.5 44.5h21q137 0 218.5 -92.5t81.5 -246.5q0 -99 -58 -130q-39 -21 -230 -39t-234 -34q-61 -22 -61 -95t70.5 -130t151 -57t174 34.5t137.5 34.5q56 0 56 -64t-86 -110q-117 -62 -260 -62h-47q-106 0 -185 34 q-150 64 -209 200q-44 101 -44 194zM268 1421q0 35 85 35h29q81 0 134 -60q169 -190 169 -261v-4q0 -13 -33 -13h-22q-59 0 -125 51q-237 184 -237 252zM359 648q0 -26 39 -26h54l5 1l68 3q179 0 179 43v19l-1 4v9q-3 14 -3 18q0 46 -45 84.5t-94 38.5h-27q-15 -3 -26 -3 q-45 0 -96.5 -60t-51.5 -122z" />
<glyph unicode="&#xe9;" horiz-adv-x="1045" d="M103 436v45v5v4v4v4q0 78 39 172q80 193 267 279q95 45 198 45h21q149 0 224 -96t75 -240q0 -99 -59 -127q-35 -16 -227 -39t-215 -29q-77 -20 -77 -75q0 -99 69.5 -154.5t175.5 -55.5q48 0 146 33.5t135 33.5q55 0 55 -61.5t-87 -109.5q-113 -62 -258 -62h-47 q-298 0 -402 258q-32 81 -33 166zM356 640q0 -30 51 -30h37l5 1l87 6l5 1l21 2l5 1l47 1q84 0 84 52v32l-4 29q0 44 -47 77.5t-104 33.5l-6 -1h-11q-10 -2 -16 -2q-60 0 -107 -66t-47 -127v-10zM406 1145v4q0 23 42.5 77.5t82 111t55.5 70.5q62 54 134 54h17q88 0 88 -31v-4 q0 -64 -235 -247q-68 -53 -126 -53h-11q-47 0 -47 18z" />
<glyph unicode="&#xea;" horiz-adv-x="1045" d="M98 434v23q0 240 157.5 391.5t353.5 151.5h21q137 0 220 -93t83 -250q0 -100 -60 -130q-32 -16 -232.5 -39.5t-218.5 -27.5q-80 -19 -80 -74q0 -99 69.5 -157t151.5 -58t178 34.5t139 34.5q56 0 56 -67t-108.5 -119.5t-237.5 -52.5h-9q-122 0 -200 25q-172 55 -247 232 q-36 85 -36 176zM227 1151.5q0 18.5 33 57.5q177 209 184 215q37 31 95 31h9q56 0 94 -29q3 -3 178 -209q39 -46 39 -65t-57 -19h-17q-60 0 -131 71q-105 105 -111.5 105t-52 -45.5t-58.5 -57.5q-79 -73 -131 -73h-16q-58 0 -58 18.5zM359 650q0 -26 38 -26h50l5 1l73 3 q179 0 179 43v19q0 59 -40.5 106.5t-97.5 47.5h-37q-12 -2 -16 -2q-50 0 -101 -59.5t-51 -113.5l-2 -9v-10z" />
<glyph unicode="&#xeb;" horiz-adv-x="1045" d="M100 432v23q0 242 157 393t352 151h21q147 0 234 -106q71 -86 71 -236q0 -109 -76 -137q-43 -16 -211 -31.5t-223 -29.5q-81 -20 -81 -72q0 -103 70.5 -160t177.5 -57q56 0 151 35t138 35q57 0 57 -66.5t-109.5 -119.5t-262.5 -53h-24q-194 0 -313 115q-60 58 -94.5 144 t-34.5 172zM228 1247v24l1 4l2 20q0 45 33.5 73t93.5 28h17l31 -4q55 0 55 -59q2 -8 2 -12l2 -19v-12l-4 -33q0 -32 -25 -62t-72 -30l-25 -3h-32l-23 4q-56 0 -56 81zM361 647q0 -24 51 -24h10l5 1l103 4q176 0 176 45v14q-5 25 -5 37q0 37 -41.5 78.5t-100.5 41.5h-22 q-15 -3 -25 -3q-49 0 -98.5 -58t-49.5 -108l-3 -24v-4zM626 1251v20q0 125 130 125h16l31 -4q56 0 56 -59q2 -8 2 -11l2 -16v-20l-4 -28q0 -37 -27.5 -64.5t-65.5 -27.5q-8 -2 -12 -2l-17 -2h-29q-78 0 -78 63q-2 6 -2 11z" />
<glyph unicode="&#xec;" horiz-adv-x="622" d="M30 1423v4q0 29 68 29l28 3l6 -1q88 0 140 -58q177 -199 177 -264v-4q0 -14 -47 -14h-6q-68 0 -126 45q-104 81 -216 209q-24 27 -24 51zM118 940.5q0 33.5 34 45.5t123 12l26 2l39 1h25q44 0 54 -39q4 -15 4 -279t8 -336t34.5 -145t26.5 -79v-24q0 -27 -30 -55t-74 -28 h-141q-73 0 -97.5 22.5t-24.5 58.5t25.5 87.5t35 109.5t9.5 235.5t-9 224t-38.5 100t-29.5 87z" />
<glyph unicode="&#xed;" horiz-adv-x="622" d="M124 931.5q0 31.5 24 45.5t94 14l106 6l25 1q46 0 56 -39q4 -15 4 -186v-327q2 -30 2 -94.5t34 -140.5t34 -98v-24q0 -40 -52 -72q-19 -12 -80 -12h-105q-81 0 -109 19.5t-28 76.5q0 20 23 66q23 47 35 77q14 36 14 162l1 15v120q0 178 -10 219t-39 90.5t-29 81z M169 1145q0 61 173 256q56 63 142 63h17q88 0 88 -31v-9q0 -59 -240 -246q-64 -50 -121 -50h-12l-5 1q-42 0 -42 16z" />
<glyph unicode="&#xee;" horiz-adv-x="630" d="M1 1153v5q0 12 48 69.5t93 115t64 74.5q40 37 100 37h9q66 0 106 -40q202 -202 202 -259q0 -21 -66 -21t-135 69q-106 106 -111 106t-113 -108q-68 -68 -132.5 -68t-64.5 20zM127 935q0 31 27.5 45.5t130.5 14.5l26 2l65 2q44 0 55 -40q4 -15 4 -286.5t8 -343 t34.5 -136.5t26.5 -80v-24q0 -27 -31 -56t-88 -29h-130q-74 0 -98.5 22.5t-24.5 59.5t25.5 88.5t36 103t10.5 246.5t-10.5 236.5t-38.5 92.5t-28 82z" />
<glyph unicode="&#xef;" horiz-adv-x="630" d="M0 1252v24l4 28q0 42 29.5 66.5t64.5 24.5q8 2 12 2l20 2h16l27 -4q59 0 59 -78v-32l-4 -28q0 -38 -26 -64t-63 -26l-8 -2l-33 -3h-8l-34 5q-53 0 -53 62zM127 938q0 35 30 45q49 17 194 17h25q44 0 55 -40q4 -15 4 -210v-266l2 -112q0 -82 33.5 -160.5t33.5 -108.5v-12 q0 -29 -30 -57t-76 -28h-156q-60 0 -85 23t-25 60t22 81.5t34 80.5q14 42 15 157l1 15v120q0 165 -9 211.5t-38.5 97.5t-29.5 86zM391 1258v12l1 4l5 36q0 31 26.5 57.5t68.5 26.5l25 3h28q79 0 79 -67l3 -23v-20l-4 -28q0 -32 -24 -61t-65 -29q-12 -3 -16 -3l-21 -2h-16 l-31 4q-55 0 -55 59q-2 8 -2 11z" />
<glyph unicode="&#xf0;" horiz-adv-x="1140" d="M148 410q0 236 123 383.5t307 163.5q94 8 94 52q0 58 -64 99q-25 16 -54.5 16t-56.5 -4l-62 -9q-77 0 -77 42q0 27 29.5 65t29.5 57.5t-51 67t-51 66.5q0 44 66 44h24q42 0 127.5 -39t103.5 -39t47 4t60 11t44 7q81 0 81 -44q0 -20 -23 -63.5t-23 -66.5t54 -121 q122 -221 122 -451v-60q0 -141 -37 -259q-74 -235 -253 -315q-81 -37 -173 -37h-26q-167 0 -264 123t-97 307zM392 448q0 -119 47 -213t126 -94h23q61 0 111.5 82t50.5 201l2 20l1 32v41q0 131 -45 214t-132 83l-8 -1q-74 0 -125 -83t-51 -220v-62z" />
<glyph unicode="&#xf1;" horiz-adv-x="1177" d="M92 105q0 34 25 84.5t31 125.5q16 216 16 297t-8 121t-23.5 86.5t-15.5 64.5q0 37 57 58t147 21q38 0 77.5 -33.5t47 -33.5t43.5 24q114 74 207.5 74t157.5 -40t99 -99q54 -92 54 -296t12 -263t38.5 -108t26.5 -63v-22q0 -22 -24 -50t-75 -28q-147 0 -203 31 q-37 21 -37 69q0 14 13 80t13 262.5t-35 279t-114 82.5q-57 0 -102 -29.5t-67 -71.5q-49 -96 -49 -369q0 -36 14 -112t14 -83q0 -71 -55 -100t-207 -29q-78 0 -78 70zM246 1198v8l1 8q0 70 83 140q53 45 120 45t150 -44t121 -44t76 44.5t78 44.5h8q42 0 42 -31v-17 q0 -70 -82 -139q-54 -46 -109 -46h-27q-37 0 -137 44.5t-127 44.5t-68 -44.5t-70 -44.5h-16q-43 0 -43 31z" />
<glyph unicode="&#xf2;" horiz-adv-x="1122" d="M141 442v52q0 104 37 204q75 204 240 282q81 39 167 39h30q164 0 267 -123q48 -56 77.5 -142t29.5 -181v-34q0 -234 -131 -391q-54 -65 -136.5 -108t-176.5 -43h-30q-78 0 -151 33.5t-125 97.5q-98 121 -98 314zM292 1423q0 37 95 37h6q82 0 138 -50q20 -18 67.5 -85.5 t82 -112t34.5 -74.5q0 -18 -42 -18h-23q-64 0 -127 56q-231 205 -231 247zM385 469q0 -134 50.5 -228.5t123.5 -94.5h15l8 1q73 0 118.5 97t45.5 243v22l-1 11l-2 54q0 122 -55.5 202t-122.5 80l-8 -1q-65 0 -117.5 -81.5t-52.5 -207.5l-2 -21v-76z" />
<glyph unicode="&#xf3;" horiz-adv-x="1122" d="M136 433v35q0 119 37.5 220.5t92 167.5t137 112.5t184.5 46.5h30q163 0 268 -123q49 -57 78.5 -143t29.5 -182v-53q-1 -100 -37 -203q-72 -203 -245 -287q-79 -38 -168 -38h-30q-164 0 -270.5 123.5t-106.5 323.5zM384 490l1 -11v-21l2 -21q1 -11 1 -21q0 -111 55 -190.5 t115 -79.5h16l8 1q70 0 115.5 91.5t45.5 193.5q2 22 2 33v44q0 167 -51.5 257t-128.5 90l-8 -1q-65 0 -117.5 -81.5t-52.5 -207.5l-2 -21l-1 -44v-11zM427 1147q0 60 173 255q56 63 142 63h23q82 0 82 -31v-4q0 -37 -236 -247q-61 -54 -126 -54h-11q-47 0 -47 18z" />
<glyph unicode="&#xf4;" horiz-adv-x="1125" d="M137 416v70q0 104 36.5 203t91 168t142 114.5t182.5 45.5h30q170 0 274 -129q105 -129 105 -338v-17q0 -233 -134 -395q-54 -65 -138.5 -109t-179.5 -44h-31q-77 1 -147 31q-134 59 -190 200q-41 104 -41 200zM258 1156q0 13 75.5 111t124.5 143t110 45h9q62 0 99 -34 q8 -7 181 -215q29 -35 29 -52.5t-57 -17.5h-17q-65 0 -130 70q-96 104 -113 104q-5 0 -92 -87t-145 -87h-17q-57 0 -57 20zM385 480q0 -137 49.5 -235.5t126.5 -98.5h16q81 0 127 98.5t46 232.5v44l-1 11l-1 22q-1 11 -1 21q0 114 -61 209q-47 73 -119 73l-8 -1 q-82 0 -128 -99t-46 -233v-44z" />
<glyph unicode="&#xf5;" horiz-adv-x="1122" d="M136 435v35q0 118 38 220q75 202 231 281q92 46 182 46h30h4q67 0 139 -29q141 -57 201 -230q32 -93 32 -189v-53q0 -100 -36.5 -203t-96.5 -172q-133 -153 -316 -153h-31q-166 0 -271 124q-106 124 -106 323zM231 1197v17q0 63 66.5 124t134.5 61h9l9 -1q51 0 134 -44 t120 -44t78 44.5t78 44.5h8q42 0 42 -31v-8q0 -72 -66 -133t-135 -61h-18q-51 0 -135 44.5t-121.5 44.5t-75 -44.5t-70.5 -44.5h-16q-42 0 -42 31zM385 471q0 -123 46.5 -223t127.5 -100h15q77 0 118 82q54 108 54 259v22l-1 11v22l-2 22q-1 11 -1 21q0 113 -55 192t-122 79 h-8q-65 0 -117.5 -82t-52.5 -208l-2 -21v-76z" />
<glyph unicode="&#xf6;" horiz-adv-x="1122" d="M138 434v34l1 18v5q0 102 37 203q38 102 102 176q127 146 326 146l15 -1q164 0 268 -122q46 -54 77 -140.5t31 -185.5v-35l-1 -17q0 -102 -36 -202q-77 -217 -258 -294q-78 -33 -170 -33l-15 1q-167 0 -272 123t-105 324zM254 1255v13l4 32q0 43 32.5 70t92.5 27h21 l34 -5q50 0 50 -60l3 -23v-24q0 -121 -124 -121h-28l-27 4q-58 0 -58 87zM386 491l1 -11v-21q2 -22 2 -32q0 -121 65 -215q46 -66 114 -66h8q67 0 118 83t51 203l2 22v77q0 145 -51.5 235t-120.5 90h-16q-74 0 -123.5 -92.5t-49.5 -250.5v-22zM653 1257v12l4 32 q0 33 25 62.5t68 29.5q8 2 12 2l17 2h28q20 -5 30 -5q52 0 52 -76v-32q0 -52 -26.5 -83.5t-65.5 -31.5q-12 -3 -16 -3l-21 -2h-25q-78 0 -78 62q-2 8 -2 11z" />
<glyph unicode="&#xf7;" horiz-adv-x="1209" d="M129 577v51q0 48 22 52.5t400 4.5h498q74 0 74 -50v-52q0 -54 -15 -60.5t-91 -6.5h-766q-87 0 -104.5 6t-17.5 55zM508 952v18l1 4l2 23q0 59 40.5 88t81.5 29h28q12 -3 19 -3q61 0 61 -66q4 -16 4 -21v-36l-5 -36q0 -43 -36.5 -73.5t-90.5 -30.5h-8l-31 4q-63 0 -63 74z M509 232v13l2 18l3 21q0 67 71 67l23 3h12q123 0 123 -147v-5l-1 -4q0 -113 -86 -113h-28l-24 4q-25 0 -57.5 27t-32.5 75q-3 12 -3 18z" />
<glyph unicode="&#xf8;" horiz-adv-x="1146" d="M138 410l1 20q1 108 41 220q78 217 287 309q86 38 200 38q37 0 80 -6.5t53 -6.5q48 0 81 28q65 55 95 55q40 0 40 -60q0 -18 -28 -63.5t-28 -67.5l43 -115q29 -77 29 -161v-41q0 -106 -43 -220q-86 -228 -306 -312q-73 -28 -184 -28l-131 12q-44 0 -96 -44t-82 -44 q-41 0 -41 45q0 33 32 80.5t32 67t-21 61.5t-37.5 91.5t-16.5 141.5zM375 440l2 -20l2 -27q0 -51 15 -51q5 0 42 58t56 84q202 278 202 316q0 52 -77 52h-31q-79 0 -142.5 -91t-63.5 -198l-3 -22l-2 -38v-63zM480 190q0 -47 81 -47h24q12 2 18 2q63 0 125 89t62 195l4 38 l2 44v21q0 121 -18 121h-4q-3 0 -40.5 -59t-49.5 -76q-204 -281 -204 -317v-11z" />
<glyph unicode="&#xf9;" horiz-adv-x="1163" d="M83 913q0 66 87 66q149 0 183.5 -33.5t34.5 -215.5l4 -168q0 -212 35 -297t136 -85q46 0 90 34t62 78q37 90 37 331q0 46 -18 142t-18 113q0 93 240 93q43 0 52 -42q1 -4 1 -164l-16 -363q0 -118 25.5 -185t25.5 -73v-21q0 -36 -54 -56t-119.5 -20t-103.5 31t-49 31 t-35 -14l-22 -15q-98 -62 -182 -62q-174 0 -256 125q-63 97 -63 346t-38.5 326t-38.5 98zM292 1418v8q0 26 74 26h23q84 0 148 -56q36 -31 106.5 -132t70.5 -123t-46 -22h-22q-54 0 -123 54q-231 180 -231 245z" />
<glyph unicode="&#xfa;" horiz-adv-x="1163" d="M79 916.5q0 28.5 19 43t70 14.5q145 0 181 -32.5t36 -162.5l2 -56q1 -28 1 -57q0 -285 24 -364.5t57.5 -105t86 -25.5t98 34t63.5 80q37 93 37 334q0 47 -18.5 145.5t-18.5 111.5q0 94 242 94q42 0 52 -43q1 -4 1 -115t-9 -230.5t-9 -194.5t10 -114.5t26.5 -84.5 t16.5 -73q0 -38 -58.5 -57t-121 -19t-99 31t-48.5 31t-36 -14l-23 -15q-102 -64 -199 -64q-65 0 -127 28q-60 27 -100 77q-77 96 -77 318l-1 29q-1 29 -1 90.5t-11 143.5t-38.5 138t-27.5 84.5zM439 1145v5q0 17 76.5 126t108.5 137q58 51 135 51h6l5 -1q89 0 89 -30v-4 q0 -64 -245 -255q-59 -46 -111 -46h-17l-6 1q-41 0 -41 16z" />
<glyph unicode="&#xfb;" horiz-adv-x="1163" d="M80 909q0 66 62 66h53q122 0 156 -33t34 -162l1 -28q1 -28 1 -57l2 -56q2 -56 2 -85q0 -211 35 -297.5t138 -86.5q45 0 90 34.5t63 79.5q38 95 38 334q0 42 -18.5 140.5t-18.5 117.5q0 95 241 95q43 0 52 -43q1 -5 1 -116t-8.5 -224t-8.5 -209t25.5 -166t25.5 -78v-21 q0 -37 -54.5 -57t-120 -20t-101.5 31t-49.5 31t-37.5 -14l-22 -15q-100 -63 -190 -63t-158.5 39t-112.5 120t-44 322t-38 318.5t-38 102.5zM259 1155v5q0 9 76.5 108.5t124.5 143.5t108 44h17q55 0 102 -43t124 -143.5t77 -112.5q0 -21 -55 -21h-17q-67 0 -131 69 q-98 106 -114 106q-5 0 -49.5 -44.5t-57.5 -56.5q-80 -74 -129 -74h-17q-59 0 -59 19z" />
<glyph unicode="&#xfc;" horiz-adv-x="1163" d="M83 896v1v22q0 55 72 55h53q121 0 150.5 -38t29.5 -197l2 -56q1 -29 1 -57q0 -258 34.5 -356t127.5 -98q50 0 95 28t65 71q45 99 45 334q0 81 -20 160.5t-20 99.5q0 48 36 71q60 38 193 38q52 0 63 -32q5 -15 5 -114l-1 -25q-1 -25 -1 -54.5t-8 -138t-8 -201t7.5 -129 t26 -86.5t18.5 -68q0 -90 -186 -90q-51 0 -67 11t-35 31.5t-32 20.5t-95.5 -44.5t-155.5 -44.5h-26q-77 0 -139.5 38t-97.5 96q-57 93 -58 357q-1 220 -49 327q-25 56 -25 68zM256 1252v20q0 52 25.5 87.5t78.5 35.5l25 3h24l27 -4q57 0 57 -80v-28q0 -48 -25 -83t-74 -35 l-17 -3h-8l-13 -1h-8q-45 0 -68.5 19t-23.5 69zM655 1246v32q0 52 27 84t69 32q10 2 13 2l16 2h29q82 0 82 -82v-32q0 -120 -134 -120h-8l-4 1h-12q-18 3 -19 3q-59 0 -59 78z" />
<glyph unicode="&#xfd;" horiz-adv-x="1064" d="M106 920q0 44 38.5 59t130.5 15q167 0 167 -139l-1 -22q-1 -22 -1 -45q0 -63 101 -384q13 -42 26 -42t29 46q111 315 111 504q0 51 20 67.5t93 16.5q133 0 133 -58q0 -44 -43 -129.5t-76 -180.5q-262 -745 -306 -827t-122 -144t-152.5 -62t-110 28t-35.5 57q0 51 55 88 q6 4 80 31q169 62 169 235q0 69 -104 355.5t-153 397.5t-49 133zM410 1151q0 20 76 128.5t110 138.5q59 52 136 52h12q89 0 89 -31v-5q0 -65 -251 -260q-55 -43 -113 -43h-11q-48 0 -48 20z" />
<glyph unicode="&#xfe;" horiz-adv-x="1179" d="M133 1344q0 52 177 52h25q68 0 84.5 -31.5t16.5 -109t-2 -131.5l-5 -102q0 -44 30 -44q5 0 29 9q101 38 180 38q166 0 268.5 -136.5t102.5 -340.5v-33q0 -109 -36 -215q-108 -319 -420 -319q-62 0 -102 -33t-40 -59.5t33.5 -88.5t33.5 -99.5t-48 -66.5t-153.5 -29 t-136 13.5t-30.5 39.5t28 102q58 161 58 797v60l-5 239q0 132 -16.5 238.5t-29.5 140.5l-20 41q-22 46 -22 68zM456 442l1 -10l3 -75q1 -9 1 -18q0 -80 39.5 -131.5t99.5 -51.5h22q70 0 114 71q61 99 61 213l2 21l1 43v11q0 134 -45.5 224.5t-119.5 90.5h-14l-7 -1 q-67 0 -118 -74q-34 -49 -34 -149q-2 -18 -2 -28l-2 -19v-19l-2 -49v-49z" />
<glyph unicode="&#xff;" horiz-adv-x="1073" d="M117 924q0 70 134 70h73q55 0 89.5 -38t34.5 -104l-1 -21l-2 -22q0 -116 103 -402q13 -35 18 -35q16 0 28 30q115 281 115 498q0 54 15 74t80 20h50q96 0 96 -63q0 -41 -35 -105t-62 -136t-133 -390t-163.5 -435t-135.5 -183t-148 -66h-25q-66 0 -108 41q-18 17 -18 32 q0 51 42 89q17 15 88 36.5t118 80.5t47 140.5t-102.5 364t-150 388t-47.5 136.5zM241 1257v4l2 20l4 23q0 26 24.5 55.5t71.5 29.5l20 3h33l4 -1h8q10 -3 15 -3q55 0 55 -77v-32q0 -58 -29 -87t-71 -29l-21 -3h-37q-9 3 -19 3q-60 0 -60 94zM644 1253v12l4 32q0 42 32.5 69 t93.5 27h16l31 -4q55 0 55 -56q3 -9 3 -14l2 -20v-8l-5 -40q0 -34 -27 -61t-69 -27l-21 -3h-33l-26 4q-52 0 -52 58q-2 8 -2 11z" />
<glyph unicode="&#x152;" horiz-adv-x="1945" d="M152 677v47q0 150 47 282q98 275 348 370q102 39 247 39l84 -4l81 -8q92 -7 152 -7l151 6l76 4q57 3 141.5 3t180.5 -37.5t96 -95.5q0 -50 -90 -50l-29 1l-31 2q-66 3 -108 3q-167 0 -224.5 -60.5t-57.5 -197.5q0 -56 25.5 -80.5t61.5 -24.5t97.5 19.5t69.5 19.5 q77 0 112 -50q20 -29 20 -132t-22 -131.5t-88 -28.5q-8 0 -71.5 18.5t-120.5 18.5t-76 -26.5t-19 -67.5q0 -185 44.5 -250t190.5 -65q62 0 165.5 9t115.5 9q70 0 70 -42q0 -72 -133 -124q-97 -38 -238 -38q-14 0 -134 9.5t-244 9.5l-282 -19q-276 0 -442 178.5t-166 490.5z M403 668q0 -201 86.5 -347.5t221.5 -146.5h13q109 0 154.5 83t45.5 302l2 29l1 60v151l-1 15l-3 88q-1 15 -1 29q0 169 -45 243.5t-143 74.5h-12q-138 0 -228.5 -145t-90.5 -354v-82z" />
<glyph unicode="&#x153;" horiz-adv-x="1686" d="M76 485v28q0 186 123 313q62 64 150.5 98t175.5 34h30q140 0 251 -68q63 -39 80 -39t68 33t110.5 52t163.5 19q156 0 267 -95q59 -50 92 -120.5t33 -130.5v-26q0 -85 -77 -111q-40 -13 -234.5 -23.5t-212.5 -13.5q-68 -13 -68 -62q0 -77 65 -124.5t143.5 -47.5t177 39.5 t144 39.5t45.5 -50q0 -73 -116 -130t-257 -57t-257 65q-66 37 -84.5 37t-64.5 -29.5t-101 -51.5t-145 -22h-30q-202 0 -339 129q-58 55 -95.5 139t-37.5 175zM378 469q0 -118 46.5 -217.5t123.5 -99.5h23q67 0 112 90.5t45 245.5v32l-1 10v21q-2 22 -2 31q0 96 -46 181 t-122 85l-8 -1q-61 0 -114.5 -77.5t-53.5 -196.5l-2 -21l-1 -31v-52zM1025 648q0 -26 37 -26h38l5 1l80 3q174 0 174 44v19l-1 4q0 70 -47 110t-104 40l-5 -1h-10l-20 -2q-47 0 -97 -58.5t-50 -119.5v-14z" />
<glyph unicode="&#x178;" horiz-adv-x="1296" d="M101 1328q0 52 40 71t154.5 19t152.5 -27.5t38 -102t140 -389.5q35 -79 48 -79q39 0 146 293q46 125 50 144.5t9 64.5t13 58q23 39 126 39h27q131 0 131 -65q0 -55 -60.5 -126t-109.5 -165q-137 -263 -186 -369.5t-49 -228.5t10 -174t32 -104.5t22 -91.5t-36.5 -68.5 t-88.5 -29.5h-137q-142 0 -142 77q0 40 24 95.5t36.5 120t12.5 194.5q0 79 -59.5 205.5t-143.5 285t-142 242.5t-58 111zM321 1651v16l3 24q0 36 29 65t72 29l21 3h31q93 0 93 -71q2 -8 2 -12l2 -20v-8l-5 -36q0 -25 -25 -54.5t-65 -29.5l-17 -3l-22 -2h-17q-98 0 -98 71 q-2 8 -2 12zM735 1647v24q3 12 3 32t26 51t75 31l26 3h21q15 -3 25 -3q74 0 74 -72l3 -24v-16l-4 -28q0 -43 -35 -68t-91 -25h-17l-17 2l-21 3q-65 0 -65 70z" />
<glyph unicode="&#x2c6;" horiz-adv-x="873" d="M118 1195q0 16 28 52q111 144 169 197.5t119 53.5h9q57 0 105 -44q206 -190 206 -255v-5q0 -23 -68 -23h-16q-50 0 -143 85.5t-96 85.5t-49 -46t-59 -58q-73 -67 -133 -67h-8q-64 0 -64 24z" />
<glyph unicode="&#x2dc;" horiz-adv-x="907" d="M107 1252v8q0 63 67 125t138 62h18q54 0 138 -44.5t120 -44.5t79 43t88 43t45 -41v-8q0 -71 -69 -129.5t-135 -58.5h-19q-51 0 -135 44.5t-131 44.5q-24 0 -71 -43t-90 -43t-43 42z" />
<glyph unicode="&#x2000;" horiz-adv-x="919" />
<glyph unicode="&#x2001;" horiz-adv-x="1839" />
<glyph unicode="&#x2002;" horiz-adv-x="919" />
<glyph unicode="&#x2003;" horiz-adv-x="1839" />
<glyph unicode="&#x2004;" horiz-adv-x="613" />
<glyph unicode="&#x2005;" horiz-adv-x="459" />
<glyph unicode="&#x2006;" horiz-adv-x="306" />
<glyph unicode="&#x2007;" horiz-adv-x="306" />
<glyph unicode="&#x2008;" horiz-adv-x="229" />
<glyph unicode="&#x2009;" horiz-adv-x="367" />
<glyph unicode="&#x200a;" horiz-adv-x="102" />
<glyph unicode="&#x2010;" horiz-adv-x="763" d="M88 499v51l1 7q0 81 37 89.5t266 8.5l136 2h94q50 0 50 -34v-47q0 -91 -28 -103.5t-279 -12.5l-71 -3h-15l-86 -4h-15l-23 -1h-23q-44 0 -44 47z" />
<glyph unicode="&#x2011;" horiz-adv-x="763" d="M88 499v51l1 7q0 81 37 89.5t266 8.5l136 2h94q50 0 50 -34v-47q0 -91 -28 -103.5t-279 -12.5l-71 -3h-15l-86 -4h-15l-23 -1h-23q-44 0 -44 47z" />
<glyph unicode="&#x2012;" horiz-adv-x="763" d="M88 499v51l1 7q0 81 37 89.5t266 8.5l136 2h94q50 0 50 -34v-47q0 -91 -28 -103.5t-279 -12.5l-71 -3h-15l-86 -4h-15l-23 -1h-23q-44 0 -44 47z" />
<glyph unicode="&#x2013;" horiz-adv-x="1072" d="M58 532v52q0 58 45 65q19 3 453 3l332 1q86 0 105 -7.5t19 -46.5v-52q-2 -20 -2 -30q0 -38 -74 -38h-809q-69 0 -69 53z" />
<glyph unicode="&#x2014;" horiz-adv-x="1871" d="M72 535v17q0 52 9.5 67.5t43 19.5t846.5 4l671 1h56q65 0 82 -11t17 -55v-17q0 -81 -59 -88q-17 -2 -820 -2h-577l-76 -1h-113q-47 0 -63.5 11.5t-16.5 53.5z" />
<glyph unicode="&#x2018;" horiz-adv-x="569" d="M142 1043v34q0 139 72 251q47 73 98 104.5t74 31.5h6q37 0 37 -45q0 -19 -18.5 -41t-22.5 -28l-18 -26q-38 -67 -38 -103.5t22 -56.5q62 -55 62 -154q0 -124 -125 -124h-16q-73 0 -103 37t-30 120z" />
<glyph unicode="&#x2019;" horiz-adv-x="569" d="M138 918v5q0 17 26 47q78 90 78 166q0 19 -22.5 41.5t-39 51t-16.5 103.5q0 124 119 124h30q62 0 91 -29t29 -100v-42q-3 -24 -3 -42q0 -110 -88 -237.5t-170 -127.5q-34 0 -34 40z" />
<glyph unicode="&#x201a;" horiz-adv-x="592" d="M143 -236q0 12 24.5 45t47.5 73t23 94q0 20 -26 53q-34 56 -34 126.5t26 106t86 35.5h38q63 0 87.5 -24.5t24.5 -70.5l2 -16v-41q-3 -24 -3 -42q0 -116 -87 -251t-167 -135h-7q-35 0 -35 37v10z" />
<glyph unicode="&#x201c;" horiz-adv-x="958" d="M145 1041v42q0 134 71 244q44 69 95.5 102t76.5 33h7q37 0 37 -45q0 -5 -47.5 -79t-47.5 -134q0 -20 24.5 -44.5t27.5 -29.5q31 -49 31 -116q0 -130 -119 -130h-31q-69 0 -97 37t-28 120zM570 1040v42l4 51q0 89 77 209t158 120h6q34 0 34 -39v-11q-1 -8 -27 -43 q-70 -93 -70 -164q0 -15 26 -44.5t29 -34.5q28 -51 28 -119q0 -123 -114 -123h-23q-76 0 -102 39t-26 117z" />
<glyph unicode="&#x201d;" horiz-adv-x="959" d="M116 920q0 4 51 78t51 142q0 15 -17 32l-20 20q-38 48 -38 124.5t31 107.5t104 31l7 -1q71 0 99.5 -28.5t28.5 -116.5v-17q0 -149 -63 -247t-114.5 -133.5t-76.5 -35.5h-13q-30 0 -30 44zM539 914v6q0 12 28 46q77 92 77 165q0 20 -19 39t-38 49t-19 100t29.5 102.5 t93.5 32.5h15q68 0 95.5 -30.5t27.5 -114.5v-9l-1 -8q0 -149 -73 -263q-98 -153 -177 -153h-12q-27 0 -27 38z" />
<glyph unicode="&#x201e;" horiz-adv-x="970" d="M119 -234q0 17 15 36q79 99 79 175q0 16 -20 46q-19 30 -31 57q-12 26 -12 92q0 130 121 130h30q67 0 91 -26.5t24 -109.5v-8l-1 -9l-2 -41q0 -112 -61.5 -214.5t-111.5 -137t-74 -34.5h-13q-34 0 -34 44zM541 -234q0 13 28 49q69 89 69 167q0 13 -17.5 37.5t-31 52 t-13.5 97.5q0 133 114 133h22q71 0 94.5 -26t23.5 -92v-41q0 -148 -73 -262q-102 -159 -178 -159h-6q-32 0 -32 44z" />
<glyph unicode="&#x2022;" horiz-adv-x="956" d="M226 630v30q0 113 72 204.5t173 91.5h25q94 0 164 -82.5t70 -200.5v-20q0 -120 -74.5 -208t-170.5 -88h-33q-92 0 -159 85t-67 188z" />
<glyph unicode="&#x2026;" horiz-adv-x="1843" d="M172 173v37q2 10 2 14q0 103 117 103h25q15 -3 25 -3q55 0 88 -38.5t33 -111.5v-26q0 -118 -90 -118l-34 -4h-20q-15 3 -25 3q-50 0 -85.5 35.5t-35.5 108.5zM780 173v36q0 54 25 84t70 30l24 3h25q78 0 111 -38.5t33 -92.5l3 -26v-16l-1 -5l-2 -25q0 -97 -116 -97h-20 l-5 1h-10q-10 2 -15 2q-56 0 -89 38.5t-33 105.5zM1388 193v10l2 20q0 103 117 103h26q59 0 100.5 -29.5t41.5 -90.5q3 -15 3 -21l1 -26v-10l-2 -20q0 -44 -24 -72t-74 -28l-29 -3h-10l-5 1h-11q-10 2 -14 2q-65 0 -92 43t-28 67t-1 28z" />
<glyph unicode="&#x202f;" horiz-adv-x="367" />
<glyph unicode="&#x2039;" horiz-adv-x="695" d="M108 538v10q0 38 281 338q66 70 110 70h9q48 0 48 -44v-17q0 -27 -118.5 -188t-118.5 -169.5t118 -158t118 -205.5q0 -45 -53.5 -45t-122.5 78q-271 307 -271 331z" />
<glyph unicode="&#x203a;" horiz-adv-x="695" d="M142 173v8q0 44 120.5 199t120.5 165t-119.5 161.5t-119.5 195.5q0 55 51 55h9q43 0 180 -164q197 -236 197 -255.5t-171 -213.5t-219.5 -194t-48.5 43z" />
<glyph unicode="&#x205f;" horiz-adv-x="459" />
<glyph unicode="&#x20ac;" horiz-adv-x="1212" d="M102 564.5q0 35.5 43.5 65t43.5 54.5q0 56 -30 75l-57 36q0 45 53 97q95 93 153 200q108 197 287 256q102 33 218 33h36q116 0 177 -52.5t61 -120.5t-59 -68q-3 0 -77 20.5t-149.5 20.5t-144 -43.5t-68.5 -98.5q0 -34 28 -57.5t66 -33.5l27 -5l29 -6q37 -9 53 -16 q50 -23 50 -66t-49 -62q-17 -7 -150.5 -20t-147.5 -20q-33 -17 -33 -66q0 -42 165 -62t165 -56q0 -49 -46 -81q-16 -10 -74 -26q-124 -33 -124 -95q0 -68 95 -125q70 -42 146 -42t162 20.5t90 20.5q57 0 57 -57q0 -80 -94 -134q-92 -53 -221 -53h-5q-359 0 -488 284 q-84 184 -123 208q-65 40 -65 75.5z" />
<glyph unicode="&#x2122;" horiz-adv-x="1716" d="M98 1336q0 73 39 84q14 4 231 4l170 2h26q40 0 56.5 -16.5t16.5 -62.5v-30q0 -50 -35 -50q-10 0 -51.5 14.5t-57.5 14.5q-38 0 -49 -58q-5 -27 -5 -176.5t4 -185.5t19.5 -76t15.5 -59q0 -42 -59 -42h-118q-47 0 -47 48q0 14 17 49.5t20 82t3 193t-6 171.5q-12 48 -57 48 l-107 -28q-26 0 -26 73zM768 767q0 6 19 79.5t19 230t-4 179t-12 58t-8 42.5q0 48 78 48h25q85 0 129 -54q16 -19 90.5 -188.5t79 -169.5t77.5 164.5t96 193.5q44 54 131 54t87 -53q0 -4 -9.5 -61t-9.5 -205t17.5 -212.5t17.5 -94.5q0 -49 -76 -49h-20q-36 0 -63.5 26.5 t-27.5 71.5l7 92v54l1 54q0 146 -20 146q-14 0 -86 -176t-78 -187q-29 -48 -76 -48q-32 0 -116.5 208.5t-97.5 208.5q-20 0 -20 -179l3 -129l1 -47l1 -19q0 -73 -77.5 -73t-77.5 35z" />
<glyph unicode="&#x25fc;" horiz-adv-x="1014" d="M0 0v1015h1015v-1015h-1015z" />
</font>
</defs>
</svg>
