<?xml version="1.0" standalone="no"?>
<!DOCTYPE svg PUBLIC "-//W3C//DTD SVG 1.1//EN" "http://www.w3.org/Graphics/SVG/1.1/DTD/svg11.dtd" >
<svg xmlns="http://www.w3.org/2000/svg" xmlns:xlink="http://www.w3.org/1999/xlink" version="1.1">
<metadata></metadata>
<defs>
<font id="cubellanregular" horiz-adv-x="1228" >
<font-face units-per-em="2048" ascent="1638" descent="-410" />
<missing-glyph horiz-adv-x="819" />
<glyph horiz-adv-x="0" />
<glyph horiz-adv-x="0" />
<glyph unicode="&#xd;" horiz-adv-x="0" />
<glyph unicode=" "  horiz-adv-x="819" />
<glyph unicode="&#x09;" horiz-adv-x="819" />
<glyph unicode="&#xa0;" horiz-adv-x="819" />
<glyph unicode="!" horiz-adv-x="368" d="M82 41h78h127v-205h-205v205zM82 123v942h205v-942h-205z" />
<glyph unicode="&#x22;" horiz-adv-x="368" d="M41 1024v123h123v-123q-4 -31 -21 -123h-82q-4 31 -20 123zM205 1024v123h123v-123q-4 -31 -21 -123h-82q-4 31 -20 123z" />
<glyph unicode="#" horiz-adv-x="942" d="M47 266q4 37 21 144h184q4 31 12 75l6 45h-69h-117q8 47 20 144q46 0 191 2q6 45 27 184h145q-6 -45 -27 -184h123q6 45 27 184h145q-6 -45 -26 -184h184q-6 -37 -23 -144h-182q-4 -31 -18 -122h184q-6 -37 -23 -144h-186q-8 -45 -29 -184h-90h-53l10 70t19 114h-123 q-8 -45 -29 -184h-143q6 45 26 184h-186zM391 408h76h45l6 45q8 46 14 77h-122q-4 -31 -19 -122z" />
<glyph unicode="$" horiz-adv-x="1105" d="M82 238v28q51 4 205 21v-41t24 -56q27 -25 58 -24h82v123h163v-123h125q39 0 60 20q20 20 20 62v164q0 41 -20 61t-66 21h-405q-123 0 -185 61q-61 61 -61 184t65 185q68 61 181 61h123v164h163v-164h164q82 0 123 -41t41 -123v-22q-51 -4 -205 -21v41h-123v-41h-163v41 h-82q-41 0 -62 -20q-20 -20 -20 -62q0 -41 20 -61t62 -21h409q123 0 185 -61q61 -61 61 -184v-82v-82q0 -123 -61 -185q-61 -61 -185 -61h-164v-164h-163v164h-123q-123 0 -185 61q-61 61 -61 177z" />
<glyph unicode="%" horiz-adv-x="1271" d="M102 821q0 102 72 174t174 72t174 -72t72 -174t-72 -174t-174 -72t-174 72t-72 174zM205 821q0 -61 41 -102t102 -41t103 41q41 41 41 102t-41 103q-41 41 -103 41q-61 0 -102 -41t-41 -103zM225 0q154 287 615 1147h164q-154 -287 -615 -1147h-164zM678 330 q0 102 72 174t174 71q102 0 174 -71q72 -72 71 -174q0 -102 -71 -174q-72 -72 -174 -72t-174 72t-72 174zM780 330q0 -61 41 -103q41 -41 103 -41q61 0 102 41q41 42 41 103t-41 102t-102 41t-103 -41q-41 -41 -41 -102z" />
<glyph unicode="&#x26;" horiz-adv-x="1064" d="M82 246v123q0 39 8 71q10 35 27 64q20 33 55 45l33 12v129v129q0 123 61 185q61 61 185 61h184q-5 -41 -21 -164h-122q-41 0 -62 -20q-20 -20 -20 -62v-147v-99h327v123q51 4 205 21v-144h123v-81v-82h-61h-62v-164q0 -123 -61 -185q-61 -61 -185 -61h-368 q-123 0 -185 61q-61 61 -61 185zM287 246q0 -41 20 -62q20 -20 62 -20h286q41 0 62 20q20 20 20 62v39v125h-368q-41 0 -62 -21q-20 -20 -20 -61v-82z" />
<glyph unicode="'" horiz-adv-x="204" d="M41 1024v123h123v-123q-4 -31 -21 -123h-82q-4 31 -20 123z" />
<glyph unicode="(" horiz-adv-x="327" d="M41 573q0 164 41 287t123 287h82q-66 -164 -94 -287q-29 -123 -29 -287t26 -286q27 -123 97 -287h-82q-82 164 -123 287t-41 286z" />
<glyph unicode=")" horiz-adv-x="327" d="M41 0q70 164 96 287q27 123 27 286q0 164 -29 287t-94 287h82q82 -164 123 -287t41 -287t-41 -286q-41 -123 -123 -287h-82z" />
<glyph unicode="*" horiz-adv-x="901" d="M82 492q19 38 74 151q53 -23 213 -94v229h163v-229q53 25 213 94q18 -37 74 -151q-57 -25 -225 -103q37 -53 143 -211q-37 -25 -143 -102q-37 49 -143 196q-37 -49 -144 -196q-37 27 -143 102q37 53 143 211q-57 25 -225 103z" />
<glyph unicode="+" horiz-adv-x="819" d="M82 369v163h246v246h164q0 -61 -3 -246h248v-163h-245v-246h-164q0 61 -4 246h-242z" />
<glyph unicode="," horiz-adv-x="327" d="M41 -82q10 21 41 82v164h164v-164q-31 -20 -123 -82h-82z" />
<glyph unicode="-" horiz-adv-x="737" d="M82 369v163h573v-163h-573z" />
<glyph unicode="." horiz-adv-x="327" d="M82 0v164h164v-164h-164z" />
<glyph unicode="/" horiz-adv-x="450" d="M0 0l106 430q109 430 181 717h164q-72 -287 -287 -1147h-164z" />
<glyph unicode="0" d="M123 164v737q0 82 41 123t123 41h655q82 0 123 -41t41 -123v-737q0 -82 -41 -123t-123 -41h-655q-82 0 -123 41t-41 123zM328 164h573q0 184 -2 737h-571v-737zM553 410v245h123v-245h-123z" />
<glyph unicode="1" horiz-adv-x="512" d="M61 860v123l82 82h246v-666v-399h-78h-127v860h-123z" />
<glyph unicode="2" d="M123 0v410q0 123 61 184t185 61h532v246h-573v-82q-51 -10 -205 -41v86v37q0 82 41 123t123 41h655q82 0 123 -41t41 -123v-246q0 -82 -41 -123t-123 -40h-532q-41 0 -62 -21q-20 -20 -20 -61v-246h737q10 -41 41 -164h-983z" />
<glyph unicode="3" horiz-adv-x="1187" d="M82 246q55 6 164 20v-20q0 -41 20 -62q20 -20 62 -20h450q41 0 62 20q20 20 20 62v205q0 41 -20 61t-62 20h-491q123 92 491 369h-676q-4 41 -20 164h983v-164q-72 -51 -287 -205h41q123 0 185 -61q61 -61 61 -184v-205q0 -123 -61 -185q-61 -61 -185 -61h-491 q-123 0 -185 61q-61 61 -61 185z" />
<glyph unicode="4" horiz-adv-x="1187" d="M123 451v614h205v-614h256t153 0v229v385h205v-614h164q-4 -41 -21 -164h-143v-287h-205v287h-450q-82 0 -123 41t-41 123z" />
<glyph unicode="5" horiz-adv-x="1249" d="M102 246q55 6 164 20v-20q0 -41 21 -62q20 -20 61 -20h492q41 0 61 20t21 62v205q0 41 -21 61q-20 20 -61 20h-656q20 133 52 334q31 201 30 201h291h487q-10 -41 -26 -102t-17 -62q-190 0 -571 -2q-8 -51 -33 -205h484q123 0 184 -61t61 -184v-99v-106q0 -123 -61 -185 q-61 -61 -184 -61h-533q-123 0 -184 61t-62 185z" />
<glyph unicode="6" horiz-adv-x="1208" d="M123 246v573q0 123 61 185q61 61 185 61h491q123 0 184 -61t62 -185q-55 -6 -164 -20v20q0 41 -20 62q-20 20 -62 20h-231h-223q-37 0 -58 -20q-20 -20 -20 -62v-51v-113h532q123 0 184 -61t62 -184v-164q0 -123 -62 -185q-61 -61 -184 -61h-491q-123 0 -185 61 q-61 61 -61 185zM328 246q0 -41 20 -62q20 -20 62 -20h409q41 0 62 20q20 20 20 62v164q0 41 -20 61t-62 21h-491v-246z" />
<glyph unicode="7" horiz-adv-x="1126" d="M61 840v61q0 82 41 123t123 41h819v-205l-368 -860h-205q92 215 369 860v41h-576q0 -20 2 -82q-51 5 -205 21z" />
<glyph unicode="8" d="M123 246v123q0 123 41 163q41 41 123 41q-41 0 -82 41t-41 123v103v61q0 82 41 123t123 41h573q82 0 123 -41t41 -123v-205q0 -82 -41 -102t-82 -21q82 0 123 -41t41 -163v-123q0 -123 -62 -185q-61 -61 -184 -61h-491q-123 0 -185 61q-61 61 -61 185zM328 246 q0 -41 20 -62q20 -20 62 -20h409q41 0 62 20q20 20 20 62v80v63q0 41 -20 62q-20 20 -62 20h-184h-225q-41 0 -62 -20q-20 -20 -20 -62v-143zM369 676h491v225h-491v-225z" />
<glyph unicode="9" d="M123 246q55 6 164 20v-20q0 -41 20 -62q20 -20 62 -20h231h223q37 0 58 20q20 20 20 62v51v113h-532q-123 0 -185 61q-61 61 -61 184v164q0 123 61 185q61 61 185 61h491q123 0 184 -61t62 -185v-573q0 -123 -62 -185q-61 -61 -184 -61h-491q-123 0 -185 61 q-61 61 -61 185zM328 655q0 -41 20 -61t62 -21h491v246q0 41 -20 62q-20 20 -62 20h-409q-41 0 -62 -20q-20 -20 -20 -62v-164z" />
<glyph unicode=":" horiz-adv-x="327" d="M82 0v164h164v-164h-164zM82 410v163h164v-163h-164z" />
<glyph unicode=";" horiz-adv-x="327" d="M41 -82q10 21 41 82v164h164v-164q-31 -20 -123 -82h-82zM82 410v163h164v-163h-164z" />
<glyph unicode="&#x3c;" horiz-adv-x="737" d="M82 369v163q143 51 573 205v-137v-27q-92 -31 -368 -122q92 -31 368 -123v-164q-143 51 -573 205z" />
<glyph unicode="=" horiz-adv-x="1146" d="M0 205v164h614v-164h-614zM0 532v164h614v-164h-614z" />
<glyph unicode="&#x3e;" horiz-adv-x="737" d="M82 164v164q92 31 369 123q-92 31 -369 122v164q143 -51 573 -205v-163q-143 -51 -573 -205z" />
<glyph unicode="?" horiz-adv-x="1269" d="M164 696v123q0 123 82 185q82 61 205 61h409q123 0 184 -61t62 -185v-246q0 -123 -62 -184q-61 -61 -184 -61h-164v-205h-204v207q0 82 40 123q41 41 123 41h82h82t62 20q20 20 20 61v246q0 41 -20 62q-20 20 -62 20h-368q-41 0 -62 -20q-20 -20 -20 -62v-145 q-51 4 -205 20zM492 41h204v-164h-204v164z" />
<glyph unicode="@" d="M82 369v204q0 104 43 193q41 88 125 160q82 70 182 104q102 35 223 35h107h139q117 0 201 -78q86 -78 86 -209v-581q0 -82 -41 -119t-82 -37h-123q-41 0 -82 41t-41 123v10v10q-41 -20 -61 -30l-62 -31h-123q-66 0 -112 16q-47 18 -78 53q-29 31 -41 74q-14 45 -14 103 v41q0 123 20 178q23 55 66 100q43 47 102 68q57 23 139 22h195h92v-655h123v614q0 80 -41 123q-41 41 -123 41h-143h-103q-96 0 -174 -27t-137 -81q-68 -59 -104 -138q-35 -76 -35 -164v-122q0 -82 18 -154q16 -74 64 -106q45 -35 92 -52q45 -16 125 -16h233q31 -20 123 -82 h-211h-192q-82 0 -146 16q-63 16 -118 58q-53 39 -82 112q-29 74 -29 183zM492 451q0 -82 26 -103q25 -20 53 -20h123l82 41v286h-71h-52q-82 0 -123 -41q-40 -40 -38 -163z" />
<glyph unicode="A" horiz-adv-x="1187" d="M20 0h228q18 41 71 164h578l72 -164h125t73 0l-168 399q-170 399 -282 666h-246q-113 -266 -451 -1065zM385 328q55 131 223 524q53 -131 217 -524h-440z" />
<glyph unicode="B" horiz-adv-x="1351" d="M123 0v1065h696q123 0 185 -61q61 -61 61 -185v-164q82 0 143 -61t62 -143v-205q0 -123 -62 -185q-61 -61 -184 -61h-901zM326 655h266h266v164q0 41 -20 62q-20 20 -62 20h-450v-246zM328 164h649q45 0 65 20q21 21 23 62v82v82t-21 61q-20 20 -61 21h-655v-328z" />
<glyph unicode="C" horiz-adv-x="1372" d="M123 246v573q0 123 61 185q61 61 185 61h655q123 0 184 -61t62 -185v-102q-51 -4 -205 -21v123q0 41 -21 62q-20 20 -61 20h-573q-41 0 -62 -20q-20 -20 -20 -62v-571q0 -43 20 -64q20 -20 62 -20h573q41 0 61 20t21 62v123q51 -4 205 -21v-31v-71q0 -123 -62 -185 q-61 -61 -184 -61h-655q-123 0 -185 61q-61 61 -61 185z" />
<glyph unicode="D" horiz-adv-x="1372" d="M123 0v1065h860q123 0 205 -82t82 -205v-491q0 -123 -82 -205t-205 -82h-860zM328 164h573q82 0 123 41t41 123v409q0 82 -41 123t-123 41h-573v-737z" />
<glyph unicode="E" horiz-adv-x="1044" d="M123 0v465v598h563h277q-7 -56 -21 -162h-614v-287h491q-4 -41 -20 -163h-471v-287h635v-164h-840z" />
<glyph unicode="F" horiz-adv-x="962" d="M123 0v1065h819q-4 -41 -20 -164h-594v-158v-170h491q-4 -41 -20 -163h-471v-283v-127h-78h-127z" />
<glyph unicode="G" horiz-adv-x="1392" d="M123 246v573q0 123 61 185q61 61 185 61h655q123 0 184 -61t62 -185v-61q-51 -4 -205 -21v82q0 41 -21 62q-20 20 -61 20h-569q-45 0 -66 -20q-20 -20 -20 -62v-573q0 -41 20 -62q20 -20 62 -20h573q41 0 61 20t21 66v162q-98 0 -389 -2q4 41 20 163h574v-143v-184 q0 -123 -62 -185q-61 -61 -184 -61h-655q-82 0 -164 61t-82 185z" />
<glyph unicode="H" horiz-adv-x="1392" d="M123 0v1065h205v-451h737v451h205v-1065h-205v451h-461h-276v-168v-283h-205z" />
<glyph unicode="I" horiz-adv-x="450" d="M123 0v1065h205v-666v-399h-78h-127z" />
<glyph unicode="J" horiz-adv-x="819" d="M41 246v51v31q68 14 205 41v-123q0 -41 20 -62q20 -20 62 -20h82q41 0 61 20t21 62v819h204v-819q0 -123 -61 -185q-61 -61 -184 -61h-164q-123 0 -185 61q-61 61 -61 185z" />
<glyph unicode="K" horiz-adv-x="1085" d="M123 0v1065h205v-492q119 123 471 492h286q-139 -143 -553 -573q139 -123 553 -492h-299q-100 86 -397 348l-61 -61v-287h-205z" />
<glyph unicode="L" horiz-adv-x="716" d="M123 0v1065h205v-901h368q-10 -41 -41 -164h-532z" />
<glyph unicode="M" horiz-adv-x="1638" d="M123 0v1065h205q121 -121 483 -487q125 123 500 487h205v-1065h-205v770q-121 -117 -480 -467q-127 125 -503 500v-803h-205z" />
<glyph unicode="N" horiz-adv-x="1392" d="M123 0v1065h205q184 -195 737 -778v778h205v-1065h-205q-184 195 -737 778v-778h-205z" />
<glyph unicode="O" horiz-adv-x="1392" d="M123 246v368v205q0 123 61 185q61 61 185 61h424h231q123 0 184 -61t62 -185v-368v-205q0 -123 -62 -185q-61 -61 -184 -61h-424h-231q-123 0 -185 61q-61 61 -61 185zM328 246q0 -41 20 -62q20 -20 62 -20h292h281q41 0 61 20t21 70v283v282q0 41 -21 62q-20 20 -63 20 h-293h-278q-41 0 -62 -20q-20 -20 -20 -58v-299v-278z" />
<glyph unicode="P" d="M123 0v1065h819q123 0 184 -61t62 -185v-164q0 -123 -62 -184q-61 -61 -184 -61h-614v-410h-205zM328 573h573q41 0 62 21q20 20 20 61v68v96q0 41 -20 62q-20 20 -62 20h-573v-328z" />
<glyph unicode="Q" horiz-adv-x="1392" d="M123 246v573q0 123 61 185q61 61 185 61h655q123 0 184 -61t62 -185v-573q0 -123 -62 -185q-61 -61 -184 -61h-39q12 -27 39 -82h-164q-14 27 -41 82h-450q-123 0 -185 61q-61 61 -61 185zM328 246q0 -41 20 -62q20 -20 62 -20h141h186q-14 27 -41 82h84h80 q14 -27 41 -82h82q41 0 61 20t21 62q4 100 4 200v86q-4 141 -4 287q0 41 -21 62q-20 20 -61 20h-573q-41 0 -62 -20q-20 -20 -20 -62v-573z" />
<glyph unicode="R" horiz-adv-x="1351" d="M123 0v1065h901q123 0 184 -61t62 -185v-164q0 -123 -62 -184q-61 -61 -184 -61h-45q96 -137 291 -410h-246q-96 137 -287 410h-409v-410h-205zM328 573h655q41 0 61 21q20 20 21 61v164q0 41 -21 62q-20 20 -59 20h-657v-328z" />
<glyph unicode="S" horiz-adv-x="1290" d="M102 238v90h205v-82q0 -31 25 -56q27 -25 57 -24h535q39 0 59 20t21 62v164q0 41 -21 61q-20 20 -65 21h-570q-123 0 -184 61t-62 184v82q0 123 62 185q61 61 184 61h615q82 0 122 -41q41 -41 41 -123v-84h-204v82h-533q-41 0 -61 -20t-21 -62v-82q0 -41 21 -61 q20 -20 61 -21h574q123 0 184 -61t61 -184v-164q0 -123 -61 -185q-61 -61 -184 -61h-615q-123 0 -184 61t-62 177z" />
<glyph unicode="T" horiz-adv-x="901" d="M18 901q0 41 2 164h861v-164h-328v-901h-129h-78v338v563h-328z" />
<glyph unicode="U" horiz-adv-x="1392" d="M123 246v819h205v-819q0 -41 20 -62q20 -20 62 -20h573q41 0 61 20t21 62v819h205v-819q0 -123 -62 -185q-61 -61 -184 -61h-655q-123 0 -185 61q-61 61 -61 185z" />
<glyph unicode="V" horiz-adv-x="1200" d="M20 1065h205q92 -225 369 -901q92 225 369 901h217q-113 -266 -451 -1065h-258q-113 266 -451 1065z" />
<glyph unicode="W" horiz-adv-x="1523" d="M20 1065h185q47 -197 184 -782q82 119 330 475h82q80 -121 313 -479q47 197 191 786h122h78l-88 -399q-86 -399 -145 -666h-185q-80 119 -317 475q-84 -119 -334 -475h-188q-58 266 -228 1065z" />
<glyph unicode="X" d="M0 0q123 137 492 551q-113 129 -451 514h233q82 -96 328 -387q86 96 340 387h252q-115 -133 -463 -537q115 -131 457 -528h-232q-86 100 -344 401q-86 -100 -340 -401h-272z" />
<glyph unicode="Y" horiz-adv-x="1105" d="M0 1065h213l328 -492q82 123 327 492h238q-113 -174 -451 -696v-162v-207h-204v369q-113 174 -451 696z" />
<glyph unicode="Z" horiz-adv-x="1351" d="M82 0v205q225 174 563 436l338 262h-307q-308 0 -533 -2q-4 41 -20 164h1106q4 -51 20 -205q-221 -174 -880 -696h880v-164h-1167z" />
<glyph unicode="[" horiz-adv-x="368" d="M82 0v1147h246v-82h-82v-983h82v-82h-246z" />
<glyph unicode="\" horiz-adv-x="450" d="M0 1147h164q72 -287 178 -717t107 -430h-162q-72 287 -287 1147z" />
<glyph unicode="]" horiz-adv-x="368" d="M41 0v82h82v983h-82v82h246v-1147h-246z" />
<glyph unicode="_" horiz-adv-x="1146" d="M0 82h778v-164h-778v164z" />
<glyph unicode="`" horiz-adv-x="204" d="M41 1024v123h123v-123q10 -31 41 -123h-82q-20 31 -82 123z" />
<glyph unicode="a" horiz-adv-x="1126" d="M102 164v205q0 82 41 123q40 40 119 40h4h533v82q0 41 -21 62q-20 20 -61 20h-553q-4 41 -21 164h615q123 0 184 -61t62 -185v-614h-205v51v31l-41 -21q-41 -20 -123 -61h-369q-82 0 -123 41t-41 123zM307 164h328q82 41 123 61t41 21v123h-492v-205z" />
<glyph unicode="b" d="M123 -2v1149q51 4 205 20v-307h532q123 0 184 -61t62 -185v-368q0 -123 -62 -185q-61 -61 -184 -61h-409q-41 20 -62 31q-20 10 -61 30v-22v-41h-205zM328 223q41 -20 61 -30l62 -31h368q41 0 62 20q20 20 20 62v368q0 41 -20 62q-21 20 -62 20h1h-220h-272v-471z" />
<glyph unicode="c" horiz-adv-x="1167" d="M125 164v532q0 82 41 123t123 41h614q82 0 123 -41t41 -123v-102q-51 -5 -207 -21v123h-532v-532h334t200 0v45v78q68 -6 205 -21v-102q0 -82 -41 -123t-123 -41h-614q-82 0 -123 41t-41 123z" />
<glyph unicode="d" d="M123 246v368q0 123 61 185q61 61 185 61h532v287q51 4 205 20v-1167h-205v39t0 22q-41 -20 -61 -30l-62 -31h-409q-123 0 -185 61q-61 61 -61 185zM328 246q0 -41 20 -62q20 -20 62 -20h368q41 20 62 31q20 10 61 30v471h-272h-218h1q-41 0 -62 -20q-20 -21 -22 -62v-368 z" />
<glyph unicode="e" horiz-adv-x="1167" d="M123 164v532q0 82 41 123t123 41h614q82 0 123 -41t41 -123v-202q0 -84 -41 -125t-123 -41h-573v-164h696q-4 -41 -20 -164h-717q-82 0 -123 41t-41 123zM328 492h334t200 0v77q0 76 -2 127h-532v-204z" />
<glyph unicode="f" horiz-adv-x="696" d="M82 614v164h82v123q0 123 61 184t185 62h286v-164h-245q-41 0 -62 -20q-20 -20 -20 -62v-123h245q-10 -41 -41 -164h-204v-614h-205v614h-82z" />
<glyph unicode="g" horiz-adv-x="1208" d="M61 -41q0 82 41 123t123 41q33 0 23 0t39 0q6 -41 20 -123h-82v-41q0 -41 21 -61q20 -20 61 -21h277h235q41 0 62 21q20 20 20 61v35v47t-20 61t-62 21h-88h-196q-102 0 -148 41q-45 41 -59 123q-6 41 -21 123h-61q-82 0 -123 41t-41 122v123t41 123t123 41h346h227 q82 0 107 -14t30 -27q25 6 76 19q51 12 94 22v-164q-37 -8 -143 -32v-91q0 -82 -41 -122q-41 -41 -123 -41h-327q4 -31 20 -123h328q113 0 190 -68q76 -64 76 -172v-6v-82q0 -123 -62 -184q-61 -61 -184 -62h-553q-123 0 -184 41t-62 164v41zM287 573h491v123h-491v-123z " />
<glyph unicode="h" horiz-adv-x="1208" d="M123 0v1147q51 4 205 20v-348l82 41h409q123 0 185 -61q61 -61 61 -185v-614h-205v336v285q0 35 -20 55t-62 20h-139h-229q-27 -14 -82 -41v-655h-205z" />
<glyph unicode="i" horiz-adv-x="450" d="M123 0v819h205v-819h-205zM123 901v164h205v-164h-205z" />
<glyph unicode="j" horiz-adv-x="532" d="M0 -123h123q41 0 61 21q20 20 21 59v862h205v-256v-604q0 -123 -62 -184q-61 -61 -184 -62h-144q-4 41 -20 164zM205 901v164h205v-164h-205z" />
<glyph unicode="k" horiz-adv-x="983" d="M123 0v1147q51 4 205 20v-635q82 82 325 328h310q-113 -113 -451 -450q113 -102 451 -410h-277q-80 70 -317 283l-41 -41v-242h-205z" />
<glyph unicode="l" horiz-adv-x="450" d="M123 0v1147q51 4 205 20v-1167h-205z" />
<glyph unicode="m" horiz-adv-x="1515" d="M123 0v860h205v-41l82 41h245q41 0 72 -31t31 -51q0 20 30 51q31 31 72 31h107h180q123 0 184 -61t62 -185v-614h-205v614q0 41 -21 62q-20 20 -59 20h-166q-41 0 -61 -20t-21 -62v-614h-129h-78v221v391q0 43 -20 64q-20 20 -62 20h-163l-82 -41v-655h-203z" />
<glyph unicode="n" horiz-adv-x="1187" d="M123 0v860h205v-41l82 41h409q123 0 185 -61q61 -61 61 -185v-614h-205v336v285q0 35 -20 55t-62 20h-139h-229q-27 -14 -82 -41v-655h-205z" />
<glyph unicode="o" horiz-adv-x="1187" d="M123 164v532q0 82 41 123t123 41h614q82 0 123 -41t41 -123v-532q0 -82 -41 -123t-123 -41h-614q-82 0 -123 41t-41 123zM328 164h532v532h-532v-532z" />
<glyph unicode="p" horiz-adv-x="1208" d="M123 -287v1147h205v-39t0 -22q41 20 61 30l62 31h409q123 0 184 -61t62 -185v-368q0 -123 -62 -185q-61 -61 -184 -61h-532v-287h-205zM328 164h272h218h-1q41 0 62 20q20 21 22 62v368q0 41 -20 62q-20 20 -62 20h-368q-41 -20 -62 -30q-20 -10 -61 -31v-471z" />
<glyph unicode="q" d="M123 246v368q0 123 61 185q61 61 185 61h409q41 -20 62 -31q20 -10 61 -30v61h205v-1147q-51 -4 -205 -20v307h-532q-123 0 -185 61q-61 61 -61 185zM328 246q0 -41 20 -62q21 -20 62 -20h-1h220h272v471q-41 20 -61 31q-20 10 -62 30h-368q-41 0 -62 -20 q-20 -20 -20 -62v-368z" />
<glyph unicode="r" horiz-adv-x="696" d="M123 0v377v483h129h78v-61v-62q0 41 41 82t123 41h163v-205h-204v41q-14 0 -9 0q8 0 -32 0q-41 0 -62 -20q-20 -20 -20 -62v-614h-207z" />
<glyph unicode="s" horiz-adv-x="1105" d="M102 0v164h617q39 0 59 20t21 62v41q0 41 -21 61q-20 20 -65 21h-365q-53 0 -96 14q-43 12 -76 41q-37 31 -55 78t-19 112q0 66 17 113q18 47 51 78q31 29 76 41q45 14 102 14h594q-4 -41 -20 -164h-533q-41 0 -61 -20t-21 -62q0 -41 21 -61q20 -20 61 -21h369 q66 0 112 -16q47 -18 78 -53q29 -31 41 -74q14 -45 15 -102v-41q0 -61 -17 -109q-14 -45 -45 -76t-76 -45q-47 -16 -108 -16h-656z" />
<glyph unicode="t" horiz-adv-x="839" d="M82 696v164h164v123q51 4 104 10q54 5 101 11v-144h327v-164h-327v-450q0 -41 20 -62q20 -20 61 -20h164q-4 -41 -20 -164h-184q-123 0 -185 61q-61 61 -61 185v450h-164z" />
<glyph unicode="u" horiz-adv-x="1105" d="M82 246v614h205v-336v-284q0 -35 20 -56q20 -20 62 -20h123h204q61 0 92 20t31 62v614h205v-860h-205v82q-20 -41 -51 -62q-31 -20 -72 -20h-368q-123 0 -185 61q-61 61 -61 185z" />
<glyph unicode="v" horiz-adv-x="1024" d="M20 860h185q76 -174 299 -692q74 172 295 692h205q-92 -215 -369 -860h-246q-93 215 -369 860z" />
<glyph unicode="w" d="M20 860h179q43 -154 170 -614q51 109 204 430h82q51 -106 205 -430q43 154 170 614h178q-57 -215 -231 -860h-158l-205 410q-51 -102 -204 -410h-164q-58 215 -226 860z" />
<glyph unicode="x" horiz-adv-x="1116" d="M0 0q111 113 444 451q-100 102 -403 409h238q70 -74 282 -293q72 74 289 293h246q-104 -106 -420 -430q104 -106 416 -430h-236q-74 78 -299 315q-78 -80 -311 -315h-246z" />
<glyph unicode="y" horiz-adv-x="1011" d="M61 860h197q74 -143 291 -573q61 143 246 573h196q-104 -246 -416 -983q-10 -27 -22 -49q-12 -23 -33 -43q-35 -33 -82 -53q-47 -18 -102 -19h-164v164h82h39q23 0 45 12q14 6 37 25q20 18 37 53q14 29 26 60t21 55q-132 260 -398 778z" />
<glyph unicode="z" horiz-adv-x="1105" d="M102 0v205q168 123 676 491h-614q-5 41 -21 164h861v-205q-168 -123 -676 -491h676v-164h-902z" />
<glyph unicode="&#xa4;" horiz-adv-x="1146" d="M90 485q0 92 39 185q37 92 102 157q66 66 158 105q92 37 184 37q94 0 187 -37q92 -39 158 -105t102 -157q39 -92 39 -185q0 -92 -39 -184q-37 -92 -102 -158q-66 -66 -158 -104q-93 -39 -187 -39q-92 0 -184 39t-158 104q-66 66 -102 158q-39 92 -39 184zM100 117 q27 27 105 104q27 -27 106 -104q-26 -27 -106 -107q-27 27 -105 107zM100 854q27 27 105 107q33 -33 133 -134q-27 -25 -107 -104zM240 485q0 -63 26 -129q27 -63 72 -108t108 -72t129 -26q63 0 127 26q64 27 111 72q45 45 72 108q27 66 26 129q0 63 -26 129q-27 63 -72 109 q-47 45 -111 72q-63 27 -127 26q-66 0 -129 -26q-63 -27 -108 -72t-72 -109q-27 -66 -26 -129zM813 143l105 105l131 -131q-25 -27 -105 -107q-33 33 -131 133zM838 854q26 27 106 107q27 -27 105 -107q-25 -27 -105 -104q-27 27 -106 104z" />
<glyph unicode="&#xa9;" d="M41 573q0 127 47 238q47 109 137 193q80 72 176 108q98 35 213 35q125 0 236 -47t194 -137q74 -80 111 -179q35 -98 35 -213q0 -119 -41 -221t-125 -186q-84 -82 -186 -123q-105 -41 -224 -41t-223 41q-102 41 -186 123t-125 184q-39 102 -39 225zM100 569 q0 -102 39 -198q39 -94 119 -172q74 -72 164 -105t192 -33q100 0 191 33q90 35 166 107q78 76 116 170q39 93 39 202q0 92 -30 179q-29 88 -90 157q-74 88 -175 131q-100 45 -217 45q-102 0 -190 -32q-88 -31 -160 -103q-82 -78 -123 -176t-41 -205zM307 569q0 74 21 131 q18 57 55 97q45 51 100 75q55 25 123 25q70 0 127 -20q55 -23 96 -62q29 -29 48 -63q18 -37 20 -80q-41 -4 -127 -8q0 12 -10 28q-8 16 -25 35q-20 20 -53 35q-33 12 -76 12q-33 0 -57 -8q-27 -10 -45 -27q-35 -31 -51 -73q-16 -45 -17 -97q0 -41 10 -75q10 -35 31 -66 q23 -31 55 -47q31 -16 74 -16q41 0 74 12q31 10 51 33q18 18 29 34q10 16 10 31q43 -2 127 -8q-4 -51 -27 -92q-25 -41 -63 -70q-39 -33 -90 -47q-49 -16 -111 -16q-66 0 -119 22q-51 23 -96 68q-41 41 -63 100q-20 59 -21 137z" />
<glyph unicode="&#xad;" horiz-adv-x="737" d="M82 369v163h573v-163h-573z" />
<glyph unicode="&#xae;" d="M41 573q0 127 47 238q47 109 137 193q80 72 176 108q98 35 213 35q125 0 236 -47t194 -137q74 -80 111 -179q35 -98 35 -213q0 -119 -41 -221t-125 -186q-84 -82 -186 -123q-105 -41 -224 -41t-223 41q-102 41 -186 123t-125 184q-39 102 -39 225zM127 573q0 -98 39 -190 q41 -92 110 -162q70 -68 158 -100q86 -33 184 -33q96 0 179 35q82 35 153 102q74 72 115 160q41 89 41 193q0 88 -31 165q-29 78 -86 146q-72 84 -166 129q-94 47 -205 47q-98 0 -182 -35q-82 -35 -151 -102q-76 -74 -117 -164t-41 -191zM338 260v152v460h410q80 0 122 -43 q41 -43 41 -120v-107q0 -57 -41 -98t-82 -41q41 -70 123 -205h-151q-39 68 -117 203h-182v-205q-31 0 -123 4zM461 582h287q27 0 34 6q6 8 6 33v79q0 25 -6 33q-8 8 -34 8q-94 1 -287 7v-166z" />
<glyph unicode="&#xc4;" horiz-adv-x="1187" d="M23 0h202q18 41 70 164h596l72 -164h129t77 0l-168 399q-170 399 -282 666h-246q-113 -266 -450 -1065zM289 1147v164h164v-164h-164zM369 328q57 133 227 532q57 -133 227 -532h-454zM739 1147v164h164v-164h-164z" />
<glyph unicode="&#xc5;" horiz-adv-x="1187" d="M23 0h202q18 41 70 164h596l72 -164h129t77 0l-168 399q-170 399 -282 666h-246q-113 -266 -450 -1065zM369 328q57 133 227 532q57 -133 227 -532h-454zM430 1270q0 33 12 63q14 33 37 53q20 23 53 37q31 12 64 13q31 0 61 -13q33 -14 54 -37q23 -20 37 -53 q12 -31 12 -63q0 -31 -12 -62q-14 -33 -37 -53q-20 -23 -54 -37q-31 -12 -61 -12q-33 0 -64 12q-33 14 -53 37q-23 20 -37 53q-12 31 -12 62zM514 1270q0 -14 6 -31q6 -16 19 -27q10 -12 26 -18t31 -6q16 0 33 6q16 6 26 18q10 10 19 27q6 17 6 31q0 16 -6 33q-8 16 -19 26 q-10 10 -26 19q-16 6 -33 6q-14 0 -31 -6q-16 -8 -26 -19q-12 -10 -19 -26q-6 -16 -6 -33z" />
<glyph unicode="&#xd6;" horiz-adv-x="1392" d="M123 246v368v205q0 123 61 185q61 61 185 61h424h231q123 0 184 -61t62 -185v-368v-205q0 -123 -62 -185q-61 -61 -184 -61h-424h-231q-123 0 -185 61q-61 61 -61 185zM328 246q0 -41 20 -62q20 -20 62 -20h292h281q41 0 61 20t21 70v283v282q0 41 -21 62q-20 20 -63 20 h-293h-278q-41 0 -62 -20q-20 -20 -20 -58v-299v-278zM369 1147v164h163v-164h-163zM860 1147v164h164v-164h-164z" />
<glyph unicode="&#xd7;" horiz-adv-x="778" d="M123 246l174 174l-174 174q23 20 86 86q45 -43 174 -174l174 174q23 -20 88 -86l-174 -174l174 -174q-23 -23 -88 -86q-43 43 -174 172q-43 -43 -174 -172z" />
<glyph unicode="&#xe4;" horiz-adv-x="1126" d="M102 164v205q0 82 41 123t123 40h533v82q0 41 -21 62q-20 20 -61 20h-553q-4 41 -21 164h615q123 0 184 -61t62 -185v-614h-205v51v31l-41 -21q-41 -20 -123 -61h-369q-82 0 -123 41t-41 123zM225 942v82v82h164v-164h-164zM307 164h328q82 41 123 61t41 21v123h-492 v-205zM676 942v123v41h164v-164h-164z" />
<glyph unicode="&#xe5;" horiz-adv-x="1126" d="M102 164v205q0 82 41 123t123 40h533v82q0 41 -21 62q-20 20 -61 20h-553q-4 41 -21 164h615q123 0 184 -61t62 -185v-614h-205v51v31l-41 -21q-41 -20 -123 -61h-369q-82 0 -123 41t-41 123zM307 164h328q82 41 123 61t41 21v123h-492v-205zM367 1085q0 33 12 64 q14 33 37 53q20 23 53 37q31 12 63 12q31 0 62 -12q33 -14 53 -37q23 -20 37 -53q12 -31 12 -64q0 -31 -12 -61q-14 -33 -37 -53q-20 -23 -53 -37q-31 -12 -62 -12q-33 0 -63 12q-33 14 -53 37q-23 20 -37 53q-12 31 -12 61zM451 1085q0 -14 6 -30t18 -27q10 -12 27 -18 q16 -6 30 -6q16 0 33 6q16 6 27 18q10 10 18 27q6 16 6 30q0 16 -6 33q-8 16 -18 27q-10 10 -27 18q-16 6 -33 6q-14 0 -30 -6q-16 -8 -27 -18q-12 -10 -18 -27q-6 -16 -6 -33z" />
<glyph unicode="&#xf6;" horiz-adv-x="1187" d="M123 164v532q0 82 41 123t123 41h614q82 0 123 -41t41 -123v-532q0 -82 -41 -123t-123 -41h-614q-82 0 -123 41t-41 123zM266 942v82v82h164v-164h-164zM328 164h532v532h-532v-532zM717 942v164h164v-164h-164z" />
<glyph unicode="&#x2000;" horiz-adv-x="718" />
<glyph unicode="&#x2001;" horiz-adv-x="1436" />
<glyph unicode="&#x2002;" horiz-adv-x="718" />
<glyph unicode="&#x2003;" horiz-adv-x="1436" />
<glyph unicode="&#x2004;" horiz-adv-x="478" />
<glyph unicode="&#x2005;" horiz-adv-x="359" />
<glyph unicode="&#x2006;" horiz-adv-x="239" />
<glyph unicode="&#x2007;" horiz-adv-x="239" />
<glyph unicode="&#x2008;" horiz-adv-x="179" />
<glyph unicode="&#x2009;" horiz-adv-x="287" />
<glyph unicode="&#x200a;" horiz-adv-x="79" />
<glyph unicode="&#x2010;" horiz-adv-x="737" d="M82 369v163h573v-163h-573z" />
<glyph unicode="&#x2011;" horiz-adv-x="737" d="M82 369v163h573v-163h-573z" />
<glyph unicode="&#x2012;" horiz-adv-x="737" d="M82 369v163h573v-163h-573z" />
<glyph unicode="&#x2013;" horiz-adv-x="1146" d="M82 369v163h983v-163h-983z" />
<glyph unicode="&#x2014;" horiz-adv-x="1392" d="M82 369v163h1229v-163h-1229z" />
<glyph unicode="&#x2019;" horiz-adv-x="245" d="M41 860q10 31 41 123h-41v164h164v-164q-20 -31 -82 -123h-82z" />
<glyph unicode="&#x201c;" horiz-adv-x="491" d="M41 860v164q20 31 82 123h82q-10 -31 -41 -123h41v-164h-164zM287 860v164q20 31 82 123h82q-10 -31 -41 -123h41v-164h-164z" />
<glyph unicode="&#x201d;" horiz-adv-x="491" d="M41 860q10 31 41 123h-41v164h164v-164q-20 -31 -82 -123h-82zM287 860q10 31 41 123h-41v164h164v-164q-20 -31 -82 -123h-82z" />
<glyph unicode="&#x202f;" horiz-adv-x="287" />
<glyph unicode="&#x205f;" horiz-adv-x="359" />
<glyph unicode="&#x20ac;" horiz-adv-x="1331" d="M47 307q10 41 41 164h102v102h-81q10 41 41 164q10 0 40 4v78q0 123 62 185q61 61 184 61h588q82 0 143 -61t62 -185q-68 -6 -205 -20v20q0 41 -20 62q-20 20 -62 20h-465q-41 0 -61 -20t-21 -62v-82h451q-10 -41 -41 -164h-410v-102h383q-10 -41 -41 -164h-342v-61 q0 -41 21 -62q20 -20 61 -20h465q41 0 62 20q20 20 20 62v20q51 -4 205 -20q0 -123 -62 -185q-61 -61 -184 -61h-547q-123 0 -184 61t-62 185v61h-143z" />
<glyph unicode="&#x25fc;" horiz-adv-x="860" d="M0 0v860h860v-860h-860z" />
</font>
</defs>
</svg>
